<svg width="202" height="45" viewBox="0 0 202 45" fill="none" xmlns="http://www.w3.org/2000/svg">
<path d="M2.55323 36.6235C2.2573 36.6397 2.01128 36.5512 1.81515 36.3579C1.61902 36.1646 1.50674 35.809 1.47831 35.2912C1.45698 34.9028 1.54267 34.2673 1.73538 33.3848C1.94557 32.4828 2.23086 31.4283 2.59126 30.2212C2.97015 29.0131 3.39173 27.7378 3.85599 26.3952C4.33773 25.033 4.83848 23.6791 5.35823 22.3334C5.87798 20.9878 6.39406 19.7443 6.90649 18.6031C7.4179 17.4434 7.89271 16.4619 8.33094 15.6587C8.76917 14.8555 9.14814 14.3245 9.46786 14.0658C9.84103 13.7671 10.1941 13.6085 10.527 13.5903C10.7119 13.5801 10.8979 13.5884 11.0849 13.6153C11.2719 13.6421 11.4327 13.6982 11.5672 13.7836C11.9113 13.9687 12.2228 14.4061 12.5019 15.0958C12.7984 15.7659 13.0665 16.5952 13.3063 17.5838C13.5451 18.5539 13.751 19.6001 13.9239 20.7222C14.1143 21.8248 14.2857 22.9192 14.4381 24.0053C14.9889 23.9009 15.4482 23.82 15.8161 23.7627C16.184 23.7054 16.4512 23.6722 16.6176 23.6631C17.2465 23.6285 17.6487 23.6899 17.8243 23.8472C17.9999 24.0046 18.103 24.1937 18.1337 24.4146C18.189 24.7455 18.1128 25.0465 17.905 25.3176C17.6973 25.5888 17.3935 25.8002 16.9938 25.952C16.8663 25.9961 16.5924 26.0761 16.1721 26.1919C15.7693 26.2883 15.2842 26.4076 14.717 26.5501C14.7659 27.104 14.8036 27.6213 14.83 28.1022C14.8739 28.5636 14.905 28.9607 14.9233 29.2936C15.0157 30.9767 14.9835 32.2492 14.8268 33.1112C14.669 33.9547 14.4503 34.5325 14.1707 34.8447C13.891 35.1568 13.6124 35.3206 13.335 35.3358C13.0021 35.3541 12.7658 35.2743 12.6262 35.0964C12.4855 34.9001 12.4051 34.617 12.3847 34.2471L12.2766 32.2773C12.239 31.593 12.1871 30.8167 12.1209 29.9484C12.0721 29.0606 12.0116 28.1271 11.9393 27.1479C10.8582 27.3927 9.75812 27.6294 8.63904 27.8578C7.53845 28.0852 6.58481 28.2859 5.77812 28.4601C5.42911 29.5367 5.13 30.5085 4.88079 31.3755C4.63056 32.2241 4.46215 32.8733 4.37555 33.3233C4.1489 34.2633 3.93729 34.9706 3.74074 35.4452C3.54317 35.9013 3.34672 36.2089 3.15139 36.368C2.97456 36.5261 2.77518 36.6113 2.55323 36.6235ZM6.58581 25.9392C7.53539 25.6644 8.43974 25.4107 9.29887 25.178C10.1765 24.9443 10.9817 24.7424 11.7144 24.5723C11.5675 22.9108 11.3784 21.3257 11.1472 19.8172C10.9334 18.2892 10.6727 17.0884 10.365 16.2149C10.0471 16.8445 9.67565 17.6812 9.25063 18.7248C8.8256 19.7685 8.37893 20.9246 7.9106 22.1933C7.45976 23.4424 7.01816 24.691 6.58581 25.9392ZM24.9292 35.4226C24.5223 35.445 24.2013 35.342 23.9661 35.1138C23.7505 34.903 23.6345 34.6497 23.6183 34.3537C23.6041 34.0948 23.7019 33.8483 23.9116 33.6141C24.1388 33.3605 24.4508 33.13 24.8476 32.9227C25.5661 32.4937 26.2383 32.0672 26.8643 31.6432C27.5089 31.2183 28.0224 30.7727 28.4049 30.3065C28.7874 29.8402 28.965 29.3574 28.9376 28.858C28.9142 28.4326 28.7577 28.1166 28.4681 27.9099C28.1775 27.6847 27.7917 27.5853 27.3108 27.6117C27.0334 27.6269 26.648 27.7037 26.1547 27.8421C25.6604 27.962 25.1209 28.1029 24.5362 28.2649C23.9689 28.4074 23.4109 28.5493 22.8621 28.6908C22.3123 28.8137 21.8432 28.8858 21.4548 28.9072C20.752 28.9458 20.2157 28.8082 19.846 28.4946C19.4753 28.1625 19.2737 27.7005 19.2412 27.1087C19.225 26.8127 19.3763 26.3592 19.6952 25.748C20.0141 25.1369 20.4405 24.4549 20.9742 23.7021C21.5255 22.9298 22.1322 22.1544 22.7944 21.376C23.4566 20.5976 24.1311 19.8742 24.8179 19.2057C25.5232 18.5362 26.1796 17.99 26.7871 17.5671C27.4131 17.1432 27.9388 16.9195 28.3642 16.8961C28.7896 16.8728 29.1209 16.9937 29.3581 17.259C29.5952 17.5242 29.7255 17.8695 29.7489 18.2949C29.7672 18.6279 29.7274 18.9176 29.6296 19.1641C29.5309 19.3922 29.3093 19.5806 28.965 19.7293C28.6392 19.8771 28.1254 19.9795 27.4236 20.0366C26.7337 20.6495 26.0022 21.3483 25.229 22.1328C24.4734 22.8978 23.7839 23.687 23.1607 24.5003C22.555 25.2942 22.1235 26.0507 21.8662 26.7697C22.4654 26.5328 23.1955 26.3164 24.0567 26.1207C24.9353 25.9055 25.8278 25.7731 26.7341 25.7233C28.1582 25.6451 29.2302 25.9109 29.9501 26.5206C30.6875 27.1109 31.0846 27.9239 31.1415 28.9596C31.178 29.6255 31.0034 30.3307 30.6176 31.0754C30.2493 31.8006 29.749 32.4866 29.1167 33.1335C28.4843 33.7804 27.7992 34.3097 27.0612 34.7212C26.3242 35.1513 25.6135 35.3851 24.9292 35.4226ZM45.7257 35.1433C44.5235 35.2094 43.3981 34.9836 42.3493 34.4661C41.3191 33.9476 40.3722 33.2575 39.5086 32.3959C38.6635 31.5333 37.8982 30.6014 37.2124 29.6002C36.5442 28.5795 35.9627 27.6189 35.4681 26.7185C35.2359 28.2339 35.0527 29.4591 34.9186 30.394C34.8029 31.3279 34.7028 32.0384 34.6182 32.5253C34.5521 33.0113 34.4774 33.3401 34.3941 33.5116C34.3107 33.6831 34.1951 33.773 34.0471 33.7811C33.6402 33.8034 33.2396 33.6028 32.8454 33.1792C32.4511 32.7557 32.2346 32.1924 32.196 31.4896C32.1554 30.7498 32.2311 29.7624 32.423 28.5275C32.6139 27.2741 32.8809 25.8866 33.224 24.3652C33.5846 22.8242 34.0074 21.2334 34.4924 19.5928C34.9764 17.9337 35.4814 16.3198 36.0075 14.7512C36.551 13.163 37.1022 11.7136 37.661 10.4029C37.9409 9.75679 38.1867 9.33516 38.3985 9.13802C38.6288 8.93986 38.9104 8.83164 39.2433 8.81336C39.7797 8.78391 40.0616 9.01887 40.089 9.51825C40.0991 9.7032 40.0548 9.9097 39.956 10.1377C39.8757 10.3648 39.7877 10.62 39.692 10.9036C39.4038 11.7356 39.0841 12.6715 38.7331 13.7111C38.4005 14.7497 38.0613 15.835 37.7153 16.967C37.3878 18.0981 37.0784 19.2189 36.7869 20.3294C36.4954 21.4399 36.2455 22.4647 36.0374 23.4037C36.8022 22.8052 37.7058 22.199 38.748 21.5852C39.7903 20.9715 40.8726 20.4112 41.995 19.9043C43.1163 19.379 44.178 18.9496 45.18 18.6163C46.182 18.2831 47.0159 18.0981 47.6818 18.0616C48.0332 18.0423 48.3075 18.1385 48.5046 18.3503C48.7192 18.5426 48.8336 18.7682 48.8479 19.0271C48.859 19.2306 48.8055 19.4376 48.6872 19.6481C48.5863 19.8392 48.355 20.0189 47.9933 20.1871C46.7959 20.6796 45.6083 21.1807 44.4305 21.6906C43.2517 22.182 42.0194 22.7135 40.7336 23.285C39.4653 23.8369 38.0819 24.488 36.5833 25.2381C37.1089 26.0255 37.7213 26.8731 38.4204 27.7808C39.1185 28.67 39.8603 29.5105 40.6459 30.3021C41.4304 31.0753 42.2257 31.7088 43.032 32.2025C43.8372 32.6777 44.6283 32.894 45.4051 32.8513C46.4223 32.7955 47.3909 32.5289 48.3108 32.0518C49.2307 31.5746 50.0716 31.009 50.8334 30.3549C51.6137 29.6999 52.2932 29.069 52.8721 28.4621C53.45 27.8367 53.9054 27.3479 54.2386 26.9957C54.4144 26.8191 54.5748 26.699 54.7197 26.6354C54.8821 26.5522 55.028 26.5071 55.1575 26.5C55.4164 26.4858 55.5997 26.6149 55.7074 26.8872C55.8326 27.1401 55.7559 27.4318 55.4772 27.7625C55.2695 28.0336 54.9492 28.4501 54.5162 29.0118C54.0833 29.5736 53.5517 30.1964 52.9214 30.8803C52.3086 31.5447 51.6208 32.1947 50.858 32.8302C50.1137 33.4647 49.2985 33.9918 48.4126 34.4115C47.5461 34.8486 46.6505 35.0926 45.7257 35.1433ZM64.4214 32.1132C63.7185 32.1518 63.1182 31.8602 62.6202 31.2382C62.1398 30.5967 61.8706 29.7489 61.8127 28.6946C61.7619 27.7699 61.9444 26.8694 62.3601 25.9932C62.7747 25.0985 63.3394 24.2327 64.054 23.3958C64.7871 22.5578 65.6071 21.78 66.5138 21.0624C67.4195 20.3263 68.338 19.6544 69.2693 19.0467C70.2191 18.438 71.1179 17.9156 71.9659 17.4795C72.8323 17.0423 73.5744 16.7047 74.1921 16.4668C74.8087 16.2103 75.2373 16.0754 75.4777 16.0622C75.8846 16.0399 76.1003 16.2507 76.1246 16.6946C76.146 17.083 76.0075 17.4338 75.7094 17.747C75.4297 18.0591 75.0827 18.3286 74.6685 18.5554C73.913 18.9865 73.0506 19.4976 72.0813 20.0888C71.1295 20.6605 70.1628 21.298 69.181 22.0012C68.2168 22.6849 67.3199 23.4112 66.4902 24.1803C65.679 24.9483 65.0363 25.7442 64.5621 26.568C64.0869 27.3732 63.8716 28.1827 63.9163 28.9965C63.9295 29.237 63.9859 29.4194 64.0855 29.5438C64.2036 29.6672 64.3921 29.7217 64.651 29.7075C64.9839 29.6892 65.4007 29.5087 65.9013 29.1658C66.4194 28.8034 66.9781 28.3368 67.5775 27.7659C68.1944 27.1755 68.799 26.5301 69.3913 25.8297C70.0021 25.1284 70.5661 24.4203 71.0834 23.7055C71.5996 22.9722 72.0167 22.2907 72.3346 21.6611C72.5198 21.317 72.7358 21.0268 72.9825 20.7907C73.2282 20.536 73.4991 20.4006 73.795 20.3843C74.2019 20.362 74.4186 20.5912 74.445 21.0721C74.4531 21.2201 74.4184 21.6023 74.341 22.2187C74.282 22.8342 74.2209 23.5796 74.1577 24.455C74.0934 25.3118 74.0872 26.2119 74.139 27.1552C74.2497 29.1712 74.7859 30.1528 75.7477 30.1C76.284 30.0705 76.8277 29.8366 77.3787 29.3982C77.9482 28.9588 78.4932 28.4095 79.0135 27.7502C79.5513 27.0713 80.0409 26.3581 80.4821 25.6103C80.9234 24.8626 81.2927 24.1559 81.5901 23.4903C81.8875 22.8247 82.0902 22.2941 82.1984 21.8986C82.3806 19.8109 82.7149 18.2991 83.2016 17.3634C83.7067 16.4266 84.2459 15.9425 84.8192 15.9111C85.1892 15.8907 85.4907 15.9762 85.7238 16.1675C85.9559 16.3402 86.0897 16.7503 86.1253 17.3976C86.1496 17.8415 86.0105 18.517 85.7078 19.4241C85.4051 20.3312 84.9868 21.3281 84.4529 22.4148C84.3382 23.3672 84.299 24.3433 84.3354 25.3431C84.3717 26.3429 84.5237 27.2528 84.7914 28.0729C85.2591 27.8061 85.7161 27.345 86.1624 26.6898C86.6078 26.016 87.0568 25.24 87.5094 24.3618C87.9621 23.4836 88.404 22.5782 88.8351 21.6455C89.2847 20.7118 89.7291 19.8526 90.1684 19.0679C90.6251 18.2636 91.0714 17.6084 91.5074 17.1021C91.9619 16.5948 92.4203 16.3285 92.8827 16.3031C93.4746 16.2706 93.9749 16.4286 94.3836 16.7772C94.7913 17.1073 95.1217 17.7199 95.375 18.615C95.6272 19.4916 95.7979 20.7437 95.8873 22.3713C95.935 23.2406 96.063 24.0498 96.2711 24.799C96.4976 25.5472 96.8178 26.1418 97.2316 26.5828C97.6629 27.0044 98.193 27.1979 98.8218 27.1634C99.7651 27.1116 100.597 26.8989 101.319 26.5254C102.04 26.1333 102.656 25.7099 103.169 25.255C103.7 24.7807 104.141 24.3669 104.492 24.0137C104.843 23.6419 105.12 23.4505 105.324 23.4393C105.749 23.4159 105.974 23.6262 105.998 24.0701C106.008 24.2551 105.886 24.5586 105.631 24.9807C105.393 25.3834 105.048 25.8476 104.594 26.3733C104.158 26.8796 103.648 27.3807 103.063 27.8766C102.495 28.353 101.878 28.7579 101.209 29.0914C100.56 29.4239 99.8929 29.609 99.2086 29.6465C97.9324 29.7166 96.8737 29.5243 96.0325 29.0696C95.2098 28.6139 94.5727 27.8234 94.1213 26.698C93.6885 25.5716 93.4192 24.0466 93.3136 22.1231C93.2557 21.0688 93.1766 20.3033 93.0762 19.8265C92.9748 19.3312 92.7716 19.0084 92.4665 18.8582C92.2659 19.2588 92.0004 19.8299 91.6701 20.5715C91.3573 21.2937 90.9935 22.1021 90.5789 22.9967C90.1827 23.8904 89.7501 24.7953 89.281 25.7115C88.8108 26.6093 88.3279 27.4428 87.8321 28.212C87.3354 28.9628 86.8315 29.5841 86.3205 30.076C85.8085 30.5493 85.3121 30.7992 84.8312 30.8256C84.5168 30.8428 84.184 30.6942 83.8328 30.3795C83.4806 30.0464 83.1783 29.6085 82.9258 29.0658C82.6724 28.5046 82.5279 27.9004 82.4924 27.253C82.469 26.8276 82.4564 26.4295 82.4546 26.0586C81.7552 27.1729 81.0147 28.2154 80.2332 29.1858C79.4507 30.1378 78.6585 30.9141 77.8567 31.5146C77.0549 32.1152 76.2933 32.4353 75.572 32.4749C74.9986 32.5064 74.4511 32.3324 73.9293 31.9529C73.4066 31.5549 72.9606 30.8652 72.5913 29.8837C72.2396 28.8827 71.9974 27.5139 71.865 25.7774C71.1142 26.9688 70.31 28.0333 69.4524 28.9708C68.5949 29.9084 67.7365 30.6605 66.8771 31.2271C66.0168 31.7752 65.1982 32.0706 64.4214 32.1132ZM124.175 17.3675C124.208 17.9594 124.055 18.5521 123.716 19.1458C123.377 19.721 122.916 20.2843 122.334 20.8356C121.751 21.3685 121.102 21.8772 120.387 22.3617C119.671 22.8463 118.953 23.2753 118.231 23.6488C117.51 24.0224 116.849 24.3276 116.25 24.5646C116.142 25.294 116.103 25.9362 116.133 26.4911C116.153 26.8425 116.25 27.0876 116.424 27.2264C116.599 27.3652 116.862 27.425 117.213 27.4057C117.99 27.3631 118.805 27.1791 119.66 26.854C120.514 26.5288 121.382 26.1194 122.263 25.6257C123.145 25.1321 123.989 24.6127 124.794 24.0676C125.598 23.5226 126.331 23.0093 126.991 22.5278C127.669 22.0453 128.232 21.6527 128.679 21.3499C129.126 21.0471 129.424 20.8916 129.572 20.8835C129.794 20.8713 129.964 20.9361 130.084 21.078C130.22 21.2003 130.293 21.354 130.304 21.5389C130.312 21.6869 130.096 21.9863 129.657 22.4371C129.237 22.8868 128.663 23.4192 127.936 24.0342C127.208 24.6307 126.389 25.2508 125.478 25.8945C124.568 26.5381 123.618 27.1468 122.629 27.7205C121.659 28.2932 120.71 28.7627 119.784 29.1289C118.877 29.4941 118.053 29.697 117.313 29.7377C116.352 29.7905 115.583 29.4709 115.007 28.7791C114.431 28.0872 114.101 26.9829 114.018 25.4663C113.962 24.4491 114.035 23.4155 114.237 22.3655C114.458 21.3145 114.773 20.3047 115.184 19.336C115.612 18.3479 116.092 17.4681 116.625 16.6968C117.175 15.906 117.763 15.2801 118.386 14.8192C119.009 14.3398 119.626 14.0833 120.236 14.0498C121.402 13.9858 122.335 14.2592 123.036 14.87C123.738 15.4808 124.117 16.3133 124.175 17.3675ZM116.716 22.3964C117.27 22.0135 117.841 21.6111 118.43 21.1892C119.019 20.7672 119.561 20.3386 120.057 19.9033C120.553 19.4679 120.945 19.0197 121.235 18.5585C121.543 18.0779 121.683 17.5971 121.657 17.1162C121.619 16.4319 121.231 16.11 120.491 16.1506C120.029 16.176 119.555 16.4989 119.069 17.1192C118.601 17.7199 118.162 18.4954 117.75 19.4456C117.338 20.3957 116.994 21.3793 116.716 22.3964ZM127.858 28.1569C127.581 28.1721 127.372 28.0816 127.231 27.8852C127.09 27.6889 127.012 27.4335 126.994 27.1191C126.98 26.8601 127.126 26.4811 127.433 25.9819C127.757 25.4632 128.178 24.8558 128.696 24.1595C129.232 23.4436 129.821 22.6785 130.462 21.8642C131.104 21.0498 131.754 20.2256 132.414 19.3917C131.484 17.9958 130.774 16.8939 130.284 16.086C129.794 15.2595 129.535 14.6059 129.509 14.125C129.49 13.7921 129.585 13.4808 129.791 13.1912C129.997 12.8831 130.211 12.7229 130.433 12.7107C130.692 12.6965 130.95 12.84 131.208 13.1413C131.483 13.423 131.825 13.9143 132.235 14.6153C132.643 15.2978 133.196 16.2414 133.893 17.4461C134.843 16.1695 135.63 15.1246 136.253 14.3112C136.895 13.4968 137.407 12.8658 137.791 12.418C138.193 11.9693 138.51 11.6551 138.741 11.4754C138.99 11.2762 139.206 11.1716 139.391 11.1614C139.613 11.1492 139.803 11.2315 139.962 11.4084C140.119 11.5667 140.208 11.8401 140.229 12.2285C140.249 12.5984 140.099 13.0612 139.777 13.6168C139.473 14.1715 139.061 14.7785 138.541 15.4378C138.021 16.0971 137.455 16.7774 136.844 17.4788C136.251 18.1607 135.684 18.8226 135.145 19.4644C136.157 21.0042 137.121 22.3426 138.036 23.4796C138.951 24.5981 139.688 25.5223 140.248 26.2522C140.826 26.981 141.125 27.5212 141.144 27.8726C141.157 28.113 141.112 28.301 141.008 28.4366C140.903 28.5537 140.693 28.6208 140.379 28.6381C140.157 28.6503 139.893 28.572 139.587 28.4033C139.281 28.2346 138.882 27.8948 138.39 27.3838C137.917 26.8718 137.291 26.127 136.514 25.1493C135.754 24.1522 134.811 22.8497 133.684 21.242C133.076 21.9989 132.47 22.7835 131.865 23.5959C131.278 24.3887 130.716 25.1338 130.179 25.8311C129.66 26.5089 129.199 27.063 128.796 27.4932C128.393 27.9235 128.08 28.1447 127.858 28.1569ZM143.037 36.5898C142.722 36.607 142.467 36.5098 142.27 36.298C142.091 36.0852 141.984 35.6643 141.95 35.0355C141.9 34.1292 141.907 33.0714 141.97 31.8621C142.034 30.6528 142.139 29.367 142.287 28.0046C142.454 26.6412 142.638 25.2768 142.842 23.9114C143.063 22.545 143.298 21.2428 143.545 20.0049C143.811 18.7659 144.076 17.6661 144.338 16.7056C144.6 15.7266 144.845 14.9525 145.073 14.3834C145.32 13.8133 145.545 13.5227 145.749 13.5115C146.1 13.4922 146.383 13.5787 146.598 13.771C146.831 13.9623 146.959 14.2613 146.981 14.6682C147.01 15.1861 146.899 16.0363 146.648 17.2188C146.397 18.3828 146.072 19.9032 145.674 21.7802C146.09 20.904 146.541 19.9888 147.026 19.0346C147.512 18.0804 148.027 17.1524 148.571 16.2506C149.114 15.3303 149.662 14.5025 150.215 13.7672C150.787 13.0308 151.348 12.4342 151.898 11.9773C152.448 11.5205 152.991 11.2773 153.527 11.2478C154.101 11.2164 154.62 11.3734 155.084 11.7189C155.547 12.046 155.916 12.508 156.189 13.1052C156.481 13.6828 156.647 14.3416 156.688 15.0814C156.772 16.6165 156.595 18.1196 156.156 19.5907C155.716 21.0433 155.066 22.3683 154.204 23.5658C153.359 24.7438 152.336 25.6997 151.133 26.4336C149.949 27.1665 148.645 27.572 147.221 27.6502C146.685 27.6797 146.202 27.6783 145.774 27.6462C145.345 27.6141 144.972 27.5696 144.653 27.5129C144.498 28.7458 144.355 30.0152 144.222 31.321C144.09 32.6269 143.962 34.016 143.839 35.4883C143.805 35.8797 143.727 36.153 143.606 36.3081C143.485 36.4816 143.296 36.5755 143.037 36.5898ZM154.143 13.3289C153.754 13.3502 153.304 13.5976 152.792 14.0709C152.298 14.5432 151.767 15.1661 151.197 15.9394C150.645 16.6932 150.088 17.5308 149.526 18.4521C148.964 19.3549 148.421 20.2752 147.897 21.2129C147.373 22.1507 146.893 23.0212 146.454 23.8244C146.035 24.6266 145.691 25.2947 145.423 25.8289C146.864 25.7127 148.115 25.3564 149.177 24.7601C150.238 24.1453 151.133 23.3912 151.863 22.4978C152.592 21.5858 153.17 20.6173 153.596 19.5921C154.04 18.5475 154.346 17.5474 154.517 16.5919C154.686 15.618 154.751 14.7796 154.712 14.0768C154.684 13.5589 154.494 13.3096 154.143 13.3289ZM168.614 14.4821C168.679 15.6659 168.178 16.8436 167.111 18.0152C166.043 19.1869 164.379 20.2986 162.118 21.3503C162.069 21.8168 162.054 22.2072 162.071 22.5216C162.112 23.2615 162.234 23.7927 162.437 24.1155C162.659 24.4373 163.001 24.5854 163.463 24.56C164.147 24.5225 164.903 24.2676 165.731 23.7955C166.557 23.3049 167.405 22.6925 168.273 21.9585C169.141 21.2059 169.988 20.4173 170.815 19.5928C171.66 18.7672 172.434 17.9919 173.136 17.267C173.837 16.5235 174.435 15.9249 174.929 15.4711C175.423 14.9987 175.762 14.7575 175.947 14.7473C176.206 14.7331 176.425 14.8417 176.605 15.073C176.784 15.2858 176.884 15.5864 176.905 15.9748C176.931 16.4557 176.934 17.012 176.913 17.6439C176.891 18.2573 176.862 18.9082 176.826 19.5966C177.232 18.2201 177.769 17.0126 178.435 15.9742C179.119 14.9163 179.859 14.0316 180.655 13.3201C181.451 12.6086 182.237 12.0645 183.014 11.6879C183.791 11.3113 184.466 11.1073 185.04 11.0758C185.576 11.0464 185.979 11.1262 186.249 11.3155C186.52 11.5047 186.662 11.738 186.677 12.0155C186.692 12.2744 186.585 12.5215 186.356 12.7566C186.146 12.9722 185.642 13.2689 184.847 13.6465C183.924 14.0682 183.06 14.5516 182.255 15.0966C181.469 15.6407 180.748 16.3667 180.093 17.2745C179.437 18.1639 178.87 19.3359 178.394 20.7905C177.917 22.2452 177.546 24.1021 177.281 26.3614C177.231 26.8093 177.119 27.1309 176.944 27.326C176.77 27.5396 176.554 27.6535 176.295 27.6677C176.11 27.6779 175.92 27.6048 175.726 27.4485C175.533 27.3107 175.365 26.9582 175.223 26.3909C175.08 25.8051 174.973 24.8834 174.904 23.6257C174.857 22.7749 174.844 21.8481 174.863 20.8453C174.9 19.8415 174.973 18.7894 175.079 17.689C174.279 18.6605 173.389 19.6833 172.409 20.7574C171.428 21.813 170.407 22.806 169.345 23.7362C168.282 24.6479 167.229 25.4014 166.185 25.9967C165.142 26.592 164.158 26.915 163.233 26.9658C162.253 27.0196 161.448 26.7206 160.819 26.0687C160.189 25.4169 159.838 24.4159 159.763 23.0657C159.678 21.5121 159.803 20.0768 160.139 18.7598C160.475 17.4428 160.941 16.2948 161.536 15.316C162.131 14.3187 162.784 13.5408 163.495 12.9823C164.206 12.4238 164.904 12.1258 165.589 12.0882C166.513 12.0374 167.239 12.2388 167.765 12.6922C168.289 13.1272 168.572 13.7238 168.614 14.4821ZM162.451 19.3007C162.984 18.8818 163.561 18.4142 164.182 17.8978C164.822 17.3803 165.359 16.8592 165.794 16.3344C166.246 15.7902 166.461 15.3053 166.438 14.8799C166.423 14.621 166.349 14.4396 166.213 14.3357C166.077 14.2319 165.852 14.1886 165.538 14.2058C165.039 14.2332 164.59 14.5083 164.192 15.0311C163.793 15.5353 163.448 16.1757 163.157 16.9523C162.864 17.7104 162.629 18.4932 162.451 19.3007ZM181.754 17.2947C181.252 17.2851 181.004 16.9741 181.007 16.3617C181.017 16.2127 181.109 16.0315 181.283 15.8178C181.456 15.5857 181.662 15.4538 181.902 15.4221C182.472 15.3352 183.17 15.2134 183.996 15.0567C184.84 14.8805 185.766 14.6812 186.774 14.4589C186.909 13.5425 187.079 12.5778 187.283 11.5648C187.487 10.5519 187.72 9.5651 187.983 8.60457C188.245 7.62554 188.53 6.73797 188.839 5.94186C189.147 5.14576 189.484 4.5151 189.848 4.04988C190.04 3.83526 190.217 3.68639 190.38 3.60326C190.541 3.50165 190.687 3.44728 190.816 3.44017C191.075 3.42596 191.285 3.52576 191.445 3.73958C191.623 3.95238 191.72 4.1975 191.735 4.47493C191.744 4.6229 191.724 4.77238 191.677 4.92339C191.364 5.97945 191.036 7.27747 190.694 8.81746C190.352 10.3574 189.99 12.0377 189.607 13.8581C191.294 13.4873 192.979 13.0979 194.663 12.6901C196.347 12.2822 197.793 11.9153 198.999 11.5893C199.343 11.4221 199.612 11.4351 199.808 11.6284C200.023 11.8207 200.136 12.0185 200.147 12.222C200.161 12.4809 200.098 12.6792 199.957 12.8168C199.835 12.9533 199.702 13.0719 199.559 13.1725L199.533 13.2018C199.171 13.3701 198.626 13.5762 197.897 13.8203C197.168 14.0459 196.328 14.2961 195.379 14.5708C194.428 14.8271 193.413 15.0869 192.333 15.3503C191.271 15.6126 190.218 15.856 189.173 16.0803C188.837 17.7313 188.494 19.429 188.144 21.1734C187.812 22.8984 187.479 24.5956 187.144 26.265C186.996 26.941 186.806 27.3688 186.574 27.5485C186.363 27.7456 186.127 27.8513 185.868 27.8655C185.572 27.8818 185.307 27.785 185.073 27.5753C184.858 27.3645 184.805 26.9129 184.915 26.2204L186.421 16.6488C185.321 16.8762 184.347 17.0502 183.5 17.1709C182.672 17.2906 182.09 17.3319 181.754 17.2947Z" fill="white"/>
</svg>
