<svg width="345" height="78" viewBox="0 0 345 78" fill="none" xmlns="http://www.w3.org/2000/svg">
<mask id="mask0_12988_5875" style="mask-type:alpha" maskUnits="userSpaceOnUse" x="-26" y="0" width="380" height="178">
<rect width="364" height="121.615" transform="matrix(-0.987688 -0.156438 -0.156438 0.987688 353.272 57.2207)" fill="#D9D9D9"/>
</mask>
<g mask="url(#mask0_12988_5875)">
<path d="M830.919 195.419C898.195 194.59 967.901 236.465 994.344 257.506L992.03 272.117L-546.374 28.452L-526.025 -100.022C-485.474 -105.042 -385.943 -98.1826 -312.229 -30.582C-238.516 37.0185 -150.986 41.1453 -116.435 34.7586C-69.0437 22.7076 47.3546 8.3959 133.818 47.5567C220.282 86.7174 315.402 86.9282 352.154 82.1385C382.621 73.6485 467.272 71.1608 562.144 129.13C680.733 201.591 746.825 196.456 830.919 195.419Z" fill="url(#paint0_linear_12988_5875)"/>
<path d="M830.919 195.419C898.195 194.59 967.901 236.465 994.344 257.506L992.03 272.117L-546.374 28.452L-526.025 -100.022C-485.474 -105.042 -385.943 -98.1826 -312.229 -30.582C-238.516 37.0185 -150.986 41.1453 -116.435 34.7586C-69.0437 22.7076 47.3546 8.3959 133.818 47.5567C220.282 86.7174 315.402 86.9282 352.154 82.1385C382.621 73.6485 467.272 71.1608 562.144 129.13C680.733 201.591 746.825 196.456 830.919 195.419Z" fill="#179C78"/>
</g>
<defs>
<linearGradient id="paint0_linear_12988_5875" x1="244.496" y1="13.4842" x2="222.828" y2="150.285" gradientUnits="userSpaceOnUse">
<stop stop-color="white"/>
<stop offset="0.870192" stop-color="white"/>
<stop offset="1" stop-color="white" stop-opacity="0"/>
</linearGradient>
</defs>
</svg>
