<svg width="63" height="64" viewBox="0 0 63 64" fill="none" xmlns="http://www.w3.org/2000/svg">
<path d="M55.1042 31.9822C55.1042 44.91 44.6241 55.3902 31.6962 55.3902C26.7653 55.3902 22.1904 53.8655 18.4174 51.262L10.4163 53.2622L12.5129 45.3997C9.85058 41.6003 8.28825 36.9738 8.28825 31.9822C8.28825 19.0543 18.7684 8.57422 31.6962 8.57422C44.6241 8.57422 55.1042 19.0543 55.1042 31.9822Z" fill="url(#paint0_linear_12988_5864)"/>
<path fill-rule="evenodd" clip-rule="evenodd" d="M31.6962 59.2915C46.7788 59.2915 59.0055 47.0647 59.0055 31.9822C59.0055 16.8996 46.7788 4.67285 31.6962 4.67285C16.6137 4.67285 4.38692 16.8996 4.38692 31.9822C4.38692 36.8801 5.67631 41.4768 7.93414 45.4515L4.38692 59.2915L18.6558 55.9828C22.5308 58.0926 26.9735 59.2915 31.6962 59.2915ZM31.6962 55.0901C44.4585 55.0901 54.8042 44.7444 54.8042 31.9822C54.8042 19.22 44.4585 8.87429 31.6962 8.87429C18.9341 8.87429 8.58836 19.22 8.58836 31.9822C8.58836 36.9097 10.1307 41.477 12.7589 45.2276L10.6891 52.9893L18.5876 51.0146C22.3124 53.585 26.8285 55.0901 31.6962 55.0901Z" fill="#F9F9F9"/>
<path d="M24.8689 19.3027C24.2197 17.9985 23.2235 18.1139 22.2174 18.1139C20.419 18.1139 17.6149 20.268 17.6149 24.2771C17.6149 27.5626 19.0627 31.159 23.9412 36.5391C28.6493 41.7314 34.8356 44.4173 39.9713 44.3258C45.1071 44.2345 46.1637 39.8149 46.1637 38.3224C46.1637 37.661 45.7531 37.3309 45.4705 37.2412C43.7203 36.4012 40.4924 34.8362 39.7579 34.5422C39.0235 34.2483 38.64 34.646 38.4016 34.8624C37.7357 35.4969 36.4155 37.3676 35.9633 37.7883C35.5113 38.2091 34.8374 37.9961 34.5569 37.8371C33.5248 37.423 30.7266 36.1783 28.4962 34.016C25.7375 31.342 25.5756 30.4219 25.056 29.603C24.6403 28.9477 24.9454 28.5459 25.0975 28.3701C25.6919 27.6845 26.5125 26.6257 26.8806 26.0996C27.2485 25.5733 26.9565 24.7745 26.7811 24.2771C26.0272 22.1372 25.3884 20.3459 24.8689 19.3027Z" fill="white"/>
<defs>
<linearGradient id="paint0_linear_12988_5864" x1="52.1782" y1="14.4262" x2="8.28825" y2="55.3902" gradientUnits="userSpaceOnUse">
<stop stop-color="#5BD066"/>
<stop offset="1" stop-color="#27B43E"/>
</linearGradient>
</defs>
</svg>
