<svg width="60" height="86" viewBox="0 0 60 86" fill="none" xmlns="http://www.w3.org/2000/svg">
<path d="M29.5164 52.4214C42.1589 52.4214 52.4077 42.1726 52.4077 29.53C52.4077 16.8875 42.1589 6.63867 29.5164 6.63867C16.8738 6.63867 6.625 16.8875 6.625 29.53C6.625 42.1726 16.8738 52.4214 29.5164 52.4214Z" stroke="white" stroke-width="2" stroke-miterlimit="10"/>
<path d="M26.8663 71.0358L26.9638 57.9212C19.6299 57.2634 12.8349 53.7937 8.00167 48.2387C3.16845 42.6836 0.671852 35.4741 1.03466 28.1197C1.39747 20.7653 4.59153 13.8364 9.94804 8.78408C15.3045 3.73172 22.4081 0.947634 29.7711 1.01486C37.1341 1.08209 44.1856 3.99546 49.449 9.14479C54.7123 14.2941 57.7794 21.28 58.0078 28.6398C58.2363 35.9996 55.6084 43.1624 50.6746 48.6283C45.7407 54.0941 38.8835 57.4392 31.5388 57.9629L31.4414 70.9662" stroke="white" stroke-width="2" stroke-miterlimit="10"/>
<path d="M40.3974 75.9941H31.5059V85.0129" stroke="white" stroke-width="2" stroke-miterlimit="10"/>
<path d="M18.1152 75.9941H27.0068V84.8619" stroke="white" stroke-width="2" stroke-miterlimit="10"/>
<path d="M18.1152 70.4067H27.0068V57.0156" stroke="white" stroke-width="2" stroke-miterlimit="10"/>
<path d="M40.3994 70.4067H31.5078V57.0156" stroke="white" stroke-width="2" stroke-miterlimit="10"/>
</svg>
