<svg width="73" height="72" viewBox="0 0 73 72" fill="none" xmlns="http://www.w3.org/2000/svg">
<path d="M29.9865 65.3148C42.8585 65.3148 53.2933 54.8799 53.2933 42.008C53.2933 29.136 42.8585 18.7012 29.9865 18.7012C17.1145 18.7012 6.67969 29.136 6.67969 42.008C6.67969 54.8799 17.1145 65.3148 29.9865 65.3148Z" stroke="white" stroke-width="2" stroke-miterlimit="10"/>
<path d="M58.0746 1H67.9133L48.9122 20.0031C43.2325 15.12 35.8839 12.6235 28.405 13.0364C20.9262 13.4493 13.897 16.7396 8.78937 22.2182C3.6817 27.6969 0.891591 34.9391 1.00323 42.4285C1.11486 49.9179 4.11958 57.0738 9.38827 62.3977C14.657 67.7217 21.7811 70.8009 29.2689 70.9907C36.7567 71.1805 44.0277 68.4661 49.5593 63.4159C55.091 58.3657 58.4544 51.3714 58.9454 43.8973C59.4363 36.4231 57.0167 29.0488 52.1932 23.3184L71.2732 4.2363L71.2125 12.9835" stroke="white" stroke-width="2" stroke-miterlimit="10"/>
</svg>
