<svg width="36" height="36" viewBox="0 0 36 36" fill="none" xmlns="http://www.w3.org/2000/svg">
<circle cx="18" cy="18" r="17.6" stroke="#3C3C3B" stroke-width="0.8"/>
<path d="M22 25H15C12.8 25 11 23.2 11 21V14C11 11.8 12.8 10 15 10H22C24.2 10 26 11.8 26 14V21C26 23.2 24.2 25 22 25Z" stroke="#3C3C3B" stroke-width="0.8" stroke-miterlimit="10" stroke-linecap="round" stroke-linejoin="round"/>
<path d="M23.5 17.5H21V16.1C21 15.75 21.25 15.5 21.6 15.5H23V13H21C19.6 13 18.5 14.1 18.5 15.5V17.5H16.5V20H18.5V25H21V20H22.5L23.5 17.5Z" stroke="#3C3C3B" stroke-width="0.8" stroke-miterlimit="10" stroke-linecap="round" stroke-linejoin="round"/>
</svg>
