<svg width="189" height="25" viewBox="0 0 189 25" fill="none" xmlns="http://www.w3.org/2000/svg">
<path d="M8.0072 24.5445V14.5674H14.9973C19.2941 14.5674 21.8423 11.9827 21.8423 7.83209C21.8423 3.86304 19.076 1.3136 15.0338 1.3136H6.98722V13.577H5.64062V0H15.0338C19.8766 0 23.1535 3.02238 23.1535 7.82864C23.1535 12.8165 20.1679 15.8752 14.9973 15.8752H9.3538V24.5407L8.0072 24.5445Z" fill="#3C3C3B"/>
<path d="M14.926 2.22461H8.00781V13.6624H14.8894C18.7806 13.6624 20.7852 11.6577 20.7852 7.90911C20.7876 4.44591 18.4941 2.22461 14.926 2.22461ZM14.8894 12.3831H9.35442V3.46365H14.926C15.5241 3.41853 16.1249 3.50208 16.6882 3.70835C17.2515 3.91461 17.7641 4.23878 18.1916 4.65951C18.6191 5.08023 18.9517 5.5877 19.167 6.14756C19.3823 6.70743 19.4753 7.30687 19.4398 7.90565C19.4398 10.7451 17.9116 12.3831 14.8894 12.3831Z" fill="#3C3C3B"/>
<path d="M4.18131 11.3111L1.84421 13.647L0 13.6801L3.27335 10.4043L4.18131 11.3111Z" fill="#3C3C3B"/>
<path d="M4.18131 16.9539L1.84421 14.6178L0 14.585L3.27335 17.8605L4.18131 16.9539Z" fill="#3C3C3B"/>
<path d="M0 13.6673H6.98064V12.415L1.21808 12.4291L0 13.6673Z" fill="#3C3C3B"/>
<path d="M2.23923 15.8441H6.98064V14.5918H0L2.23923 15.8441Z" fill="#3C3C3B"/>
<path d="M6.98047 24.544L6.98047 14.5859H5.7282L5.7282 24.544H6.98047Z" fill="#3C3C3B"/>
<path d="M45.3375 24.539L38.2766 13.8465C39.7953 13.7236 41.2065 13.0144 42.2116 11.8693C43.2166 10.7242 43.7367 9.23321 43.6616 7.71146C43.5865 6.18971 42.9222 4.75682 41.8093 3.71625C40.6964 2.67567 39.2222 2.10887 37.6989 2.13607H30.2301V24.5401H28.9707V0.911133H37.6965C41.6691 0.911133 44.9283 3.4343 44.9283 7.92219C45.0297 9.39139 44.6324 10.8518 43.8006 12.0671C42.9688 13.2824 41.7512 14.1817 40.3449 14.6189L46.8975 24.5401L45.3375 24.539ZM31.1805 13.0753V3.01353H37.5975C38.2654 2.96712 38.9357 3.06195 39.5646 3.29191C40.1935 3.52186 40.7668 3.88178 41.2473 4.34814C41.7278 4.81451 42.1047 5.37683 42.3533 5.99857C42.6019 6.6203 42.7167 7.28737 42.6903 7.95645C42.6903 11.5317 40.4156 13.0753 37.3935 13.0753H31.1805ZM42.5535 24.539L36.5103 15.1057H32.4363V24.539H31.1805V13.8805H37.1942L44.0864 24.539H42.5535ZM37.3935 11.8477C37.9259 11.9083 38.4651 11.8504 38.9726 11.6785C39.4801 11.5065 39.9433 11.2248 40.3293 10.8531C40.7152 10.4814 41.0143 10.029 41.2051 9.52828C41.396 9.02757 41.4738 8.49075 41.4333 7.95645C41.4514 7.45484 41.3633 6.95518 41.1748 6.48998C40.9863 6.02478 40.7017 5.60454 40.3396 5.25698C39.9774 4.90943 39.546 4.64229 39.0734 4.47308C38.6009 4.30388 38.0979 4.23633 37.5975 4.27502H32.4363V11.8477H37.3935Z" fill="#3C3C3B"/>
<path d="M68.9002 24.5393L60.2428 1.99616H58.9221L50.1963 24.5393H48.7695L58.0047 0.734375H61.1283L70.3258 24.5393H68.9002ZM66.3886 24.5393L63.9441 17.9831H55.0486L52.6042 24.5393H51.2127L54.2337 16.7216H64.8261L67.78 24.5393H66.3886ZM54.5392 15.9503L59.5636 2.943L64.516 15.9503H54.5392ZM59.5305 6.06305L56.3044 14.7228H62.7555L59.5305 6.06305Z" fill="#3C3C3B"/>
<path d="M91.1015 20.9268C90.1074 22.2423 88.8108 23.2989 87.3216 24.0068C85.8324 24.7148 84.1945 25.0532 82.5467 24.9937C75.3149 24.9937 71.9531 18.9635 71.9531 12.7588C71.9531 6.48326 75.3149 0.452988 82.5467 0.452988C84.2011 0.373226 85.8493 0.706412 87.3427 1.42257C88.8362 2.13873 90.1279 3.21535 91.1015 4.55529L90.1853 5.39619C87.9449 2.73247 86.0771 1.71477 82.5467 1.71477C76.1981 1.71477 73.2443 7.11411 73.2443 12.7588C73.2443 18.3326 76.2653 23.7322 82.6139 23.7322C84.0761 23.7782 85.5279 23.4707 86.846 22.836C88.164 22.2013 89.3096 21.2581 90.1853 20.0862L91.1015 20.9268ZM89.4719 19.4552C88.7218 20.5516 87.705 21.4391 86.5171 22.034C85.3293 22.6289 84.0096 22.9118 82.6823 22.8559C77.0129 22.8559 74.2961 17.8067 74.2961 12.7233C74.2961 7.67535 76.8761 2.59194 82.6139 2.59194C83.956 2.52558 85.2926 2.80718 86.4941 3.40895C87.6955 4.01073 88.7213 4.91239 89.4719 6.02694L88.4873 6.93837C87.8536 5.96507 86.981 5.17046 85.9527 4.63043C84.9245 4.0904 83.7749 3.82302 82.6139 3.85373C77.7593 3.85373 75.5861 8.30621 75.5861 12.7233C75.5861 17.1405 77.7593 21.593 82.6139 21.593C83.7776 21.6398 84.933 21.3793 85.9641 20.8378C86.9951 20.2963 87.8654 19.4929 88.4873 18.5083L89.4719 19.4552Z" fill="#3C3C3B"/>
<path d="M93.2422 2.16608V0.904297H112.595V2.16608H93.2422ZM101.187 24.5336V4.33929H93.2422V3.07751H102.44V24.5382L101.187 24.5336ZM103.394 24.5336V3.0729H112.591V4.3344H104.647V24.5287L103.394 24.5336Z" fill="#3C3C3B"/>
<path d="M117.178 24.5375V0.908203H118.434V24.5375H117.178ZM119.35 24.5375V0.908203H120.607V24.5375H119.35Z" fill="#3C3C3B"/>
<path d="M144.848 20.9268C143.853 22.2423 142.557 23.2989 141.068 24.0068C139.579 24.7148 137.941 25.0532 136.293 24.9937C129.061 24.9937 125.699 18.9635 125.699 12.7588C125.699 6.48326 129.061 0.452988 136.293 0.452988C137.947 0.373226 139.595 0.706412 141.089 1.42257C142.582 2.13873 143.874 3.21535 144.848 4.55529L143.931 5.39619C141.691 2.73247 139.823 1.71477 136.293 1.71477C129.943 1.71477 126.99 7.11411 126.99 12.7588C126.99 18.3326 130.011 23.7322 136.36 23.7322C137.822 23.7782 139.274 23.4707 140.592 22.836C141.91 22.2013 143.056 21.2581 143.931 20.0862L144.848 20.9268ZM143.218 19.4552C142.468 20.5515 141.451 21.4391 140.263 22.034C139.075 22.6289 137.756 22.9117 136.428 22.8559C130.759 22.8559 128.042 17.8067 128.042 12.7233C128.042 7.67535 130.622 2.59194 136.36 2.59194C137.702 2.52558 139.039 2.80718 140.24 3.40895C141.442 4.01073 142.467 4.91239 143.218 6.02694L142.233 6.93837C141.6 5.96507 140.727 5.17046 139.699 4.63043C138.671 4.0904 137.521 3.82302 136.36 3.85373C131.505 3.85373 129.332 8.30621 129.332 12.7233C129.332 17.1405 131.505 21.593 136.36 21.593C137.524 21.6398 138.679 21.3793 139.71 20.8378C140.741 20.2963 141.611 19.4929 142.233 18.5083L143.218 19.4552Z" fill="#179C78"/>
<path d="M167.797 24.5393L159.14 1.99616H157.815L149.09 24.5393H147.664L156.899 0.734375H160.023L169.22 24.5393H167.797ZM165.284 24.5393L162.84 17.9831H153.945L151.501 24.5393H150.108L153.131 16.7216H163.723L166.671 24.5393H165.284ZM153.436 15.9503L158.46 2.943L163.413 15.9503H153.436ZM158.426 6.06305L155.201 14.7228H161.652L158.426 6.06305Z" fill="#179C78"/>
<path d="M173.469 24.5374V0.908101H174.725V23.2721H188.612V24.5351L173.469 24.5374ZM175.676 22.363V0.902344H176.932V21.0955H188.612V22.3573L175.676 22.363Z" fill="#179C78"/>
</svg>
