<svg width="34" height="33" viewBox="0 0 34 33" fill="none" xmlns="http://www.w3.org/2000/svg">
<path d="M17.0695 0.00195312C8.18893 0.00195312 0.988281 7.16624 0.988281 16.002C0.988281 24.8377 8.18893 32.002 17.0695 32.002C25.9501 32.002 33.1507 24.8377 33.1507 16.002C33.1507 7.16624 25.9501 0.00195312 17.0695 0.00195312ZM23.0641 22.6305C21.6067 23.9662 19.6181 24.752 17.2454 24.752C13.8102 24.752 10.838 22.7912 9.39144 19.9341C8.79557 18.752 8.45456 17.4162 8.45456 16.002C8.45456 14.5877 8.79557 13.252 9.39144 12.0698C10.838 9.2091 13.8102 7.24838 17.2454 7.24838C19.6145 7.24838 21.6031 8.11624 23.1287 9.52695L20.6088 12.0377C19.6971 11.1698 18.5376 10.7305 17.249 10.7305C14.9588 10.7305 13.0205 12.2698 12.3277 14.3377C12.1518 14.8627 12.0513 15.4234 12.0513 16.002C12.0513 16.5805 12.1518 17.1412 12.3277 17.6662C13.0205 19.7341 14.9588 21.2734 17.2454 21.2734C18.4299 21.2734 19.435 20.9627 20.2211 20.4377C21.1544 19.8162 21.7718 18.8912 21.9764 17.7948H17.2454V14.4091H25.5265C25.6306 14.9841 25.6844 15.5805 25.6844 16.1984C25.6844 18.8662 24.726 21.1055 23.0641 22.6305Z" fill="white"/>
</svg>
