<svg width="36" height="36" viewBox="0 0 36 36" fill="none" xmlns="http://www.w3.org/2000/svg">
<path d="M21.7695 25H14.7695C12.5695 25 10.7695 23.2 10.7695 21V14C10.7695 11.8 12.5695 10 14.7695 10H21.7695C23.9695 10 25.7695 11.8 25.7695 14V21C25.7695 23.2 23.9695 25 21.7695 25Z" stroke="#3C3C3B" stroke-width="0.8" stroke-miterlimit="10" stroke-linecap="round" stroke-linejoin="round"/>
<path d="M18.2695 21C20.2025 21 21.7695 19.433 21.7695 17.5C21.7695 15.567 20.2025 14 18.2695 14C16.3365 14 14.7695 15.567 14.7695 17.5C14.7695 19.433 16.3365 21 18.2695 21Z" stroke="#3C3C3B" stroke-width="0.8" stroke-miterlimit="10" stroke-linecap="round" stroke-linejoin="round"/>
<path d="M22.2695 13.5C22.5457 13.5 22.7695 13.2761 22.7695 13C22.7695 12.7239 22.5457 12.5 22.2695 12.5C21.9934 12.5 21.7695 12.7239 21.7695 13C21.7695 13.2761 21.9934 13.5 22.2695 13.5Z" stroke="#3C3C3B" stroke-width="0.8" stroke-miterlimit="10" stroke-linecap="round" stroke-linejoin="round"/>
<circle cx="18" cy="18" r="17.6" stroke="#3C3C3B" stroke-width="0.8"/>
</svg>
