<svg width="36" height="36" viewBox="0 0 36 36" fill="none" xmlns="http://www.w3.org/2000/svg">
<circle cx="18" cy="18" r="17.6" stroke="#3C3C3B" stroke-width="0.8"/>
<path d="M22 25H15C12.8 25 11 23.2 11 21V14C11 11.8 12.8 10 15 10H22C24.2 10 26 11.8 26 14V21C26 23.2 24.2 25 22 25Z" stroke="#3C3C3B" stroke-width="0.8" stroke-miterlimit="10" stroke-linecap="round" stroke-linejoin="round"/>
<path d="M16 16H14V22H16V16Z" stroke="#3C3C3B" stroke-width="0.8" stroke-miterlimit="10" stroke-linecap="round" stroke-linejoin="round"/>
<path d="M20.75 16C20.3 16 19.85 16.15 19.5 16.4V16H17.5V22H18.5H19.5V18.75C19.5 18.35 19.85 18 20.25 18C20.65 18 21 18.35 21 18.75V22H23V18.25C23 17 22 16 20.75 16Z" stroke="#3C3C3B" stroke-width="0.8" stroke-miterlimit="10" stroke-linecap="round" stroke-linejoin="round"/>
<path d="M15 14.5C15.5523 14.5 16 14.0523 16 13.5C16 12.9477 15.5523 12.5 15 12.5C14.4477 12.5 14 12.9477 14 13.5C14 14.0523 14.4477 14.5 15 14.5Z" stroke="#3C3C3B" stroke-width="0.8" stroke-miterlimit="10" stroke-linecap="round" stroke-linejoin="round"/>
</svg>
