<?xml version="1.0" encoding="utf-8"?>
<!-- Generator: Adobe Illustrator 27.1.1, SVG Export Plug-In . SVG Version: 6.00 Build 0)  -->
<svg version="1.1" id="Layer_1" xmlns="http://www.w3.org/2000/svg" xmlns:xlink="http://www.w3.org/1999/xlink" x="0px" y="0px"
	 viewBox="0 0 227 30" style="enable-background:new 0 0 227 30;" xml:space="preserve">
<style type="text/css">
	.st0{fill:#FFFFFF;}
</style>
<g>
	<path class="st0" d="M9.6,29.5v-12H18c5.2,0,8.2-3.1,8.2-8.1c0-4.8-3.3-7.8-8.2-7.8H8.4v14.7H6.8V0H18c5.8,0,9.7,3.6,9.7,9.4
		c0,6-3.6,9.7-9.8,9.7h-6.8v10.4H9.6z"/>
	<path class="st0" d="M17.9,2.7H9.6v13.7h8.3c4.7,0,7.1-2.4,7.1-6.9C25,5.3,22.2,2.7,17.9,2.7z M17.9,14.9h-6.6V4.2h6.7
		c3.3,0,5.4,2.1,5.4,5.3C23.3,12.9,21.5,14.9,17.9,14.9z"/>
	<path class="st0" d="M5,13.6l-2.8,2.8l-2.2,0l3.9-3.9L5,13.6z"/>
	<path class="st0" d="M5,20.3l-2.8-2.8l-2.2,0l3.9,3.9L5,20.3z"/>
	<path class="st0" d="M0,16.4h8.4v-1.5l-6.9,0L0,16.4z"/>
	<path class="st0" d="M2.7,19h5.7v-1.5H0L2.7,19z"/>
	<path class="st0" d="M8.4,29.5v-12H6.9v12H8.4z"/>
	<path class="st0" d="M54.4,29.5l-8.5-12.8c3.1-0.3,6.5-2.3,6.5-7.1c0-4.3-3.2-6.9-7.2-6.9h-9v26.9h-1.5V1.1h10.5
		c4.8,0,8.7,3,8.7,8.4c0,4.4-2.4,7-5.5,8l7.9,11.9L54.4,29.5z M37.4,15.7V3.6h7.7c3.4,0,6.1,2.2,6.1,5.9c0,4.3-2.7,6.1-6.4,6.1H37.4
		z M51.1,29.5l-7.3-11.3h-4.9v11.3h-1.5V16.7h7.2l8.3,12.8H51.1z M44.9,14.2c2.8,0,4.9-1.5,4.9-4.7c0-2.8-2-4.4-4.6-4.4h-6.2v9.1
		H44.9z"/>
	<path class="st0" d="M82.7,29.5L72.3,2.4h-1.6L60.3,29.5h-1.7L69.6,0.9h3.7l11,28.6H82.7z M79.7,29.5l-2.9-7.9H66.1l-2.9,7.9h-1.7
		l3.6-9.4h12.7l3.5,9.4H79.7z M65.5,19.1l6-15.6l6,15.6H65.5z M71.5,7.3l-3.9,10.4h7.7L71.5,7.3z"/>
	<path class="st0" d="M109.4,25.1c-2.5,3.2-5.7,4.9-10.3,4.9c-8.7,0-12.7-7.2-12.7-14.7c0-7.5,4-14.8,12.7-14.8
		c4.8,0,8,1.9,10.3,4.9l-1.1,1c-2.7-3.2-4.9-4.4-9.2-4.4c-7.6,0-11.2,6.5-11.2,13.3c0,6.7,3.6,13.2,11.2,13.2c3.6,0,6.4-1.2,9.1-4.4
		L109.4,25.1z M107.4,23.4c-2.5,3.2-4.9,4.1-8.2,4.1c-6.8,0-10.1-6.1-10.1-12.2c0-6.1,3.1-12.2,10-12.2c3.4,0,5.9,1.1,8.2,4.1
		l-1.2,1.1c-0.8-1.2-1.8-2.1-3-2.8c-1.2-0.6-2.6-1-4-0.9c-5.8,0-8.4,5.3-8.4,10.6c0,5.3,2.6,10.6,8.4,10.6c2.9,0,5-0.9,7.1-3.7
		L107.4,23.4z"/>
	<path class="st0" d="M111.9,2.6V1.1h23.2v1.5H111.9z M121.5,29.5V5.2h-9.5V3.7h11v25.8H121.5z M124.1,29.5V3.7h11v1.5h-9.5v24.2
		H124.1z"/>
	<path class="st0" d="M140.7,29.5V1.1h1.5v28.4H140.7z M143.3,29.5V1.1h1.5v28.4H143.3z"/>
	<path class="st0" d="M173.9,25.1c-2.5,3.2-5.7,4.9-10.3,4.9c-8.7,0-12.7-7.2-12.7-14.7c0-7.5,4-14.8,12.7-14.8
		c4.8,0,8,1.9,10.3,4.9l-1.1,1c-2.7-3.2-4.9-4.4-9.2-4.4c-7.6,0-11.2,6.5-11.2,13.3c0,6.7,3.6,13.2,11.2,13.2c3.6,0,6.4-1.2,9.1-4.4
		L173.9,25.1z M171.9,23.4c-2.5,3.2-4.9,4.1-8.2,4.1c-6.8,0-10.1-6.1-10.1-12.2c0-6.1,3.1-12.2,10-12.2c3.4,0,5.9,1.1,8.2,4.1
		l-1.2,1.1c-0.8-1.2-1.8-2.1-3-2.8s-2.6-1-4-0.9c-5.8,0-8.4,5.3-8.4,10.6c0,5.3,2.6,10.6,8.4,10.6c2.9,0,5-0.9,7.1-3.7L171.9,23.4z"
		/>
	<path class="st0" d="M201.4,29.6L191,2.5h-1.6L179,29.6h-1.7L188.4,1h3.8l11,28.6H201.4z M198.4,29.6l-2.9-7.9h-10.7l-2.9,7.9h-1.7
		l3.6-9.4h12.7l3.5,9.4H198.4z M184.2,19.3l6-15.6l5.9,15.6H184.2z M190.2,7.4l-3.9,10.4h7.7L190.2,7.4z"/>
	<path class="st0" d="M208.2,29.5V1.1h1.5v26.9h16.7v1.5L208.2,29.5z M210.9,26.8V1.1h1.5v24.2h14v1.5H210.9z"/>
</g>
</svg>
