<svg width="227" height="30" viewBox="0 0 227 30" fill="none" xmlns="http://www.w3.org/2000/svg">
<path d="M9.61292 29.4607V17.4839H18.0051C23.1626 17.4839 26.2228 14.3829 26.2228 9.39775C26.2228 4.6314 22.9007 1.57347 18.0488 1.57347H8.38918V16.2986H6.77148V0H18.0488C23.862 0 27.7963 3.62817 27.7963 9.39775C27.7963 15.3861 24.2117 19.0574 18.0051 19.0574H11.2289V29.4607H9.61292Z" fill="white"/>
<path d="M17.9167 2.66602H9.6123V16.3908H17.8736C22.5504 16.3908 24.9542 13.9864 24.9542 9.4842C24.9542 5.3323 22.2006 2.66602 17.9167 2.66602ZM17.8736 14.861H11.2294V4.1522H17.9167C21.2393 4.1522 23.3371 6.29419 23.3371 9.48477C23.3371 12.8959 21.5029 14.861 17.8736 14.861Z" fill="white"/>
<path d="M5.02251 13.5737L2.21669 16.3779L0.00292969 16.4175L3.93316 12.4844L5.02251 13.5737Z" fill="white"/>
<path d="M5.02251 20.3486L2.21669 17.5445L0.00292969 17.5049L3.93316 21.438L5.02251 20.3486Z" fill="white"/>
<path d="M0 16.4014H8.38018V14.8975L1.46264 14.9147L0 16.4014Z" fill="white"/>
<path d="M2.68813 19.0108H8.38018V17.5068H0L2.68813 19.0108Z" fill="white"/>
<path d="M8.37988 29.4618V17.5068H6.8759L6.8759 29.4618H8.37988Z" fill="white"/>
<path d="M54.4266 29.4543L45.9488 16.6179C49.0464 16.2808 52.4294 14.3031 52.4294 9.50515C52.4294 5.17007 49.2095 2.56064 45.2557 2.56064H36.2892V29.4543H34.7812V1.08594H45.2557C50.0221 1.08594 53.9374 4.11631 53.9374 9.50343C53.9374 13.9224 51.5737 16.4899 48.4354 17.5431L56.3028 29.4538L54.4266 29.4543ZM37.4286 15.6916V3.61268H45.1323C48.556 3.61268 51.2458 5.80118 51.2458 9.54707C51.2458 13.8397 48.5147 15.6916 44.8876 15.6916H37.4286ZM51.0827 29.4543L43.8293 18.1328H38.9383V29.4543H37.4303V16.6599H44.6447L52.9186 29.4543H51.0827ZM44.8894 14.2175C47.7032 14.2175 49.7395 12.7026 49.7395 9.54593C49.7395 6.76823 47.7423 5.12413 45.134 5.12413H38.9383V14.2175H44.8894Z" fill="white"/>
<path d="M82.7136 29.4534L72.3194 2.39145H70.7299L60.2548 29.4534H58.543L69.6262 0.875977H73.3761L84.4214 29.4534H82.7136ZM79.6975 29.4534L76.7631 21.5832H66.0818L63.1468 29.4534H61.4757L65.1033 20.0677H77.8197L81.3658 29.4534H79.6975ZM65.4731 19.142L71.5028 3.52733L77.4539 19.142H65.4731ZM71.4638 7.27322L67.5921 17.6673H75.3361L71.4638 7.27322Z" fill="white"/>
<path d="M109.368 25.1181C106.842 28.2765 103.622 29.9993 99.0978 29.9993C90.4162 29.9993 86.3809 22.7602 86.3809 15.3109C86.3809 7.7772 90.4162 0.538086 99.0978 0.538086C103.864 0.538086 107.127 2.43314 109.368 5.46236L108.268 6.47248C105.578 3.27386 103.336 2.05068 99.0978 2.05068C91.4757 2.05068 87.9296 8.53235 87.9296 15.3086C87.9296 22.0005 91.5573 28.4815 99.1794 28.4815C102.806 28.4815 105.578 27.3032 108.268 24.1045L109.368 25.1181ZM107.412 23.3505C104.885 26.509 102.481 27.4329 99.2575 27.4329C92.4514 27.4329 89.1907 21.3722 89.1907 15.2696C89.1907 9.2094 92.2883 3.10675 99.1765 3.10675C102.559 3.10675 105.086 4.15879 107.409 7.23108L106.227 8.32561C105.467 7.15691 104.419 6.20275 103.185 5.55428C101.95 4.90581 100.57 4.58471 99.1765 4.62164C93.3478 4.62164 90.7395 9.96685 90.7395 15.2696C90.7395 20.5723 93.3478 25.918 99.1765 25.918C102.07 25.918 104.148 24.9918 106.227 22.2141L107.412 23.3505Z" fill="white"/>
<path d="M111.937 2.60279V1.08789H135.168V2.60279H111.937ZM121.474 29.4546V5.21222H111.937V3.69733H122.982V29.4546H121.474ZM124.123 29.4546V3.69733H135.168V5.21222H125.631V29.4546H124.123Z" fill="white"/>
<path d="M140.671 29.4543V1.08594H142.179V29.4543H140.671ZM143.28 29.4543V1.08594H144.788V29.4543H143.28Z" fill="white"/>
<path d="M173.887 25.1181C171.36 28.2765 168.14 29.9993 163.616 29.9993C154.935 29.9993 150.899 22.7602 150.899 15.3109C150.899 7.7772 154.935 0.538086 163.616 0.538086C168.382 0.538086 171.645 2.43314 173.887 5.46236L172.787 6.47248C170.096 3.27386 167.855 2.05068 163.616 2.05068C155.994 2.05068 152.448 8.53235 152.448 15.3086C152.448 22.0005 156.076 28.4815 163.697 28.4815C167.325 28.4815 170.096 27.3032 172.787 24.1045L173.887 25.1181ZM171.93 23.3505C169.404 26.509 166.999 27.4329 163.779 27.4329C156.972 27.4329 153.712 21.3722 153.712 15.2696C153.712 9.2094 156.809 3.10675 163.697 3.10675C167.08 3.10675 169.608 4.15879 171.93 7.23108L170.749 8.32561C169.988 7.15683 168.941 6.20261 167.706 5.55414C166.472 4.90567 165.091 4.58461 163.697 4.62164C157.869 4.62164 155.26 9.96685 155.26 15.2696C155.26 20.5723 157.869 25.918 163.697 25.918C166.592 25.918 168.67 24.9918 170.749 22.2141L171.93 23.3505Z" fill="#179C78"/>
<path d="M201.44 29.5774L191.045 2.51547H189.456L178.981 29.5774H177.27L188.353 1H192.103L203.148 29.5774H201.44ZM198.424 29.5774L195.489 21.7072H184.808L181.873 29.5774H180.202L183.83 20.1917H196.546L200.092 29.5774H198.424ZM184.199 19.266L190.229 3.65135L196.179 19.266H184.199ZM190.19 7.39725L186.318 17.7913H194.062L190.19 7.39725Z" fill="#179C78"/>
<path d="M208.246 29.4543V1.08594H209.754V27.9377H226.424V29.4526L208.246 29.4543ZM210.895 26.8449V1.08766H212.403V25.33H226.424V26.8449H210.895Z" fill="#179C78"/>
</svg>
