<svg width="226" height="45" viewBox="0 0 226 45" fill="none" xmlns="http://www.w3.org/2000/svg">
<g clip-path="url(#clip0_10874_10393)">
<path d="M9.59146 29.4566V17.4807H17.9659C23.113 17.4807 26.1663 14.3794 26.1663 9.39488C26.1663 4.41031 22.8511 1.57147 18.0106 1.57147H8.37134V16.2952H6.75684V0H18.0106C23.8108 0 27.7377 3.62766 27.7377 9.39642C27.7377 15.1652 24.1605 19.0553 17.9675 19.0553H11.206V29.4566H9.593H9.59146Z" fill="white"/>
<path d="M17.8799 2.66748H9.59326V16.3909H17.8368C22.5031 16.3909 24.9018 13.9873 24.9018 9.4844C24.9018 5.33343 22.1534 2.66748 17.8799 2.66748ZM17.8368 14.8611H11.2062V4.15405H17.8799C21.1952 4.15405 23.2888 6.29514 23.2888 9.48594C23.2888 12.8959 21.4586 14.8611 17.8368 14.8611Z" fill="white"/>
<path d="M5.01283 13.5723L2.21363 16.3756L0.00292969 16.4157L3.92519 12.4824L5.01283 13.5723Z" fill="white"/>
<path d="M5.01283 20.3444L2.21363 17.541L0.00292969 17.5024L3.92519 21.4358L5.01283 20.3459V20.3444Z" fill="white"/>
<path d="M0 16.4H8.36215V14.8965L1.45891 14.9135L0 16.4Z" fill="white"/>
<path d="M2.68211 19.0089H8.36215V17.5054H0L2.68211 19.0089Z" fill="white"/>
<path d="M8.36086 29.4597V17.5054H6.86035V29.4597H8.36086Z" fill="white"/>
<path d="M54.3091 29.4507L45.8499 16.6165C48.9403 16.28 52.3172 14.3025 52.3172 9.50471C52.3172 5.17004 49.1036 2.56121 45.1597 2.56121H36.2122V29.4522H34.707V1.08545H45.1597C49.9154 1.08545 53.8223 4.11571 53.8223 9.50163C53.8223 13.9197 51.4637 16.4868 48.3317 17.5396L56.1824 29.4491H54.3106L54.3091 29.4507ZM37.3475 15.6903V3.61246H45.0349C48.4519 3.61246 51.1356 5.80141 51.1356 9.54639C51.1356 13.8378 48.4103 15.6903 44.7915 15.6903H37.3491H37.3475ZM50.9723 29.4507L43.7347 18.1308H38.8542V29.4507H37.3491V16.6582H44.5481L52.804 29.4507H50.9723ZM44.7931 14.216C47.6015 14.216 49.6335 12.7017 49.6335 9.54485C49.6335 6.76776 47.64 5.12373 45.038 5.12373H38.8558V14.216H44.7946H44.7931Z" fill="white"/>
<path d="M82.5355 29.4491L72.1645 2.38984H70.5777L60.125 29.4476H58.4165L69.4762 0.875488H73.2182L84.2394 29.4491H82.5355ZM79.5268 29.4491L76.5982 21.5794H65.9406L63.012 29.4491H61.3451L64.9654 20.0651H77.655L81.1937 29.4491H79.5299H79.5268ZM65.3321 19.1388L71.3495 3.526L77.2884 19.1388H65.3336H65.3321ZM71.3094 7.27098L67.4457 17.6631H75.1732L71.3094 7.27098Z" fill="white"/>
<path d="M109.133 25.1156C106.611 28.274 103.399 29.9967 98.8839 29.9967C90.2214 29.9967 86.1943 22.7584 86.1943 15.3101C86.1943 7.86182 90.2214 0.538574 98.8855 0.538574C103.641 0.538574 106.898 2.43268 109.135 5.46293L108.036 6.4725C105.353 3.27399 103.116 2.05139 98.8855 2.05139C91.2797 2.05139 87.7411 8.53178 87.7411 15.307C87.7411 22.0823 91.3614 28.4778 98.9671 28.4778C102.586 28.4778 105.353 27.2999 108.036 24.1014L109.135 25.1156H109.133ZM107.181 23.3481C104.659 26.5065 102.261 27.4296 99.0441 27.4296C92.2533 27.4296 88.9997 21.3691 88.9997 15.2684C88.9997 9.16778 92.0901 3.10727 98.964 3.10727C102.339 3.10727 104.861 4.15852 107.178 7.23045L105.998 8.32493C105.239 7.15636 104.194 6.20236 102.962 5.55401C101.731 4.90566 100.354 4.58458 98.9625 4.62162C93.1469 4.62162 90.5433 9.96587 90.5433 15.2684C90.5433 20.571 93.1453 25.9152 98.9625 25.9152C101.849 25.9152 103.923 24.989 105.998 22.2119L107.18 23.3481H107.181Z" fill="white"/>
<path d="M111.697 2.59981V1.08545H134.879V2.59981H111.697ZM121.213 29.4491V5.21018H111.695V3.69582H122.716V29.4491H121.211H121.213ZM123.856 29.4491V3.69428H134.878V5.20864H125.36V29.4476H123.855L123.856 29.4491Z" fill="white"/>
<path d="M140.368 29.4507V1.08545H141.873V29.4507H140.368ZM142.97 29.4507V1.08545H144.475V29.4507H142.97Z" fill="white"/>
<path d="M173.512 25.1156C170.991 28.274 167.778 29.9967 163.262 29.9967C154.601 29.9967 150.574 22.7584 150.574 15.3101C150.574 7.86182 154.601 0.538574 163.262 0.538574C168.02 0.538574 171.275 2.43268 173.512 5.46293L172.415 6.4725C169.73 3.27399 167.493 2.05139 163.262 2.05139C155.658 2.05139 152.119 8.53178 152.119 15.307C152.119 22.0823 155.74 28.4778 163.344 28.4778C166.964 28.4778 169.73 27.2999 172.415 24.1014L173.512 25.1156ZM171.56 23.3481C169.038 26.5065 166.639 27.4296 163.426 27.4296C156.633 27.4296 153.38 21.3691 153.38 15.2684C153.38 9.16778 156.471 3.10727 163.344 3.10727C166.721 3.10727 169.241 4.15852 171.56 7.23045L170.381 8.32493C169.622 7.15636 168.576 6.20236 167.345 5.55401C166.112 4.90566 164.735 4.58458 163.344 4.62162C157.528 4.62162 154.925 9.96587 154.925 15.2684C154.925 20.571 157.528 25.9152 163.344 25.9152C166.232 25.9152 168.306 24.989 170.381 22.2119L171.56 23.3481Z" fill="#FA7324"/>
<path d="M201.006 29.5741L190.635 2.51484H189.048L178.597 29.5741H176.889L187.948 1.00049H191.69L202.712 29.5741H201.006ZM197.997 29.5741L195.069 21.7044H184.411L181.483 29.5741H179.816L183.435 20.19H196.124L199.663 29.5741H197.997ZM183.803 19.2638L189.82 3.651L195.757 19.2638H183.803ZM189.782 7.39598L185.918 17.7881H193.645L189.782 7.39598Z" fill="#FA7324"/>
<path d="M207.798 29.4507V1.08545H209.303V27.9332H225.937V29.4476H207.798V29.4507ZM210.442 26.8419V1.08699H211.947V25.326H225.937V26.8403H210.442V26.8419Z" fill="#FA7324"/>
<path d="M151.988 43.4581H156.647V44.8212H150.574V35.4541H156.371V36.8156H151.988V39.3179H155.954V40.6378H151.988V43.4581Z" fill="#FA7324"/>
<path d="M163.332 40.1099L166.55 44.8212H164.774L162.389 41.1935L159.99 44.8212H158.271L161.474 40.0944L158.299 35.4541H160.073L162.431 39.0246L164.789 35.4541H166.522L163.332 40.1099Z" fill="#FA7324"/>
<path d="M196.491 35.4541H204.395V36.8156H201.149V44.8212H199.735V36.8156H196.491V35.4541Z" fill="#FA7324"/>
<path d="M193.203 35.4541H194.617V41.6242C194.617 43.7514 193.009 45.0003 190.664 45.0003C188.32 45.0003 186.727 43.736 186.727 41.6242V35.4541H188.141V41.5393C188.141 42.7773 189.195 43.6526 190.65 43.6526C192.106 43.6526 193.202 42.819 193.202 41.5548V35.4541H193.203Z" fill="#FA7324"/>
<path d="M226 43.4581V44.8212H219.926V35.4541H225.723V36.8156H221.34V39.3179H225.307V40.6378H221.34V43.4581H226Z" fill="#FA7324"/>
<path d="M216.639 35.4541H218.206L214.433 44.8891H213.159L209.4 35.4541H211.009L213.809 42.7773L216.639 35.4541Z" fill="#FA7324"/>
<path d="M169.988 43.4581H174.649V44.8212H168.574V35.4541H174.371V36.8156H169.988V39.3179H173.955V40.6378H169.988V43.4581Z" fill="#FA7324"/>
<path d="M177.92 40.1376C177.92 41.8881 178.809 43.6541 180.792 43.6541C181.777 43.6541 182.484 43.3485 183.191 42.4315L183.884 43.0552L183.902 43.0706L184.26 43.3886C183.4 44.4306 182.305 45.0002 180.766 45.0002C177.813 45.0002 176.438 42.6106 176.438 40.1515C176.438 37.6924 177.811 35.2734 180.766 35.2734C182.388 35.2734 183.497 35.8986 184.26 36.8989L183.594 37.4825L183.192 37.8437C182.624 37.0518 181.834 36.6211 180.794 36.6211C178.811 36.6211 177.922 38.3855 177.922 40.1376H177.92Z" fill="#FA7324"/>
<path d="M207.666 35.4541H206.266V44.8196H207.666V35.4541Z" fill="#FA7324"/>
</g>
<defs>
<clipPath id="clip0_10874_10393">
<rect width="226" height="45" fill="white"/>
</clipPath>
</defs>
</svg>
