<?xml version="1.0" encoding="utf-8"?>
<!-- Generator: Adobe Illustrator 27.4.1, SVG Export Plug-In . SVG Version: 6.00 Build 0)  -->
<svg version="1.1" id="Layer_1" xmlns="http://www.w3.org/2000/svg" xmlns:xlink="http://www.w3.org/1999/xlink" x="0px" y="0px"
	 viewBox="0 0 300 40" style="enable-background:new 0 0 300 40;" xml:space="preserve">
<style type="text/css">
	.st0{fill:#3C3C3B;}
	.st1{fill:#179C78;}
</style>
<g>
	<path class="st0" d="M12.7,39V23.1h11.1c6.8,0,10.9-4.1,10.9-10.7c0-6.3-4.4-10.4-10.8-10.4H11.1v19.5H9V0h14.9
		c7.7,0,12.9,4.8,12.9,12.4c0,7.9-4.7,12.8-13,12.8h-9V39L12.7,39z"/>
	<path class="st0" d="M23.7,3.5h-11v18.2h10.9c6.2,0,9.4-3.2,9.4-9.1C33,7.1,29.4,3.5,23.7,3.5z M23.7,19.7h-8.8V5.5h8.9
		c1-0.1,1.9,0.1,2.8,0.4c0.9,0.3,1.7,0.8,2.4,1.5c0.7,0.7,1.2,1.5,1.5,2.4c0.3,0.9,0.5,1.8,0.4,2.8C30.9,17.1,28.5,19.7,23.7,19.7z"
		/>
	<path class="st0" d="M6.6,18l-3.7,3.7L0,21.7l5.2-5.2L6.6,18z"/>
	<path class="st0" d="M6.6,26.9l-3.7-3.7L0,23.2l5.2,5.2L6.6,26.9z"/>
	<path class="st0" d="M0,21.7h11.1v-2l-9.2,0L0,21.7z"/>
	<path class="st0" d="M3.6,25.2h7.5v-2H0L3.6,25.2z"/>
	<path class="st0" d="M11.1,39V23.2h-2V39H11.1z"/>
	<path class="st0" d="M72,39L60.8,22c2.4-0.2,4.7-1.3,6.3-3.1s2.4-4.2,2.3-6.6c-0.1-2.4-1.2-4.7-2.9-6.3s-4.1-2.6-6.5-2.5H48V39h-2
		V1.4h13.9c6.3,0,11.5,4,11.5,11.1c0.2,2.3-0.5,4.7-1.8,6.6c-1.3,1.9-3.3,3.4-5.5,4.1L74.5,39L72,39z M49.5,20.8v-16h10.2
		c1.1-0.1,2.1,0.1,3.1,0.4c1,0.4,1.9,0.9,2.7,1.7c0.8,0.7,1.4,1.6,1.8,2.6c0.4,1,0.6,2,0.5,3.1c0,5.7-3.6,8.1-8.4,8.1H49.5z
		 M67.6,39L58,24h-6.5v15h-2V22.1h9.6l11,16.9H67.6z M59.4,18.8c0.8,0.1,1.7,0,2.5-0.3c0.8-0.3,1.5-0.7,2.2-1.3
		c0.6-0.6,1.1-1.3,1.4-2.1c0.3-0.8,0.4-1.6,0.4-2.5c0-0.8-0.1-1.6-0.4-2.3c-0.3-0.7-0.8-1.4-1.3-2c-0.6-0.6-1.3-1-2-1.2
		c-0.8-0.3-1.5-0.4-2.3-0.3h-8.2v12H59.4z"/>
	<path class="st0" d="M109.5,39L95.7,3.2h-2.1L79.8,39h-2.3L92.2,1.2h5L111.7,39H109.5z M105.5,39l-3.9-10.4H87.5L83.6,39h-2.2
		l4.8-12.4H103l4.7,12.4H105.5z M86.7,25.3l8-20.7l7.9,20.7H86.7z M94.6,9.6l-5.1,13.8h10.3L94.6,9.6z"/>
	<path class="st0" d="M144.8,33.3c-1.6,2.1-3.6,3.8-6,4.9c-2.4,1.1-5,1.7-7.6,1.6c-11.5,0-16.8-9.6-16.8-19.4
		c0-10,5.3-19.6,16.8-19.6c2.6-0.1,5.2,0.4,7.6,1.5c2.4,1.1,4.4,2.8,6,5l-1.5,1.3c-3.6-4.2-6.5-5.8-12.1-5.8
		c-10.1,0-14.8,8.6-14.8,17.5c0,8.9,4.8,17.4,14.9,17.4c2.3,0.1,4.6-0.4,6.7-1.4c2.1-1,3.9-2.5,5.3-4.4L144.8,33.3z M142.2,30.9
		c-1.2,1.7-2.8,3.2-4.7,4.1c-1.9,0.9-4,1.4-6.1,1.3c-9,0-13.3-8-13.3-16.1c0-8,4.1-16.1,13.2-16.1c2.1-0.1,4.3,0.3,6.2,1.3
		c1.9,1,3.5,2.4,4.7,4.2l-1.6,1.4c-1-1.5-2.4-2.8-4-3.7s-3.5-1.3-5.3-1.2c-7.7,0-11.2,7.1-11.2,14.1c0,7,3.5,14.1,11.2,14.1
		c1.8,0.1,3.7-0.3,5.3-1.2c1.6-0.9,3-2.1,4-3.7L142.2,30.9z"/>
	<path class="st0" d="M148.2,3.4v-2h30.8v2H148.2z M160.8,39V6.9h-12.6v-2h14.6V39L160.8,39z M164.3,39V4.9h14.6v2h-12.6V39
		L164.3,39z"/>
	<path class="st0" d="M186.2,39V1.4h2V39H186.2z M189.6,39V1.4h2V39H189.6z"/>
	<path class="st1" d="M230.2,33.3c-1.6,2.1-3.6,3.8-6,4.9c-2.4,1.1-5,1.7-7.6,1.6c-11.5,0-16.8-9.6-16.8-19.4
		c0-10,5.3-19.6,16.8-19.6c2.6-0.1,5.2,0.4,7.6,1.5c2.4,1.1,4.4,2.8,6,5l-1.5,1.3c-3.6-4.2-6.5-5.8-12.1-5.8
		c-10.1,0-14.8,8.6-14.8,17.5c0,8.9,4.8,17.4,14.9,17.4c2.3,0.1,4.6-0.4,6.7-1.4c2.1-1,3.9-2.5,5.3-4.4L230.2,33.3z M227.6,30.9
		c-1.2,1.7-2.8,3.2-4.7,4.1c-1.9,0.9-4,1.4-6.1,1.3c-9,0-13.3-8-13.3-16.1c0-8,4.1-16.1,13.2-16.1c2.1-0.1,4.3,0.3,6.2,1.3
		c1.9,1,3.5,2.4,4.7,4.2L226,11c-1-1.5-2.4-2.8-4-3.7s-3.5-1.3-5.3-1.2c-7.7,0-11.2,7.1-11.2,14.1c0,7,3.5,14.1,11.2,14.1
		c1.8,0.1,3.7-0.3,5.3-1.2c1.6-0.9,3-2.1,4-3.7L227.6,30.9z"/>
	<path class="st1" d="M266.6,39L252.9,3.2h-2.1L236.9,39h-2.3l14.7-37.8h5L268.9,39H266.6z M262.6,39l-3.9-10.4h-14.1L240.7,39h-2.2
		l4.8-12.4h16.8l4.7,12.4H262.6z M243.8,25.3l8-20.7l7.9,20.7H243.8z M251.7,9.6l-5.1,13.8h10.3L251.7,9.6z"/>
	<path class="st1" d="M275.6,39V1.4h2V37h22.1v2L275.6,39z M279.1,35.5V1.4h2v32.1h18.6v2L279.1,35.5z"/>
</g>
</svg>
