<svg width="36" height="36" viewBox="0 0 36 36" fill="none" xmlns="http://www.w3.org/2000/svg">
<circle cx="18" cy="18" r="17.6" stroke="#3C3C3B" stroke-width="0.8"/>
<path fill-rule="evenodd" clip-rule="evenodd" d="M18.4215 10.3743C18.4215 10.1557 18.5987 9.97852 18.8173 9.97852H21.034C21.2396 9.97852 21.411 10.1359 21.4284 10.3408C21.5451 11.7122 22.1431 12.5078 22.8162 12.9655C23.5066 13.4351 24.3052 13.5674 24.8164 13.5447C25.0348 13.535 25.2197 13.7041 25.2294 13.9225C25.2392 14.1409 25.07 14.3259 24.8516 14.3356C24.2017 14.3645 23.2269 14.2023 22.371 13.6202C21.5653 13.0722 20.8888 12.1675 20.6816 10.7702H19.2132V19.0562C19.2132 20.4005 18.6809 21.4186 17.9056 21.9636C17.1287 22.5099 16.1298 22.5556 15.3306 21.9768C14.3399 21.2592 14.169 20.1312 14.5663 19.242C14.9113 18.4699 15.6829 17.8774 16.6798 17.8591V16.0544C15.9555 16.1015 15.0253 16.2862 14.2367 16.7762C13.323 17.344 12.5632 18.3413 12.5632 20.1415C12.5632 21.3062 12.8782 22.1376 13.3419 22.7316C13.8083 23.329 14.4489 23.7161 15.1463 23.9476C15.8452 24.1794 16.588 24.2503 17.232 24.223C17.887 24.1952 18.3938 24.068 18.6344 23.9427C19.6152 23.4318 20.1705 22.9274 20.4973 22.2871C20.8311 21.6333 20.9548 20.7848 20.9548 19.5213V15.1804C20.9548 15.0438 21.0253 14.9169 21.1412 14.8446C21.2571 14.7723 21.402 14.7648 21.5247 14.8249C22.0201 15.0674 23.4073 15.597 24.8662 15.7161C25.0841 15.7339 25.2463 15.9249 25.2285 16.1428C25.2107 16.3607 25.0197 16.5229 24.8018 16.5051C23.6102 16.4079 22.4739 16.0625 21.7465 15.7808V19.5213C21.7465 20.8139 21.6248 21.8196 21.2025 22.647C20.7732 23.488 20.0618 24.0918 19.0002 24.6449C18.6133 24.8463 17.9751 24.9838 17.2656 25.0139C16.545 25.0445 15.7037 24.9666 14.897 24.6989C14.0888 24.4307 13.3022 23.9671 12.7179 23.2187C12.1308 22.4669 11.7715 21.4573 11.7715 20.1415C11.7715 18.0659 12.6742 16.8151 13.8188 16.1039C14.9355 15.4099 16.2462 15.2497 17.0757 15.2497C17.2942 15.2497 17.4715 15.4269 17.4715 15.6455V18.281C17.4715 18.3964 17.4212 18.5059 17.3339 18.5811C17.2465 18.6563 17.1307 18.6897 17.0167 18.6725C16.1734 18.5455 15.5482 18.9851 15.2891 19.565C15.0314 20.1416 15.1332 20.8563 15.795 21.3356C16.2969 21.6991 16.9253 21.6851 17.4503 21.3161C17.977 20.9456 18.4215 20.1925 18.4215 19.0562V10.3743Z" fill="#3C3C3B"/>
</svg>
