<svg width="36" height="36" viewBox="0 0 36 36" fill="none" xmlns="http://www.w3.org/2000/svg">
<circle cx="18" cy="18" r="17.6" stroke="#3C3C3B" stroke-width="0.8"/>
<path d="M21.4441 18.152L16.5691 14.902C16.5079 14.8612 16.4368 14.8378 16.3634 14.8342C16.2899 14.8307 16.2169 14.8471 16.152 14.8818C16.0872 14.9165 16.033 14.9682 15.9952 15.0312C15.9574 15.0943 15.9375 15.1665 15.9375 15.24V21.74C15.9375 21.8135 15.9575 21.8857 15.9952 21.9488C16.033 22.0119 16.0872 22.0635 16.1521 22.0982C16.2169 22.1329 16.2899 22.1493 16.3634 22.1458C16.4368 22.1422 16.5079 22.1188 16.5691 22.078L21.4441 18.828C21.4997 18.7909 21.5454 18.7407 21.5769 18.6817C21.6085 18.6227 21.625 18.5569 21.625 18.49C21.625 18.4231 21.6085 18.3573 21.5769 18.2983C21.5454 18.2394 21.4997 18.1891 21.4441 18.152ZM16.75 20.9809V15.9991L20.4864 18.49L16.75 20.9809ZM28.3748 12.6812C28.2948 12.3699 28.1419 12.0822 27.9288 11.8417C27.7157 11.6011 27.4484 11.4148 27.1491 11.2979C23.7169 9.97895 18.1995 9.99908 17.9713 10.0002C17.7383 9.99883 12.2206 9.9789 8.78845 11.2979C8.48911 11.4147 8.22186 11.6011 8.00873 11.8416C7.79561 12.0821 7.64273 12.3699 7.56271 12.6811C7.30598 13.6667 7 15.4746 7 18.49C7 21.5055 7.30598 23.3133 7.56266 24.2989C7.64268 24.6101 7.79556 24.8979 8.00869 25.1384C8.22182 25.3789 8.48909 25.5653 8.78845 25.6822C12.2206 27.0011 17.738 26.9812 17.9662 26.9799C17.9776 26.9799 18.0018 26.9801 18.038 26.9801C18.7371 26.9801 23.8857 26.9362 27.149 25.6822C27.4484 25.5653 27.7156 25.3789 27.9288 25.1384C28.1419 24.8979 28.2948 24.6101 28.3748 24.2989C28.6315 23.3133 28.9375 21.5054 28.9375 18.49C28.9375 15.4745 28.6315 13.6667 28.3748 12.6812ZM27.5885 24.0941C27.5412 24.2804 27.4502 24.4528 27.3231 24.5971C27.196 24.7413 27.0365 24.8533 26.8576 24.9237C23.5696 26.1872 18.0272 26.1682 17.9662 26.1674C17.9103 26.1673 12.3678 26.1872 9.07985 24.9237C8.90099 24.8533 8.74143 24.7413 8.61435 24.597C8.48728 24.4528 8.39632 24.2804 8.34898 24.0941C8.10419 23.1544 7.8125 21.4195 7.8125 18.49C7.8125 15.5606 8.10424 13.8256 8.34898 12.8859C8.39632 12.6996 8.48728 12.5272 8.61437 12.383C8.74146 12.2387 8.90102 12.1268 9.0799 12.0563C12.3679 10.7928 17.9106 10.8129 17.9713 10.8127C18.0268 10.812 23.5696 10.7927 26.8577 12.0563C27.0365 12.1268 27.1961 12.2387 27.3232 12.383C27.4502 12.5273 27.5412 12.6997 27.5885 12.886C27.8333 13.8256 28.125 15.5605 28.125 18.49C28.125 21.4194 27.8333 23.1544 27.5885 24.0941H27.5885Z" fill="#3C3C3B"/>
</svg>
