<svg width="30" height="30" viewBox="0 0 30 30" fill="none" xmlns="http://www.w3.org/2000/svg">
<path d="M15 0C6.71652 0 0 6.71652 0 15C0 23.2835 6.71652 30 15 30C23.2835 30 30 23.2835 30 15C30 6.71652 23.2835 0 15 0ZM20.5915 21.2143C19.2321 22.4665 17.3772 23.2031 15.1641 23.2031C11.9598 23.2031 9.1875 21.365 7.83817 18.6864C7.28237 17.5781 6.96429 16.3259 6.96429 15C6.96429 13.6741 7.28237 12.4219 7.83817 11.3136C9.1875 8.6317 11.9598 6.79353 15.1641 6.79353C17.3739 6.79353 19.2288 7.60714 20.6518 8.92969L18.3013 11.2835C17.4509 10.4699 16.3694 10.058 15.1674 10.058C13.0312 10.058 11.2232 11.5011 10.577 13.4397C10.4129 13.9319 10.3192 14.4576 10.3192 15C10.3192 15.5424 10.4129 16.0681 10.577 16.5603C11.2232 18.4989 13.0313 19.942 15.1641 19.942C16.269 19.942 17.2065 19.6507 17.9397 19.1585C18.8103 18.5759 19.3862 17.7087 19.577 16.6808H15.1641V13.5067H22.8884C22.9855 14.0458 23.0357 14.6049 23.0357 15.1842C23.0357 17.6853 22.1417 19.7846 20.5915 21.2143Z" fill="white"/>
</svg>
