<svg width="24" height="24" viewBox="0 0 24 24" fill="none" xmlns="http://www.w3.org/2000/svg">
<path d="M16.05 12C16.05 9.75 14.25 7.95 12 7.95C9.75 7.95 7.95 9.75 7.95 12C7.95 14.25 9.75 16.05 12 16.05C14.25 16.05 16.05 14.25 16.05 12ZM18.15 12C18.15 15.45 15.45 18.15 12 18.15C8.55 18.15 5.85 15.45 5.85 12C5.85 8.55 8.55 5.85 12 5.85C15.45 5.85 18.15 8.55 18.15 12ZM19.8 5.55C19.8 6.45 19.2 7.05 18.3 7.05C17.4 7.05 16.8 6.45 16.8 5.55C16.8 4.65 17.4 4.05 18.3 4.05C19.2 4.05 19.8 4.8 19.8 5.55ZM12 2.1C10.2 2.1 6.45 1.95 4.95 2.55C3.9 3 3 3.9 2.7 4.95C2.1 6.45 2.25 10.2 2.25 12C2.25 13.8 2.1 17.55 2.7 19.05C3 20.1 3.9 21 4.95 21.3C6.45 21.9 10.35 21.75 12 21.75C13.65 21.75 17.55 21.9 19.05 21.3C20.1 20.85 20.85 20.1 21.3 19.05C21.9 17.4 21.75 13.65 21.75 12C21.75 10.35 21.9 6.45 21.3 4.95C21 3.9 20.1 3 19.05 2.7C17.55 1.95 13.8 2.1 12 2.1ZM24 12V16.95C24 18.75 23.4 20.55 22.05 22.05C20.7 23.4 18.9 24 16.95 24H7.05C5.25 24 3.45 23.4 1.95 22.05C0.75 20.7 0 18.9 0 16.95V12V7.05C0 5.1 0.75 3.3 1.95 1.95C3.45 0.75 5.25 0 7.05 0H16.95C18.75 0 20.55 0.6 22.05 1.95C23.25 3.3 24 5.1 24 7.05V12Z" fill="white"/>
</svg>
