<svg width="24" height="24" viewBox="0 0 24 24" fill="none" xmlns="http://www.w3.org/2000/svg">
<path d="M19.9219 19.9219H16.5881V14.7C16.5881 13.455 16.5656 11.8519 14.8538 11.8519C13.1175 11.8519 12.8513 13.2094 12.8513 14.6082V19.9219H9.5175V9.18378H12.7181V10.6519H12.7631C13.4156 9.53815 14.6306 8.87065 15.9206 8.91753C19.2994 8.91753 19.9237 11.1394 19.9237 14.0325L19.9219 19.92V19.9219ZM5.75625 7.71565C5.24414 7.71319 4.75368 7.50879 4.39138 7.14685C4.02908 6.7849 3.82421 6.29464 3.82125 5.78253C3.82125 4.72128 4.695 3.84753 5.75625 3.84753C6.8175 3.84753 7.68938 4.72128 7.69125 5.78253C7.69125 6.84378 6.8175 7.71753 5.75625 7.71753V7.71565ZM7.42313 19.9219H4.08563V9.18378H7.42313V19.9219ZM21.5812 0.750028H2.40937C1.97466 0.747503 1.55651 0.91664 1.24579 1.22068C0.935079 1.52473 0.756909 1.93911 0.75 2.37378V21.6263C0.756909 22.0609 0.935079 22.4753 1.24579 22.7794C1.55651 23.0834 1.97466 23.2526 2.40937 23.25H21.5831C22.0188 23.2536 22.4384 23.085 22.7505 22.7809C23.0626 22.4769 23.2421 22.0619 23.25 21.6263V2.3719C23.2421 1.93658 23.0625 1.52202 22.7502 1.21857C22.438 0.915119 22.0185 0.747378 21.5831 0.751903L21.5812 0.750028Z" fill="white"/>
</svg>
