<svg width="22" height="25" viewBox="0 0 22 25" fill="none" xmlns="http://www.w3.org/2000/svg">
<path d="M15.307 16.4971V7.76139C16.989 8.96876 19.0536 9.68267 21.2806 9.68267V6.3451C19.9931 6.07235 18.8624 5.37579 18.0272 4.418C16.6817 3.54157 15.713 2.13687 15.4056 0.5H12.2622L12.2564 17.7219C12.1869 19.649 10.5977 21.1989 8.65491 21.1989C7.44855 21.1989 6.38721 20.601 5.72606 19.6955C4.57774 19.086 3.789 17.8845 3.789 16.4971C3.789 14.5063 5.40709 12.8868 7.39635 12.8868C7.76752 12.8868 8.1271 12.9506 8.46349 13.0551V9.68849C4.19497 9.78136 0.75 13.2872 0.75 17.5884C0.75 19.6664 1.55615 21.5588 2.87265 22.975C4.15437 23.8748 5.72026 24.4088 7.40215 24.4088C11.7576 24.4088 15.307 20.8564 15.307 16.4971Z" fill="white"/>
</svg>
