<svg width="28" height="20" viewBox="0 0 28 20" fill="none" xmlns="http://www.w3.org/2000/svg">
<path fill-rule="evenodd" clip-rule="evenodd" d="M13.6861 0C12.4438 0.0041875 7.69161 0.0393122 4.37201 0.287737C3.83411 0.353812 2.66205 0.358825 1.61619 1.4922C0.791138 2.35456 0.5234 4.31518 0.5234 4.31518C0.5234 4.31518 0.271838 6.42383 0.25 8.62275V11.3696C0.271838 13.5686 0.5234 15.6772 0.5234 15.6772C0.5234 15.6772 0.791138 17.6371 1.61619 18.5002C2.66205 19.6336 4.03714 19.5976 4.64945 19.7156C6.66192 19.9155 12.8166 19.9891 13.8504 20H14.3616C15.6856 19.9925 20.3536 19.9499 23.6264 19.7048C24.1642 19.6386 25.3364 19.6336 26.3822 18.5002C27.2073 17.6371 27.475 15.6772 27.475 15.6772C27.475 15.6772 27.75 13.3763 27.75 11.0752V8.91725C27.75 6.61536 27.475 4.31518 27.475 4.31518C27.475 4.31518 27.2073 2.35456 26.3822 1.4922C25.3364 0.358825 24.1642 0.353812 23.6264 0.287737C20.3067 0.0393122 15.5546 0.0041875 14.3114 0H13.6861ZM11.1584 5.7001L18.5904 9.71012L11.16 13.6935L11.1584 5.7001Z" fill="white"/>
</svg>
