<svg width="16" height="22" viewBox="0 0 16 22" fill="none" xmlns="http://www.w3.org/2000/svg">
<path d="M8.00202 0C3.87486 0 0.527344 3.32386 0.527344 7.42351C0.527344 9.52195 2.58549 13.2794 2.58549 13.2794L7.72701 22L13.0905 13.3805C13.0905 13.3805 15.4735 9.79569 15.4735 7.42351C15.4729 3.32386 12.1279 0 8.00202 0ZM7.96685 11.5136C5.60363 11.5136 3.68939 9.5987 3.68939 7.23292C3.68939 4.87098 5.60363 2.95674 7.96685 2.95674C10.3288 2.95674 12.2456 4.87034 12.2456 7.23292C12.2456 9.5987 10.3288 11.5136 7.96685 11.5136Z" fill="#179C78"/>
<path d="M8.85697 4.62695H7.16786V6.55143H5.20117V8.24309H7.16786V10.2245H8.85697V8.24309H10.7993V6.55143H8.85697V4.62695Z" fill="#179C78"/>
</svg>
