<svg width="40" height="40" viewBox="0 0 40 40" fill="none" xmlns="http://www.w3.org/2000/svg">
<path fill-rule="evenodd" clip-rule="evenodd" d="M20 36.6666C29.2047 36.6666 36.6667 29.2046 36.6667 19.9999C36.6667 10.7952 29.2047 3.33325 20 3.33325C10.7953 3.33325 3.33334 10.7952 3.33334 19.9999C3.33334 29.2046 10.7953 36.6666 20 36.6666ZM21.25 14.9999C21.25 14.3096 20.6903 13.7499 20 13.7499C19.3097 13.7499 18.75 14.3096 18.75 14.9999V18.7499H15C14.3097 18.7499 13.75 19.3096 13.75 19.9999C13.75 20.6903 14.3097 21.2499 15 21.2499H18.75V24.9999C18.75 25.6903 19.3097 26.2499 20 26.2499C20.6903 26.2499 21.25 25.6903 21.25 24.9999V21.2499H25C25.6903 21.2499 26.25 20.6903 26.25 19.9999C26.25 19.3096 25.6903 18.7499 25 18.7499H21.25V14.9999Z" fill="#179C78"/>
</svg>
