<svg width="41" height="50" viewBox="0 0 41 50" fill="none" xmlns="http://www.w3.org/2000/svg">
<path fill-rule="evenodd" clip-rule="evenodd" d="M20 36.6666C29.2047 36.6666 36.6667 29.2046 36.6667 19.9999C36.6667 10.7952 29.2047 3.33325 20 3.33325C10.7953 3.33325 3.33334 10.7952 3.33334 19.9999C3.33334 29.2046 10.7953 36.6666 20 36.6666ZM21.25 14.9999C21.25 14.3096 20.6903 13.7499 20 13.7499C19.3097 13.7499 18.75 14.3096 18.75 14.9999V18.7499H15C14.3097 18.7499 13.75 19.3096 13.75 19.9999C13.75 20.6903 14.3097 21.2499 15 21.2499H18.75V24.9999C18.75 25.6903 19.3097 26.2499 20 26.2499C20.6903 26.2499 21.25 25.6903 21.25 24.9999V21.2499H25C25.6903 21.2499 26.25 20.6903 26.25 19.9999C26.25 19.3096 25.6903 18.7499 25 18.7499H21.25V14.9999Z" fill="#179C78"/>
<path d="M0.008 48L2.456 42.32H3.488L5.944 48H4.728L4.176 46.704H1.76L1.208 48H0.008ZM2.184 45.688H3.752L2.968 43.84L2.184 45.688ZM6.10794 46C6.10794 44.864 6.92394 43.912 7.98794 43.912C8.53994 43.912 8.96394 44.192 9.13994 44.448V42H10.2359V48H9.13994V47.552C8.96394 47.808 8.53994 48.088 7.98794 48.088C6.92394 48.088 6.10794 47.136 6.10794 46ZM9.22794 46C9.22794 45.376 8.81994 44.912 8.21994 44.912C7.61994 44.912 7.21194 45.376 7.21194 46C7.21194 46.624 7.61994 47.088 8.21994 47.088C8.81994 47.088 9.22794 46.624 9.22794 46ZM11.0454 46C11.0454 44.864 11.8614 43.912 12.9254 43.912C13.4774 43.912 13.9014 44.192 14.0774 44.448V42H15.1734V48H14.0774V47.552C13.9014 47.808 13.4774 48.088 12.9254 48.088C11.8614 48.088 11.0454 47.136 11.0454 46ZM14.1654 46C14.1654 45.376 13.7574 44.912 13.1574 44.912C12.5574 44.912 12.1494 45.376 12.1494 46C12.1494 46.624 12.5574 47.088 13.1574 47.088C13.7574 47.088 14.1654 46.624 14.1654 46ZM18.1633 48V42.32H19.3233V48H18.1633ZM23.0663 47.96C22.8903 48.016 22.6743 48.048 22.3703 48.048C21.5223 48.048 20.8423 47.576 20.8423 46.6V44.96H20.0343V44H20.8423V42.888H21.9383V44H23.0663V44.96H21.9383V46.384C21.9383 46.872 22.1463 47.064 22.6183 47.064C22.7943 47.064 22.9383 47.04 23.0663 46.992V47.96ZM23.5376 46C23.5376 44.816 24.4256 43.912 25.6416 43.912C26.6896 43.912 27.6096 44.584 27.6096 45.88C27.6096 45.976 27.6096 46.088 27.5936 46.256H24.6016C24.6656 46.792 25.1376 47.088 25.6656 47.088C26.1616 47.088 26.5216 46.856 26.6976 46.584L27.5136 47.192C27.1456 47.728 26.4976 48.088 25.6576 48.088C24.4656 48.088 23.5376 47.264 23.5376 46ZM25.6096 44.816C25.2016 44.816 24.7456 45.024 24.6416 45.512H26.5136C26.4176 45.04 26.0176 44.816 25.6096 44.816ZM28.4186 48V44H29.5146V44.456C29.7306 44.144 30.0906 43.912 30.5786 43.912C31.1626 43.912 31.5786 44.184 31.8186 44.648C32.0666 44.152 32.6026 43.912 33.0586 43.912C34.0106 43.912 34.5546 44.6 34.5546 45.68V48H33.4586V45.864C33.4586 45.272 33.2666 44.912 32.8346 44.912C32.3626 44.912 32.0346 45.28 32.0346 46.048V48H30.9386V45.864C30.9386 45.272 30.7466 44.912 30.3146 44.912C29.8426 44.912 29.5146 45.28 29.5146 46.048V48H28.4186ZM38.4233 46.784C38.4233 47.56 37.7593 48.088 36.9033 48.088C36.1993 48.088 35.5993 47.84 35.2553 47.32L36.0073 46.68C36.1833 46.976 36.5193 47.144 36.9033 47.144C37.1273 47.144 37.3433 47.056 37.3433 46.856C37.3433 46.688 37.2473 46.592 36.8073 46.472L36.5113 46.4C35.7753 46.208 35.3913 45.736 35.4073 45.12C35.4233 44.384 36.0633 43.912 36.9113 43.912C37.5193 43.912 37.9913 44.144 38.2953 44.584L37.5753 45.168C37.3913 44.936 37.1593 44.816 36.8953 44.816C36.7033 44.816 36.4953 44.904 36.4953 45.088C36.4953 45.208 36.5513 45.344 36.8873 45.432L37.2633 45.544C37.9833 45.736 38.4233 46.088 38.4233 46.784Z" fill="#179C78"/>
</svg>
