<svg width="20" height="20" viewBox="0 0 20 20" fill="none" xmlns="http://www.w3.org/2000/svg">
<g clip-path="url(#clip0_3578_6669)">
<path d="M5.09472 9.56272C5.55693 9.56272 5.93162 9.18803 5.93162 8.72582C5.93162 8.26361 5.55693 7.88892 5.09472 7.88892C4.63251 7.88892 4.25781 8.26361 4.25781 8.72582C4.25781 9.18803 4.63251 9.56272 5.09472 9.56272Z" fill="#fa7324"/>
<path d="M9.98144 9.56272C10.4436 9.56272 10.8183 9.18803 10.8183 8.72582C10.8183 8.26361 10.4436 7.88892 9.98144 7.88892C9.51923 7.88892 9.14453 8.26361 9.14453 8.72582C9.14453 9.18803 9.51923 9.56272 9.98144 9.56272Z" fill="#fa7324"/>
<path d="M14.8642 9.56272C15.3265 9.56272 15.7012 9.18803 15.7012 8.72582C15.7012 8.26361 15.3265 7.88892 14.8642 7.88892C14.402 7.88892 14.0273 8.26361 14.0273 8.72582C14.0273 9.18803 14.402 9.56272 14.8642 9.56272Z" fill="#fa7324"/>
<path d="M5.09472 15.2129C5.55693 15.2129 5.93162 14.8382 5.93162 14.376C5.93162 13.9138 5.55693 13.5391 5.09472 13.5391C4.63251 13.5391 4.25781 13.9138 4.25781 14.376C4.25781 14.8382 4.63251 15.2129 5.09472 15.2129Z" fill="#fa7324"/>
<path d="M9.98144 15.2129C10.4436 15.2129 10.8183 14.8382 10.8183 14.376C10.8183 13.9138 10.4436 13.5391 9.98144 13.5391C9.51923 13.5391 9.14453 13.9138 9.14453 14.376C9.14453 14.8382 9.51923 15.2129 9.98144 15.2129Z" fill="#fa7324"/>
<path d="M14.8642 15.2129C15.3265 15.2129 15.7012 14.8382 15.7012 14.376C15.7012 13.9138 15.3265 13.5391 14.8642 13.5391C14.402 13.5391 14.0273 13.9138 14.0273 14.376C14.0273 14.8382 14.402 15.2129 14.8642 15.2129Z" fill="#fa7324"/>
<path d="M19.1549 2.24694H17.1586V1.35696C17.1586 0.891563 16.7748 0.507812 16.3094 0.507812C15.844 0.507812 15.4603 0.891563 15.4603 1.35696V2.24694H4.50295V1.35696C4.50295 0.891563 4.1192 0.507812 3.6538 0.507812C3.1884 0.507812 2.80465 0.891563 2.80465 1.35696V2.24694H0.849151C0.383751 2.24694 0 2.63069 0 3.09609V18.6421C0 19.1075 0.383751 19.4912 0.849151 19.4912H19.11C19.5754 19.4912 19.9591 19.1524 20 18.6421V3.09609C20.004 2.63069 19.6203 2.24694 19.1549 2.24694ZM18.3057 17.8338H1.65748V3.94932H2.80465V4.58619C2.80465 5.05159 3.1884 5.43534 3.6538 5.43534C4.1192 5.43534 4.50295 5.05159 4.50295 4.58619V3.94932H15.4603V4.58619C15.4603 5.05159 15.844 5.43534 16.3094 5.43534C16.734 5.43534 17.1177 5.05159 17.1586 4.58619V3.94932H18.3057V17.8338Z" fill="#fa7324"/>
</g>
<defs>
<clipPath id="clip0_3578_6669">
<rect width="20" height="20" fill="white"/>
</clipPath>
</defs>
</svg>
