<svg width="17" height="16" viewBox="0 0 17 16" fill="none" xmlns="http://www.w3.org/2000/svg">
<g clip-path="url(#clip0_5847_13383)">
<path d="M4.57577 7.64959C4.94554 7.64959 5.2453 7.34984 5.2453 6.98007C5.2453 6.6103 4.94554 6.31055 4.57577 6.31055C4.20601 6.31055 3.90625 6.6103 3.90625 6.98007C3.90625 7.34984 4.20601 7.64959 4.57577 7.64959Z" fill="white"/>
<path d="M8.48593 7.64959C8.8557 7.64959 9.15545 7.34984 9.15545 6.98007C9.15545 6.6103 8.8557 6.31055 8.48593 6.31055C8.11616 6.31055 7.81641 6.6103 7.81641 6.98007C7.81641 7.34984 8.11616 7.64959 8.48593 7.64959Z" fill="white"/>
<path d="M12.3922 7.64959C12.7619 7.64959 13.0617 7.34984 13.0617 6.98007C13.0617 6.6103 12.7619 6.31055 12.3922 6.31055C12.0224 6.31055 11.7227 6.6103 11.7227 6.98007C11.7227 7.34984 12.0224 7.64959 12.3922 7.64959Z" fill="white"/>
<path d="M4.57577 12.1711C4.94554 12.1711 5.2453 11.8713 5.2453 11.5016C5.2453 11.1318 4.94554 10.832 4.57577 10.832C4.20601 10.832 3.90625 11.1318 3.90625 11.5016C3.90625 11.8713 4.20601 12.1711 4.57577 12.1711Z" fill="white"/>
<path d="M8.48593 12.1711C8.8557 12.1711 9.15545 11.8713 9.15545 11.5016C9.15545 11.1318 8.8557 10.832 8.48593 10.832C8.11616 10.832 7.81641 11.1318 7.81641 11.5016C7.81641 11.8713 8.11616 12.1711 8.48593 12.1711Z" fill="white"/>
<path d="M12.3922 12.1711C12.7619 12.1711 13.0617 11.8713 13.0617 11.5016C13.0617 11.1318 12.7619 10.832 12.3922 10.832C12.0224 10.832 11.7227 11.1318 11.7227 11.5016C11.7227 11.8713 12.0224 12.1711 12.3922 12.1711Z" fill="white"/>
<path d="M15.8239 1.79755H14.2269V1.08557C14.2269 0.713251 13.9199 0.40625 13.5475 0.40625C13.1752 0.40625 12.8682 0.713251 12.8682 1.08557V1.79755H4.10236V1.08557C4.10236 0.713251 3.79536 0.40625 3.42304 0.40625C3.05072 0.40625 2.74372 0.713251 2.74372 1.08557V1.79755H1.17932C0.807001 1.79755 0.5 2.10455 0.5 2.47687V14.9137C0.5 15.286 0.807001 15.593 1.17932 15.593H15.788C16.1603 15.593 16.4673 15.3219 16.5 14.9137V2.47687C16.5032 2.10455 16.1962 1.79755 15.8239 1.79755ZM15.1446 14.267H1.82598V3.15946H2.74372V3.66895C2.74372 4.04127 3.05072 4.34827 3.42304 4.34827C3.79536 4.34827 4.10236 4.04127 4.10236 3.66895V3.15946H12.8682V3.66895C12.8682 4.04127 13.1752 4.34827 13.5475 4.34827C13.8872 4.34827 14.1942 4.04127 14.2269 3.66895V3.15946H15.1446V14.267Z" fill="white"/>
</g>
<defs>
<clipPath id="clip0_5847_13383">
<rect width="16" height="16" fill="white" transform="translate(0.5)"/>
</clipPath>
</defs>
</svg>
