<svg width="24" height="18" viewBox="0 0 24 18" fill="none" xmlns="http://www.w3.org/2000/svg">
<path fill-rule="evenodd" clip-rule="evenodd" d="M19.1808 8.65266C21.8419 8.65266 24 10.7454 24 13.3259C24 15.9068 21.8419 18 19.1808 18C16.5206 18 14.3625 15.9068 14.3625 13.3259C14.3625 10.7454 16.5206 8.65266 19.1808 8.65266ZM1.45219 0H22.148C22.9462 0 23.5978 0.631946 23.5978 1.40619V8.93544C23.2846 8.63887 22.9408 8.37439 22.5717 8.14619V6.93367H1.02844V14.7039C1.02844 15.0294 1.30547 15.2976 1.64062 15.2976H13.1873C13.3092 15.6445 13.4625 15.9773 13.6434 16.2933H1.45219C0.653906 16.2933 0 15.6618 0 14.8871V1.40847C0 0.631946 0.651562 0 1.45219 0ZM3.66 13.2086C3.32625 13.2086 3.05578 12.9463 3.05578 12.6226C3.05578 12.2993 3.32625 12.0365 3.66 12.0365H9.1575C9.49125 12.0365 9.76172 12.2993 9.76172 12.6226C9.76172 12.9463 9.49125 13.2086 9.1575 13.2086H3.66ZM3.66 10.3957C3.32625 10.3957 3.05578 10.133 3.05578 9.80971C3.05578 9.48601 3.32625 9.22368 3.66 9.22368H5.30438C5.63812 9.22368 5.90859 9.48601 5.90859 9.80971C5.90859 10.133 5.63812 10.3957 5.30438 10.3957H3.66ZM7.13344 10.3957C6.79969 10.3957 6.52922 10.133 6.52922 9.80971C6.52922 9.48601 6.79969 9.22368 7.13344 9.22368H8.33109C8.66484 9.22368 8.93531 9.48601 8.93531 9.80971C8.93531 10.133 8.66484 10.3957 8.33109 10.3957H7.13344ZM10.26 10.3957C9.92625 10.3957 9.65578 10.133 9.65578 9.80971C9.65578 9.48601 9.92625 9.22368 10.26 9.22368H11.4516C11.7848 9.22368 12.0558 9.48601 12.0558 9.80971C12.0558 10.133 11.7848 10.3957 11.4516 10.3957H10.26ZM1.02844 3.14382H22.5694V1.59123C22.5694 1.26616 22.2923 0.997474 21.9572 0.997474H1.64062C1.30547 0.997474 1.02844 1.26616 1.02844 1.59123V3.14382ZM21.7186 12.8526V13.7996C21.7183 13.8927 21.68 13.9819 21.6121 14.0478C21.5442 14.1136 21.4523 14.1507 21.3563 14.151H20.0316V15.4358C20.0311 15.6295 19.8689 15.7868 19.6692 15.7868H18.6928C18.4931 15.7864 18.3314 15.6291 18.3309 15.4358V14.151H17.0058C16.8061 14.1501 16.6444 13.9928 16.6439 13.7996V12.8526C16.6448 12.6589 16.8066 12.5025 17.0058 12.5016H18.3309V11.2164C18.3319 11.0227 18.4936 10.8663 18.6928 10.8654H19.6692C19.8689 10.8658 20.0306 11.0222 20.0316 11.2164V12.5016H21.3563C21.5555 12.5021 21.7177 12.6585 21.7186 12.8526Z" fill="#179C78"/>
</svg>
