<?xml version="1.0" encoding="utf-8"?>
<!-- Generator: Adobe Illustrator 27.8.1, SVG Export Plug-In . SVG Version: 6.00 Build 0)  -->
<svg version="1.1" id="Layer_1" xmlns="http://www.w3.org/2000/svg" xmlns:xlink="http://www.w3.org/1999/xlink" x="0px" y="0px"
	 viewBox="0 0 24 24" style="enable-background:new 0 0 24 24;" xml:space="preserve">
<style type="text/css">
	.st0{fill:#BD1414;}
	.st1{clip-path:url(#SVGID_00000131352405578758125260000010850538001080194724_);}
	.st2{fill:#FFFFFF;}
	.st3{fill-rule:evenodd;clip-rule:evenodd;fill:#FFFFFF;}
</style>
<g>
	<circle class="st0" cx="12" cy="12" r="12"/>
	<g>
		<defs>
			
				<rect id="SVGID_1_" x="3.4" y="3.4" transform="matrix(0.9295 -0.3687 0.3687 0.9295 -3.4201 5.036)" width="16.1" height="16.1"/>
		</defs>
		<clipPath id="SVGID_00000114775709468687783250000007229225202438902671_">
			<use xlink:href="#SVGID_1_"  style="overflow:visible;"/>
		</clipPath>
		<g style="clip-path:url(#SVGID_00000114775709468687783250000007229225202438902671_);">
			<path class="st2" d="M5,16.7c0.1-0.2,0.3-0.1,0.7,0c0.3,0.1,0.8,0.2,1.4,0.2c0.9,0.1,4,0,5.9-2.6c0.8-1.2,1.1-2.3,1.4-3.2
				c0.2-0.7,0.3-1.2,0.6-1.4c0.1-0.1,0.4-0.2,0.7-0.3c0.1-0.3,0.2-0.5,0.4-0.7c0.2-0.2,0.5-0.3,0.8-0.3c-0.1-1.1-0.6-1.9-0.9-2.3
				c-0.1-0.1-0.1-0.3-0.1-0.5c0-0.2,0.2-0.3,0.3-0.3l0.7-0.3c0.1-0.1,0.3-0.1,0.4,0c0.1,0.1,0.2,0.2,0.3,0.3C18,6.4,18,7.9,18,8.4
				c0.2,0.1,0.4,0.2,0.6,0.4C18.8,9,19,9.3,19,9.7c0.3,0.2,0.7,0.4,0.8,0.8c0.1,0.4-0.1,1.9-1,3.6c-0.7,1.2-1.6,2.2-2.7,3
				c-0.7,0.5-1.5,1-2.4,1.3c-0.8,0.3-1.7,0.6-2.6,0.7c-1,0.2-2.4,0-3.7-0.4C7,18.5,5.3,17.9,5,17C4.9,16.8,5,16.7,5,16.7z M16.4,9
				c-0.1,0.1-0.1,0.1-0.2,0.2c0.5,0,1.2,0,1.7,0.1c0.1,0,0.3,0.1,0.5,0.1c-0.1-0.4-0.5-0.7-1-0.7C17,8.7,16.7,8.8,16.4,9z M17.1,5.3
				C17.1,5.3,17.1,5.3,17.1,5.3C17.1,5.3,17.1,5.3,17.1,5.3l-0.7,0.3c0,0,0,0,0,0c0,0,0,0,0,0c0.3,0.5,0.8,1.4,1,2.6
				c0,0,0.1,0,0.1,0C17.5,7.7,17.5,6.4,17.1,5.3z M7.6,18.1c1.2,0.4,2.5,0.6,3.4,0.4c4-0.7,6.1-2.8,7.1-4.5c1.1-1.7,1.2-3.2,1.1-3.4
				c-0.1-0.3-0.7-0.6-1.4-0.8c-1.1-0.2-2.2-0.2-2.5,0.1c-0.2,0.2-0.3,0.6-0.5,1.2c-0.2,0.9-0.6,2.1-1.4,3.4c-2,2.9-5.4,2.9-6.3,2.8
				c-0.6,0-1.1-0.1-1.4-0.2C6.1,17.5,6.8,17.9,7.6,18.1z"/>
			<path class="st3" d="M17.4,9.5c0.9,0.1,1.7,0.6,2,0.9c0.2,0.4,0.1,4.4-4.7,7.2c-4.8,2.8-9,0.1-9.4-0.2c-0.3-0.2-0.1-0.4,0-0.5
				c3.6,1,6.4-0.9,7.6-2.2c0.8-0.9,1.3-2.5,1.6-3.6c0.1-0.5,0.3-1,0.4-1.1C15.3,9.4,16.3,9.5,17.4,9.5z M12.9,16
				c0.4-0.4,0.8-0.8,1.1-1.2c0.5-0.7,0.9-1.4,1.2-2.3c0-0.1,0.2-0.2,0.3-0.2c0.1,0,0.2,0.2,0.2,0.3c-0.3,0.9-0.7,1.7-1.2,2.4
				c-0.3,0.5-0.7,0.9-1.1,1.3c0,0-0.1,0-0.1,0c-0.1,0-0.2,0-0.3-0.1C12.7,16.3,12.7,16.1,12.9,16z M16,10.4c-0.1-0.1-0.3,0-0.3,0.1
				c-0.1,0.2-0.2,0.5-0.2,0.8c0,0.1,0,0.3,0.2,0.3c0.1,0,0.1,0,0.2,0c0.1,0,0.1-0.1,0.2-0.2v0c0.1-0.2,0.2-0.6,0.2-0.7
				C16.2,10.6,16.2,10.4,16,10.4z"/>
		</g>
	</g>
</g>
</svg>
