<?xml version="1.0" encoding="utf-8"?>
<!-- Generator: Adobe Illustrator 27.4.1, SVG Export Plug-In . SVG Version: 6.00 Build 0)  -->
<svg version="1.1" id="Layer_1" xmlns="http://www.w3.org/2000/svg" xmlns:xlink="http://www.w3.org/1999/xlink" x="0px" y="0px"
	 viewBox="0 0 22.6 22.6" style="enable-background:new 0 0 22.6 22.6;" xml:space="preserve">
<style type="text/css">
	.st0{fill:#787F82;}
</style>
<path class="st0" d="M6.3,22.6H0.5c-0.3,0-0.5-0.2-0.5-0.5v-5.8c0-0.3,0.2-0.5,0.5-0.5h5.8c0.3,0,0.5,0.2,0.5,0.5v5.8
	C6.8,22.4,6.6,22.6,6.3,22.6z M1,21.6h4.8v-4.8H1V21.6z"/>
<path class="st0" d="M22.1,6.8h-5.8c-0.3,0-0.5-0.2-0.5-0.5V0.5C15.8,0.2,16,0,16.3,0h5.8c0.3,0,0.5,0.2,0.5,0.5v5.8
	C22.6,6.6,22.4,6.8,22.1,6.8z M16.8,5.8h4.8V1h-4.8V5.8z"/>
<path class="st0" d="M6.3,6.8H0.5C0.2,6.8,0,6.6,0,6.3V0.5C0,0.2,0.2,0,0.5,0h5.8c0.3,0,0.5,0.2,0.5,0.5v5.8
	C6.8,6.6,6.6,6.8,6.3,6.8z M1,5.8h4.8V1H1V5.8z"/>
<path class="st0" d="M11.7,1.8h-0.8c-0.3,0-0.5-0.2-0.5-0.5V0.5c0-0.3,0.2-0.5,0.5-0.5h0.8c0.3,0,0.5,0.2,0.5,0.5v0.8
	C12.2,1.6,12,1.8,11.7,1.8z"/>
<path class="st0" d="M11.7,7h-0.8c-0.3,0-0.5-0.2-0.5-0.5V5.7c0-0.3,0.2-0.5,0.5-0.5h0.8c0.3,0,0.5,0.2,0.5,0.5v0.8
	C12.2,6.8,12,7,11.7,7z"/>
<path class="st0" d="M6.5,12.2H5.7c-0.3,0-0.5-0.2-0.5-0.5v-0.8c0-0.3,0.2-0.5,0.5-0.5h0.8c0.3,0,0.5,0.2,0.5,0.5v0.8
	C7,12,6.8,12.2,6.5,12.2z"/>
<path class="st0" d="M11.7,17.4h-0.8c-0.3,0-0.5-0.2-0.5-0.5v-0.8c0-0.3,0.2-0.5,0.5-0.5h0.8c0.3,0,0.5,0.2,0.5,0.5v0.8
	C12.2,17.2,12,17.4,11.7,17.4z"/>
<path class="st0" d="M11.7,22.6h-0.8c-0.3,0-0.5-0.2-0.5-0.5v-0.8c0-0.3,0.2-0.5,0.5-0.5h0.8c0.3,0,0.5,0.2,0.5,0.5v0.8
	C12.2,22.4,12,22.6,11.7,22.6z"/>
<path class="st0" d="M1.3,12.2H0.5C0.2,12.2,0,12,0,11.7v-0.8c0-0.3,0.2-0.5,0.5-0.5h0.8c0.3,0,0.5,0.2,0.5,0.5v0.8
	C1.8,12,1.6,12.2,1.3,12.2z"/>
<path class="st0" d="M11.7,12.2h-0.8c-0.3,0-0.5-0.2-0.5-0.5v-0.8c0-0.3,0.2-0.5,0.5-0.5h0.8c0.3,0,0.5,0.2,0.5,0.5v0.8
	C12.2,12,12,12.2,11.7,12.2z"/>
<path class="st0" d="M16.9,12.2h-0.8c-0.3,0-0.5-0.2-0.5-0.5v-0.8c0-0.3,0.2-0.5,0.5-0.5h0.8c0.3,0,0.5,0.2,0.5,0.5v0.8
	C17.4,12,17.2,12.2,16.9,12.2z"/>
<path class="st0" d="M22.1,12.2h-0.8c-0.3,0-0.5-0.2-0.5-0.5v-0.8c0-0.3,0.2-0.5,0.5-0.5h0.8c0.3,0,0.5,0.2,0.5,0.5v0.8
	C22.6,12,22.4,12.2,22.1,12.2z"/>
<path class="st0" d="M16.9,17.4h-0.8c-0.3,0-0.5-0.2-0.5-0.5v-0.8c0-0.3,0.2-0.5,0.5-0.5h0.8c0.3,0,0.5,0.2,0.5,0.5v0.8
	C17.4,17.2,17.2,17.4,16.9,17.4z"/>
<path class="st0" d="M22.1,17.4h-0.8c-0.3,0-0.5-0.2-0.5-0.5v-0.8c0-0.3,0.2-0.5,0.5-0.5h0.8c0.3,0,0.5,0.2,0.5,0.5v0.8
	C22.6,17.2,22.4,17.4,22.1,17.4z"/>
<path class="st0" d="M16.9,22.6h-0.8c-0.3,0-0.5-0.2-0.5-0.5v-0.8c0-0.3,0.2-0.5,0.5-0.5h0.8c0.3,0,0.5,0.2,0.5,0.5v0.8
	C17.4,22.4,17.2,22.6,16.9,22.6z"/>
<path class="st0" d="M22.1,22.6h-0.8c-0.3,0-0.5-0.2-0.5-0.5v-0.8c0-0.3,0.2-0.5,0.5-0.5h0.8c0.3,0,0.5,0.2,0.5,0.5v0.8
	C22.6,22.4,22.4,22.6,22.1,22.6z"/>
</svg>
