<?xml version="1.0" encoding="utf-8"?>
<!-- Generator: Adobe Illustrator 27.2.0, SVG Export Plug-In . SVG Version: 6.00 Build 0)  -->
<svg version="1.1" id="Layer_1" xmlns="http://www.w3.org/2000/svg" xmlns:xlink="http://www.w3.org/1999/xlink" x="0px" y="0px"
	 viewBox="0 0 32 32" style="enable-background:new 0 0 32 32;" xml:space="preserve">
<style type="text/css">
	.st0{fill:#787F82;}
</style>
<g>
	<path class="st0" d="M30.4,7.4V5.4H18.6c-1.1,0-2.1,0.6-2.6,1.4c-0.5-0.9-1.5-1.4-2.6-1.4H1.6v1.9H0V26h13.4c0.1,0,0.1,0,0.1,0.1
		v0.5h5v-0.5c0-0.1,0-0.1,0.1-0.1H32V7.4H30.4z M14.3,25.6c-0.2-0.3-0.5-0.6-0.9-0.6H1V8.3h0.7V24h11.7c0,0,0.1,0,0.1,0c0,0,0,0,0,0
		c0,0,0,0,0.1,0c0,0,0,0,0,0c0,0,0,0,0.1,0c0,0,0,0,0,0c0,0,0,0,0.1,0c0,0,0,0,0,0c0,0,0,0,0.1,0c0,0,0,0,0,0c0,0,0.1,0,0.1,0
		c0,0,0,0,0,0c0,0,0.1,0,0.1,0c0,0,0,0,0,0c0,0,0,0,0.1,0c0,0,0,0,0,0c0,0,0,0,0.1,0c0,0,0,0,0,0c0,0,0,0,0.1,0c0,0,0,0,0,0
		c0,0,0,0,0.1,0c0,0,0,0,0,0c0,0,0,0,0.1,0c0,0,0,0,0,0c0,0,0.1,0,0.1,0.1c0,0,0,0,0,0c0,0,0,0,0.1,0c0,0,0,0,0,0c0,0,0,0,0,0
		c0,0,0,0,0,0c0,0,0,0,0,0c0,0,0,0,0,0c0,0,0,0,0,0c0,0,0,0,0,0c0,0,0,0,0,0.1c0,0,0,0,0,0c0,0,0,0,0.1,0.1c0,0,0,0,0,0
		c0,0,0,0,0,0.1c0,0,0,0,0,0c0,0,0,0,0,0.1c0,0,0,0,0,0c0,0,0,0,0,0.1c0,0,0,0,0,0c0,0,0,0,0,0.1c0,0,0,0,0,0c0,0,0,0,0,0.1
		c0,0,0,0,0,0c0,0,0,0.1,0,0.1c0,0,0,0,0,0c0,0,0,0.1,0,0.1c0,0,0,0,0,0c0,0,0,0,0,0.1c0,0,0,0,0,0c0,0,0,0,0,0L14.3,25.6L14.3,25.6
		z M15.5,20.5v3.4C15,23.3,14.2,23,13.4,23H2.6V7.4v-1h10.8c1.2,0,2.1,1,2.1,2.1v10.7h1V8.5c0-1.2,1-2.1,2.1-2.1h10.8v1V23H18.6
		c-0.8,0-1.6,0.3-2.1,0.9v-3.4H15.5z M31,25H18.6c-0.4,0-0.8,0.2-0.9,0.6h-1.1c0,0,0,0,0,0c0,0,0,0,0,0c0,0,0,0,0-0.1c0,0,0,0,0,0
		c0,0,0-0.1,0-0.1c0,0,0,0,0,0c0,0,0-0.1,0-0.1c0,0,0,0,0,0c0,0,0,0,0-0.1c0,0,0,0,0,0c0,0,0,0,0-0.1c0,0,0,0,0,0c0,0,0,0,0-0.1
		c0,0,0,0,0,0c0,0,0,0,0-0.1c0,0,0,0,0,0c0,0,0,0,0-0.1c0,0,0,0,0,0c0,0,0-0.1,0.1-0.1c0,0,0,0,0,0c0,0,0,0,0-0.1c0,0,0,0,0,0
		c0,0,0,0,0,0c0,0,0,0,0,0c0,0,0,0,0,0c0,0,0,0,0,0c0,0,0,0,0,0c0,0,0,0,0,0c0,0,0,0,0.1,0c0,0,0,0,0,0c0,0,0.1,0,0.1-0.1
		c0,0,0,0,0,0c0,0,0,0,0.1,0c0,0,0,0,0,0c0,0,0,0,0.1,0c0,0,0,0,0,0c0,0,0,0,0.1,0c0,0,0,0,0,0c0,0,0,0,0.1,0c0,0,0,0,0,0
		c0,0,0,0,0.1,0c0,0,0,0,0,0c0,0,0.1,0,0.1,0c0,0,0,0,0,0c0,0,0.1,0,0.1,0c0,0,0,0,0,0c0,0,0,0,0.1,0c0,0,0,0,0,0c0,0,0,0,0.1,0
		c0,0,0,0,0,0c0,0,0,0,0.1,0c0,0,0,0,0,0c0,0,0,0,0.1,0c0,0,0,0,0,0c0,0,0.1,0,0.1,0h11.7V8.3H31L31,25L31,25z"/>
	<path class="st0" d="M14,8.6H3.6v1H14V8.6z"/>
	<path class="st0" d="M14,10.5h-2.6v1H14V10.5z"/>
	<path class="st0" d="M10,10.5H3.6v1H10V10.5z"/>
	<path class="st0" d="M28.4,8.6H18v1h10.3V8.6z"/>
	<path class="st0" d="M28.4,10.5H18v1h10.3V10.5z"/>
	<path class="st0" d="M28.4,14.3H18v1h10.3V14.3z"/>
	<path class="st0" d="M25.4,12.4H18v1h7.3V12.4z"/>
	<path class="st0" d="M9.4,15.1L9.4,15.1l-0.1-0.3c0-0.3,0.3-0.6,0.6-0.6h0.8v-1H9.8c-0.8,0-1.5,0.7-1.5,1.5v0.3H8.2
		c-1.7,0-3,1.3-3,3c0,1.7,1.3,3,3,3h1.1c1.7,0,3-1.3,3-3C12.4,16.4,11,15.1,9.4,15.1z M9.4,20.1H8.2c-1.1,0-2.1-0.9-2.1-2.1
		c0-1.1,0.9-2.1,2.1-2.1h0.1v1h1v-1h0.1c1.1,0,2.1,0.9,2.1,2.1C11.4,19.2,10.5,20.1,9.4,20.1z"/>
</g>
</svg>
