<svg width="16" height="16" viewBox="0 0 16 16" fill="none" xmlns="http://www.w3.org/2000/svg">
<g clip-path="url(#clip0_6125_14952)">
<path fill-rule="evenodd" clip-rule="evenodd" d="M3.5 6C3.36739 6 3.24021 6.05268 3.14645 6.14645C3.05268 6.24021 3 6.36739 3 6.5V14.5C3 14.6326 3.05268 14.7598 3.14645 14.8536C3.24021 14.9473 3.36739 15 3.5 15H12.5C12.6326 15 12.7598 14.9473 12.8536 14.8536C12.9473 14.7598 13 14.6326 13 14.5V6.5C13 6.36739 12.9473 6.24021 12.8536 6.14645C12.7598 6.05268 12.6326 6 12.5 6H10.5C10.3674 6 10.2402 5.94732 10.1464 5.85355C10.0527 5.75979 10 5.63261 10 5.5C10 5.36739 10.0527 5.24021 10.1464 5.14645C10.2402 5.05268 10.3674 5 10.5 5H12.5C12.8978 5 13.2794 5.15804 13.5607 5.43934C13.842 5.72064 14 6.10218 14 6.5V14.5C14 14.8978 13.842 15.2794 13.5607 15.5607C13.2794 15.842 12.8978 16 12.5 16H3.5C3.10218 16 2.72064 15.842 2.43934 15.5607C2.15804 15.2794 2 14.8978 2 14.5V6.5C2 6.10218 2.15804 5.72064 2.43934 5.43934C2.72064 5.15804 3.10218 5 3.5 5H5.5C5.63261 5 5.75979 5.05268 5.85355 5.14645C5.94732 5.24021 6 5.36739 6 5.5C6 5.63261 5.94732 5.75979 5.85355 5.85355C5.75979 5.94732 5.63261 6 5.5 6H3.5Z" fill="#179C78"/>
<path fill-rule="evenodd" clip-rule="evenodd" d="M7.64566 0.145917C7.6921 0.099354 7.74728 0.0624111 7.80802 0.0372047C7.86877 0.0119982 7.93389 -0.000976563 7.99966 -0.000976562C8.06542 -0.000976563 8.13054 0.0119982 8.19129 0.0372047C8.25203 0.0624111 8.30721 0.099354 8.35366 0.145917L11.3537 3.14592C11.4475 3.2398 11.5003 3.36714 11.5003 3.49992C11.5003 3.63269 11.4475 3.76003 11.3537 3.85392C11.2598 3.9478 11.1324 4.00055 10.9997 4.00055C10.8669 4.00055 10.7395 3.9478 10.6457 3.85392L8.49966 1.70692V10.4999C8.49966 10.6325 8.44698 10.7597 8.35321 10.8535C8.25944 10.9472 8.13226 10.9999 7.99966 10.9999C7.86705 10.9999 7.73987 10.9472 7.6461 10.8535C7.55233 10.7597 7.49966 10.6325 7.49966 10.4999V1.70692L5.35366 3.85392C5.30717 3.90041 5.25198 3.93728 5.19124 3.96244C5.1305 3.9876 5.0654 4.00055 4.99966 4.00055C4.86688 4.00055 4.73954 3.9478 4.64566 3.85392C4.59917 3.80743 4.56229 3.75224 4.53713 3.6915C4.51197 3.63076 4.49902 3.56566 4.49902 3.49992C4.49902 3.36714 4.55177 3.2398 4.64566 3.14592L7.64566 0.145917Z" fill="#179C78"/>
</g>
<defs>
<clipPath id="clip0_6125_14952">
<rect width="16" height="16" fill="white"/>
</clipPath>
</defs>
</svg>
