<svg width="20" height="20" viewBox="0 0 20 20" fill="none" xmlns="http://www.w3.org/2000/svg">
<path d="M12.8707 3.4978H3.57318C2.70077 3.4978 1.99219 4.20638 1.99219 5.0788V18.419C1.99219 19.2914 2.70077 20 3.57318 20H12.8707C13.7432 20 14.4517 19.2914 14.4517 18.419V5.0788C14.4476 4.20638 13.7391 3.4978 12.8707 3.4978ZM13.3418 18.4149C13.3418 18.677 13.1288 18.89 12.8667 18.89H3.56909C3.30695 18.89 3.09397 18.677 3.09397 18.4149V5.0788C3.09397 4.81666 3.30695 4.60368 3.56909 4.60368H12.8667C13.1288 4.60368 13.3418 4.81666 13.3418 5.0788V18.4149Z" fill="#179C78"/>
<path d="M16.4264 0H7.12885C6.25643 0 5.54785 0.708581 5.54785 1.581C5.54785 1.88818 5.7936 2.13393 6.10079 2.13393C6.40798 2.13393 6.65373 1.88818 6.65373 1.581C6.65373 1.31886 6.86671 1.10588 7.12885 1.10588H16.4264C16.6885 1.10588 16.9015 1.31886 16.9015 1.581V14.9212C16.9015 15.1833 16.6885 15.3963 16.4264 15.3963C16.1192 15.3963 15.8735 15.642 15.8735 15.9492C15.8735 16.2564 16.1192 16.5021 16.4264 16.5021C17.2988 16.5021 18.0074 15.7936 18.0074 14.9212V1.581C18.0074 0.708581 17.2988 0 16.4264 0Z" fill="#179C78"/>
</svg>
