<?xml version="1.0" encoding="utf-8"?>
<!-- Generator: Adobe Illustrator 27.2.0, SVG Export Plug-In . SVG Version: 6.00 Build 0)  -->
<svg version="1.1" id="Layer_1" xmlns="http://www.w3.org/2000/svg" xmlns:xlink="http://www.w3.org/1999/xlink" x="0px" y="0px"
	 viewBox="0 0 12 12" style="enable-background:new 0 0 12 12;" xml:space="preserve">
<style type="text/css">
	.st0{fill:#787F82;}
</style>
<path class="st0" d="M6,12c3.3,0,6-2.7,6-6S9.3,0,6,0S0,2.7,0,6S2.7,12,6,12z M6,5.1l1.9-1.9C8.2,3,8.6,3,8.8,3.2C9,3.4,9,3.8,8.8,4
	L6.9,6l1.9,1.9C9,8.1,9,8.5,8.8,8.7C8.6,9,8.2,9,7.9,8.7L6,6.8L4.1,8.7C3.9,9,3.5,9,3.3,8.7C3,8.5,3,8.1,3.3,7.9L5.2,6L3.3,4
	C3,3.8,3,3.4,3.3,3.2C3.5,3,3.9,3,4.1,3.2L6,5.1z"/>
</svg>
