<?xml version="1.0" encoding="utf-8"?>
<!-- Generator: Adobe Illustrator 27.1.1, SVG Export Plug-In . SVG Version: 6.00 Build 0)  -->
<svg version="1.1" id="Layer_1" xmlns="http://www.w3.org/2000/svg" xmlns:xlink="http://www.w3.org/1999/xlink" x="0px" y="0px"
	 viewBox="0 0 24 24" style="enable-background:new 0 0 24 24;" xml:space="preserve">
<style type="text/css">
	.st0{fill:#787F82;}
</style>
<path class="st0" d="M6.2,22.5c-0.3,0-0.5-0.2-0.5-0.5v-9.7C3.3,12.1,2,10.3,2,8.5V2c0-0.3,0.2-0.5,0.5-0.5S3,1.7,3,2v6.5
	c0,1.1,0.8,2.8,3.2,2.8c2.3,0,3.2-1.7,3.2-2.8V2c0-0.3,0.2-0.5,0.5-0.5s0.4,0.2,0.4,0.5v6.5c0,1.8-1.3,3.5-3.7,3.8V22
	C6.7,22.3,6.4,22.5,6.2,22.5z M6.2,9.4c-0.3,0-0.5-0.2-0.5-0.5V2c0-0.3,0.2-0.5,0.5-0.5S6.7,1.7,6.7,2v6.9C6.7,9.2,6.4,9.4,6.2,9.4z
	"/>
<path class="st0" d="M21.7,22.5h-6.9c-0.3,0-0.5-0.2-0.5-0.5s0.2-0.5,0.5-0.5h6.9c0.3,0,0.5,0.2,0.5,0.5S22,22.5,21.7,22.5z"/>
<path class="st0" d="M18,11.8c-2.5,0-4.5-2-4.5-4.5V2h9v5.3C22.5,9.8,20.5,11.8,18,11.8z M14.5,3v4.3c0,1.9,1.6,3.5,3.5,3.5
	s3.5-1.6,3.5-3.5V3H14.5z"/>
<path class="st0" d="M18,22.1c-0.3,0-0.5-0.2-0.5-0.5v-9.8c0-0.3,0.2-0.5,0.5-0.5s0.5,0.2,0.5,0.5v9.8C18.5,21.9,18.3,22.1,18,22.1z
	"/>
</svg>
