<svg width="20" height="20" viewBox="0 0 20 20" fill="none" xmlns="http://www.w3.org/2000/svg">
<path d="M9.70265 9.74807V0.562149C9.70265 0.249844 9.9525 0 10.2648 0C10.5771 0 10.827 0.249844 10.827 0.562149V9.74807C12.1303 10.0104 13.1172 11.1639 13.1172 12.5463C13.1172 13.9288 12.1303 15.0822 10.827 15.3446V19.4337C10.827 19.746 10.5771 19.9958 10.2648 19.9958C9.9525 19.9958 9.70265 19.746 9.70265 19.4337V15.3446C8.3993 15.0822 7.41242 13.9288 7.41242 12.5463C7.41242 11.168 8.39514 10.0104 9.70265 9.74807ZM10.2648 14.2744C11.2184 14.2744 11.9929 13.4999 11.9929 12.5463C11.9929 11.5928 11.2184 10.8182 10.2648 10.8182C9.31123 10.8182 8.53672 11.5928 8.53672 12.5463C8.53672 13.4999 9.31123 14.2744 10.2648 14.2744Z" fill="#787F82"/>
<path d="M16.5855 5.03435V0.562149C16.5855 0.249844 16.8353 0 17.1476 0C17.4599 0 17.7098 0.249844 17.7098 0.562149V5.03435C19.0131 5.29669 20 6.45014 20 7.8326C20 9.21507 19.0131 10.3685 17.7098 10.6309V19.4337C17.7098 19.746 17.4599 19.9958 17.1476 19.9958C16.8353 19.9958 16.5855 19.746 16.5855 19.4337V10.6267C15.2821 10.3644 14.2952 9.21091 14.2952 7.82844C14.2952 6.44597 15.2821 5.29669 16.5855 5.03435ZM17.1476 9.56069C18.1012 9.56069 18.8757 8.78617 18.8757 7.8326C18.8757 6.87903 18.1012 6.10452 17.1476 6.10452C16.194 6.10452 15.4195 6.87903 15.4195 7.8326C15.4195 8.78617 16.1982 9.56069 17.1476 9.56069Z" fill="#787F82"/>
<path d="M2.86086 5.03435V0.562149C2.86086 0.249844 3.1107 0 3.42301 0C3.73531 0 3.98516 0.249844 3.98516 0.562149V5.03435C5.28851 5.29669 6.27539 6.45014 6.27539 7.83261C6.27539 9.21507 5.28851 10.3685 3.98516 10.6309V19.4379C3.98516 19.7502 3.73531 20 3.42301 20C3.1107 20 2.86086 19.7502 2.86086 19.4379V10.6267C1.55751 10.3644 0.570622 9.21091 0.570622 7.82844C0.570622 6.44597 1.55334 5.29669 2.86086 5.03435ZM3.42301 9.56069C4.37658 9.56069 5.15109 8.78618 5.15109 7.83261C5.15109 6.87903 4.37658 6.10452 3.42301 6.10452C2.46944 6.10452 1.69492 6.87903 1.69492 7.83261C1.69492 8.78618 2.46944 9.56069 3.42301 9.56069Z" fill="#787F82"/>
</svg>
