<?xml version="1.0" encoding="utf-8"?>
<!-- Generator: Adobe Illustrator 27.1.1, SVG Export Plug-In . SVG Version: 6.00 Build 0)  -->
<svg version="1.1" id="Layer_1" xmlns="http://www.w3.org/2000/svg" xmlns:xlink="http://www.w3.org/1999/xlink" x="0px" y="0px"
	 viewBox="0 0 18 20" style="enable-background:new 0 0 18 20;" xml:space="preserve">
<path d="M4.4,18.1c-1.1,0-2-0.3-2-0.3c-0.1,0-0.2-0.1-0.3-0.3c-0.1-0.1-1.7-3.5,0.6-6l8.1-8.9c1.4-1.5,3.8-1.7,5.4-0.3c0,0,0,0,0,0
	C17,3.1,17.4,4,17.5,5c0.1,1-0.3,1.9-1,2.7l-8.1,8.9C7.2,17.8,5.6,18.1,4.4,18.1z M2.8,17c0.7,0.2,3.3,0.6,4.8-1.1L15.8,7
	c0.5-0.5,0.7-1.2,0.7-1.9c0-0.7-0.4-1.4-0.9-1.9c-1.2-1-3-0.9-4,0.2l-8.1,8.9C1.8,14,2.6,16.3,2.8,17z"/>
<path d="M14.6,9.5c-0.1,0-0.2,0-0.3-0.1l-5-4.2C9.1,5,9.1,4.7,9.2,4.5c0.2-0.2,0.5-0.2,0.7-0.1l5,4.2c0.2,0.2,0.2,0.5,0.1,0.7
	C14.9,9.5,14.7,9.5,14.6,9.5z"/>
</svg>
