<?xml version="1.0" encoding="utf-8"?>
<!-- Generator: Adobe Illustrator 27.2.0, SVG Export Plug-In . SVG Version: 6.00 Build 0)  -->
<svg version="1.1" id="Layer_1" xmlns="http://www.w3.org/2000/svg" xmlns:xlink="http://www.w3.org/1999/xlink" x="0px" y="0px"
	 viewBox="0 0 25 25" style="enable-background:new 0 0 25 25;" xml:space="preserve">
<style type="text/css">
	.st0{fill:#FFFFFF;}
	.st1{fill:#179C78;}
</style>
<g>
	<path class="st0" d="M12.5,0.5L12.5,0.5c6.6,0,12,5.4,12,12l0,0c0,6.6-5.4,12-12,12l0,0c-6.6,0-12-5.4-12-12l0,0
		C0.5,5.9,5.9,0.5,12.5,0.5z"/>
	<g>
		<path class="st1" d="M8.8,18.9c-0.8,0-1.5-0.2-1.5-0.2c-0.1,0-0.2-0.1-0.3-0.3c-0.1-0.1-1.2-2.7,0.5-4.7l5.9-6.7
			c0.5-0.6,1.2-0.9,2-1c0.8-0.1,1.5,0.2,2.1,0.7l0,0c1.2,1.1,1.3,2.9,0.2,4.1l-6,6.7C10.9,18.7,9.7,18.9,8.8,18.9z M7.8,17.8
			c0.6,0.1,2.3,0.4,3.3-0.8l6-6.7c0.7-0.8,0.6-2-0.2-2.7C16.5,7.2,16,7,15.5,7.1c-0.5,0-1,0.3-1.3,0.6l-5.9,6.7
			C7.1,15.6,7.6,17.2,7.8,17.8z"/>
	</g>
	<g>
		<path class="st1" d="M16.2,12.4c-0.1,0-0.2,0-0.3-0.1l-3.6-3.2c-0.2-0.2-0.2-0.5,0-0.7c0.2-0.2,0.5-0.2,0.7,0l3.6,3.2
			c0.2,0.2,0.2,0.5,0,0.7C16.5,12.4,16.4,12.4,16.2,12.4z"/>
	</g>
	<g>
		<path class="st1" d="M12.5,25C5.6,25,0,19.4,0,12.5S5.6,0,12.5,0S25,5.6,25,12.5S19.4,25,12.5,25z M12.5,1C6.2,1,1,6.2,1,12.5
			C1,18.8,6.2,24,12.5,24C18.8,24,24,18.8,24,12.5C24,6.2,18.8,1,12.5,1z"/>
	</g>
</g>
</svg>
