<svg width="28" height="28" viewBox="0 0 28 28" fill="none" xmlns="http://www.w3.org/2000/svg">
<g clip-path="url(#clip0_7024_11320)">
<path d="M19.9662 7.78102C20.528 7.26002 20.8813 6.51687 20.8813 5.69491C20.8813 4.12883 19.6 2.84745 18.0339 2.84745H2.84747V1.89834C2.84747 1.09154 2.23054 0.474609 1.42373 0.474609C0.61693 0.474609 0 1.09154 0 1.89834V15.1865C0 15.9933 0.61693 16.6102 1.42373 16.6102C2.23054 16.6102 2.84747 15.9933 2.84747 15.1865V5.69497H15.1864C15.1864 6.51692 15.5398 7.26007 16.1016 7.78108C11.5218 8.68063 8.06777 12.7155 8.06777 17.5594C8.06777 23.0644 12.5288 27.5255 18.0339 27.5255C23.5389 27.5255 28 23.0644 28 17.5594C28 12.7155 24.546 8.68058 19.9662 7.78102ZM1.89831 15.1865C1.89831 15.4712 1.70849 15.6611 1.42373 15.6611C1.13898 15.6611 0.949156 15.4712 0.949156 15.1865V1.89834C0.949156 1.61359 1.13898 1.42377 1.42373 1.42377C1.70849 1.42377 1.89831 1.61359 1.89831 1.89834V3.32208V5.22039V15.1865ZM2.84747 4.74581V3.79666H15.8983C15.661 4.08141 15.4712 4.36617 15.3288 4.74581H2.84747ZM16.1356 5.69497C16.1356 5.5944 16.1437 5.49563 16.159 5.39916C16.1691 5.37269 16.1772 5.34475 16.1831 5.31527C16.2539 4.97856 16.4043 4.68166 16.6118 4.44164C16.6135 4.43967 16.6152 4.43765 16.6169 4.43568C16.6253 4.42611 16.6339 4.41687 16.6424 4.40752C16.9473 4.07835 17.3666 3.85648 17.8353 3.80716C17.8382 3.80688 17.8411 3.8065 17.844 3.80623C17.8703 3.8036 17.8969 3.80169 17.9235 3.80016C17.9293 3.79983 17.935 3.79934 17.9408 3.79906C17.9717 3.79753 18.0027 3.79671 18.034 3.79671C19.0781 3.79671 19.9323 4.65093 19.9323 5.69502C19.9323 6.73906 19.0781 7.59334 18.034 7.59334C16.9898 7.59323 16.1356 6.73901 16.1356 5.69497ZM18.0339 26.5763C13.0508 26.5763 9.01698 22.5424 9.01698 17.5594C9.01698 12.5764 13.0509 8.54244 18.0339 8.54244C23.0169 8.54244 27.0508 12.5764 27.0508 17.5594C27.0508 22.5424 23.0169 26.5763 18.0339 26.5763Z" fill="#FA7324"/>
<path d="M21.469 22.9854C21.4067 22.9854 21.3237 22.9647 21.2614 22.9441L18.1687 21.3332L15.076 22.9441C14.9307 23.0267 14.7439 23.006 14.6194 22.9028C14.4949 22.7995 14.4118 22.6343 14.4533 22.4897L15.0345 19.0616L12.523 16.6247C12.3985 16.5008 12.357 16.3356 12.4192 16.191C12.4607 16.0258 12.606 15.9225 12.7721 15.9019L16.2384 15.4062L17.7951 12.2879C17.8781 12.1433 18.0234 12.04 18.1895 12.04C18.3555 12.04 18.5008 12.1433 18.5838 12.2879L20.1406 15.4062L23.6069 15.9019C23.7729 15.9225 23.8974 16.0464 23.9597 16.191C24.0012 16.3562 23.9597 16.5214 23.8559 16.6247L21.3029 19.0616L21.8841 22.4897C21.9048 22.6549 21.8426 22.8202 21.718 22.9028C21.635 22.9647 21.552 22.9854 21.469 22.9854ZM13.7684 16.6247L15.8025 18.6072C15.9063 18.7105 15.9478 18.8551 15.927 18.9996L15.4496 21.7876L17.9612 20.4659C18.0857 20.4039 18.231 20.4039 18.3555 20.4659L20.867 21.7876L20.3896 18.9996C20.3689 18.8551 20.4104 18.7105 20.5142 18.6072L22.5483 16.6247L19.7254 16.2117C19.5801 16.191 19.4556 16.1084 19.3933 15.9845L18.1272 13.4443L16.8611 15.9845C16.7988 16.1084 16.6743 16.191 16.529 16.2117L13.7684 16.6247Z" fill="#FA7324"/>
</g>
<defs>
<clipPath id="clip0_7024_11320">
<rect width="28" height="28" fill="white"/>
</clipPath>
</defs>
</svg>
