<svg width="21" height="25" viewBox="0 0 21 25" fill="none" xmlns="http://www.w3.org/2000/svg">
<g clip-path="url(#clip0_7024_12194)">
<path d="M15.7157 0.642483V5.23763C14.1783 4.37355 12.3966 3.87911 10.4999 3.87911C8.60326 3.87911 6.82114 4.37355 5.2832 5.23811V0.642483C5.2832 0.316495 5.55797 0.0521929 5.89682 0.0521929C6.08227 0.0521929 6.25752 0.132385 6.37403 0.271416L8.76686 3.12084L9.93099 0.367742C10.0528 0.080189 10.3834 -0.0650109 10.6859 0.027993L10.731 0.0436518L10.7805 0.0654792C10.9102 0.130012 11.0126 0.236777 11.0679 0.367742L12.2326 3.12084L14.6249 0.271416C14.838 0.0180283 15.2244 -0.0218305 15.488 0.183158C15.6322 0.295616 15.7157 0.464067 15.7157 0.642483Z" fill="#FAB03B"/>
<path d="M10.4998 6.08105C5.60879 6.08105 1.64453 9.9559 1.64453 14.7366C1.64453 18.4525 4.04513 21.6122 7.40888 22.8393L7.53461 20.4497C7.53461 18.7177 6.22581 19.2734 6.22581 18.0605C6.22581 17.382 6.24717 15.967 6.24717 14.906C6.24717 12.076 7.47635 9.33809 7.7788 8.72787C8.08172 8.11765 8.79729 7.45239 8.80506 8.0925C8.80506 9.02159 8.84486 19.8338 8.84486 19.8338H8.84292L8.98419 23.2569C9.47742 23.3404 9.98181 23.3921 10.4993 23.3921C11.1333 23.3921 11.7503 23.3252 12.3455 23.1999L12.6455 17.5371C12.6455 17.5371 12.1237 17.3692 12.0101 17.3155C10.9047 16.8396 10.1012 15.437 10.1012 13.6177C10.1012 11.6323 11.6761 9.92268 13.1994 9.90845H13.2053C14.7286 9.92268 16.3039 11.6328 16.3039 13.6177C16.3039 15.437 15.4995 16.8382 14.3956 17.3155C14.3874 17.3193 13.7553 17.5428 13.7553 17.5428L14.0281 22.6732C17.1613 21.3403 19.3541 18.2902 19.3541 14.7366C19.3541 9.95637 15.3893 6.08153 10.4993 6.08153L10.4998 6.08105Z" fill="#FAB03B"/>
<path d="M11.3982 12.7377C11.4297 12.6115 11.472 12.4914 11.4744 12.4895C11.488 12.4421 11.4622 12.3942 11.4103 12.3629C11.3603 12.3368 11.2986 12.3505 11.2705 12.3928C11.2705 12.3928 11.2103 12.4872 11.1224 12.6262C11.0506 12.7463 10.9447 12.938 10.8729 13.1766C10.8103 13.3859 10.736 13.6644 10.7025 13.9752C10.6879 14.1389 10.6845 14.286 10.6899 14.4384C10.7025 14.6116 10.7297 14.7596 10.7807 14.929C10.9535 15.413 11.0884 15.8804 11.5715 16.3416C11.7244 16.4958 11.8817 16.6002 11.9943 16.6776L12.0346 16.7051C12.0589 16.7207 12.0827 16.7355 12.106 16.7478C12.2006 16.7971 12.2647 16.8147 12.2764 16.8171C12.3239 16.8289 12.3725 16.8066 12.3929 16.7696C12.4113 16.7302 12.3982 16.6809 12.3584 16.6486C12.3584 16.6486 12.3031 16.6021 12.2327 16.5148C12.1841 16.4607 12.1317 16.3843 12.07 16.298C12.0273 16.2353 11.9759 16.1665 11.9293 16.0987C11.6933 15.7471 11.5574 15.2569 11.3695 14.7544C11.3331 14.6452 11.302 14.5043 11.2914 14.3843C11.2768 14.2457 11.269 14.1119 11.269 13.9885C11.2637 13.701 11.2768 13.4542 11.3025 13.254C11.3331 13.0276 11.3564 12.8582 11.3982 12.7382V12.7377Z" fill="#FAB03B"/>
<path d="M15.7163 5.83215C14.1788 4.96807 12.3972 4.47363 10.5005 4.47363C8.6038 4.47363 6.82167 4.96807 5.28374 5.83263C2.12922 7.60492 0 10.9327 0 14.7368C0 20.3944 4.71138 25 10.5005 25C16.2896 25 21 20.3944 21 14.7368C21 10.9322 18.8708 7.60445 15.7163 5.83215ZM10.5005 24.2346C5.14247 24.2346 0.783046 19.9735 0.783046 14.7368C0.783046 11.3403 2.61663 8.35417 5.36675 6.67488C6.85711 5.7643 8.61739 5.23807 10.5005 5.23807C12.3836 5.23807 14.1429 5.7643 15.6332 6.67441C18.3839 8.35322 20.2179 11.3398 20.2179 14.7368C20.2179 19.9735 15.8585 24.2346 10.5005 24.2346Z" fill="#FAB03B"/>
</g>
<defs>
<clipPath id="clip0_7024_12194">
<rect width="21" height="25" fill="white"/>
</clipPath>
</defs>
</svg>
