<svg width="22" height="22" viewBox="0 0 22 22" fill="none" xmlns="http://www.w3.org/2000/svg">
<path d="M17.4167 2.75H4.58333C3.57081 2.75 2.75 3.57081 2.75 4.58333V5.65727C2.75 6.14351 2.94315 6.60982 3.28697 6.95364L8.62969 12.2964C8.97352 12.6402 9.16667 13.1065 9.16667 13.5927V18.3333V18.5952C9.16667 19.1751 9.86783 19.4655 10.2779 19.0555L11 18.3333L12.2964 17.037C12.6402 16.6931 12.8333 16.2268 12.8333 15.7406V13.5927C12.8333 13.1065 13.0265 12.6402 13.3703 12.2964L18.713 6.95364C19.0569 6.60982 19.25 6.14351 19.25 5.65727V4.58333C19.25 3.57081 18.4292 2.75 17.4167 2.75Z" stroke="#179C78" stroke-width="1.5" stroke-linecap="round" stroke-linejoin="round"/>
</svg>
