<?xml version="1.0" encoding="utf-8"?>
<!-- Generator: Adobe Illustrator 27.1.1, SVG Export Plug-In . SVG Version: 6.00 Build 0)  -->
<svg version="1.1" id="Layer_1" xmlns="http://www.w3.org/2000/svg" xmlns:xlink="http://www.w3.org/1999/xlink" x="0px" y="0px"
	 viewBox="0 0 24 24" style="enable-background:new 0 0 24 24;" xml:space="preserve">
<style type="text/css">
	.st0{fill:#787F82;}
</style>
<path class="st0" d="M9.3,22c-0.4,0-0.9-0.2-1.3-0.7l-1.9-2.1l0.5-0.3c0.4-0.2,0.9-0.7,1-1.3c0.1-0.5-0.1-0.9-0.5-1.4
	c-0.4-0.5-0.8-0.7-1.3-0.7c-0.6,0-1.1,0.4-1.4,0.8L4,16.8L2.4,15c-0.3-0.4-0.5-0.9-0.5-1.5c0-0.5,0.2-1.3,1.1-2.1l9.8-8.6
	c0.4-0.4,1-0.5,1.5-0.5c1.5,0.2,2.8,1.9,2.9,2.1l0.3,0.4l-0.4,0.3c0,0-0.9,0.6-0.9,1.5c0,0.4,0.1,0.8,0.5,1.2
	c1.1,1.2,1.9,0.6,2.8-0.1l0.4-0.3l1.6,2c0.4,0.5,0.8,1.8-0.8,3.2l-10.2,8.9C10.2,21.7,9.8,22,9.3,22z M7.5,19.4l1.1,1.3
	c0.5,0.6,1.1,0.1,1.2,0.1l10.1-8.9c1.1-0.9,0.9-1.6,0.8-1.8l-1.2-1.3c-0.8,0.6-2.3,1.5-3.8-0.3c-0.6-0.6-0.8-1.3-0.7-2
	c0.1-0.8,0.6-1.5,1-1.8c-0.5-0.5-1.2-1.3-1.9-1.3c-0.3,0-0.5,0-0.7,0.2l-9.9,8.5C3,12.5,2.8,13,2.8,13.4c0,0.4,0.1,0.6,0.3,0.8l0,0
	l0.8,0.9c0.5-0.4,1.1-0.7,1.8-0.7c0.5,0,1.3,0.2,2.1,1s0.8,1.7,0.8,2.2C8.4,18.4,8,19,7.5,19.4z"/>
<path class="st0" d="M12.5,10c-0.1,0-0.3-0.1-0.4-0.2L11,8.5c-0.2-0.2-0.2-0.5,0-0.7s0.5-0.2,0.7,0l1.2,1.3c0.2,0.2,0.2,0.5,0,0.7
	C12.8,10,12.7,10,12.5,10z"/>
<path class="st0" d="M15.5,13.4c-0.1,0-0.3-0.1-0.4-0.2l-1.2-1.3c-0.2-0.2-0.2-0.5,0-0.7c0.3-0.2,0.6-0.2,0.8,0l1.2,1.3
	c0.2,0.2,0.2,0.5,0,0.7C15.7,13.3,15.6,13.4,15.5,13.4z"/>
</svg>
