<svg width="24" height="24" viewBox="0 0 24 24" fill="none" xmlns="http://www.w3.org/2000/svg">
<g clip-path="url(#clip0_924_9498)">
<path d="M2.331 15.0004H2.277C2.0871 15.0009 1.90408 14.9293 1.76488 14.8001C1.62569 14.6709 1.54067 14.4938 1.527 14.3044C1.5105 14.0389 1.5 13.7704 1.5 13.5004C1.5 13.3015 1.57902 13.1107 1.71967 12.97C1.86032 12.8294 2.05109 12.7504 2.25 12.7504C2.44891 12.7504 2.63968 12.8294 2.78033 12.97C2.92098 13.1107 3 13.3015 3 13.5004C3 13.7344 3.0105 13.9669 3.027 14.1964C3.03435 14.2949 3.02216 14.3939 2.99112 14.4878C2.96008 14.5816 2.9108 14.6683 2.84613 14.743C2.78145 14.8178 2.70264 14.8789 2.61424 14.9231C2.52584 14.9673 2.42958 14.9935 2.331 15.0004ZM3.822 17.2639C3.73879 17.0833 3.5873 16.9432 3.40082 16.8743C3.21434 16.8054 3.00812 16.8133 2.8275 16.8964C2.64694 16.9796 2.50681 17.1311 2.4379 17.3175C2.36899 17.504 2.37694 17.7102 2.46 17.8909C2.71951 18.4535 3.02821 18.9921 3.3825 19.5004C3.45175 19.5992 3.54382 19.6798 3.65088 19.7354C3.75795 19.791 3.87685 19.82 3.9975 19.8199C4.15103 19.8204 4.30094 19.7732 4.4265 19.6849C4.50808 19.6285 4.57768 19.5565 4.63125 19.473C4.68483 19.3896 4.72132 19.2963 4.73862 19.1987C4.75592 19.101 4.75368 19.0009 4.73203 18.9041C4.71038 18.8074 4.66975 18.7158 4.6125 18.6349C4.30869 18.2018 4.04414 17.7425 3.822 17.2624V17.2639ZM8.226 21.6739C7.74439 21.4519 7.28356 21.1873 6.849 20.8834C6.76812 20.826 6.67667 20.7853 6.57995 20.7635C6.48323 20.7418 6.38315 20.7394 6.28551 20.7566C6.18787 20.7737 6.0946 20.8101 6.01109 20.8635C5.92758 20.9169 5.85549 20.9864 5.799 21.0679C5.7416 21.1487 5.70078 21.24 5.6789 21.3367C5.65702 21.4333 5.65452 21.5334 5.67153 21.631C5.68855 21.7287 5.72475 21.822 5.77804 21.9055C5.83133 21.9891 5.90065 22.0613 5.982 22.1179C6.49009 22.4737 7.02928 22.783 7.593 23.0419C7.69111 23.0878 7.79818 23.1113 7.9065 23.1109C8.04986 23.1108 8.19019 23.0697 8.31089 22.9923C8.43158 22.9149 8.52758 22.8046 8.5875 22.6744C8.62999 22.5849 8.65435 22.4879 8.65916 22.389C8.66397 22.2901 8.64915 22.1912 8.61554 22.098C8.58193 22.0049 8.5302 21.9193 8.46334 21.8462C8.39648 21.7732 8.31582 21.7141 8.226 21.6724V21.6739ZM12 3.00036H11.5605L13.281 1.28136C13.3508 1.2117 13.4063 1.12893 13.4441 1.03781C13.4819 0.946697 13.5013 0.849015 13.5013 0.750364C13.5013 0.651713 13.4819 0.554031 13.4441 0.462914C13.4063 0.371796 13.3508 0.289033 13.281 0.219364C13.2113 0.149519 13.1286 0.094105 13.0374 0.0562953C12.9463 0.0184856 12.8487 -0.000976563 12.75 -0.000976562C12.6513 -0.000976562 12.5537 0.0184856 12.4626 0.0562953C12.3714 0.094105 12.2887 0.149519 12.219 0.219364L9.219 3.21936C9.14943 3.28971 9.09394 3.3727 9.0555 3.46386C8.98047 3.6475 8.98047 3.85323 9.0555 4.03686C9.09394 4.12803 9.14943 4.21102 9.219 4.28136L12.219 7.28136C12.2888 7.35097 12.3716 7.40613 12.4627 7.44371C12.5538 7.48129 12.6514 7.50054 12.75 7.50036C12.8486 7.50054 12.9462 7.48129 13.0373 7.44371C13.1284 7.40613 13.2112 7.35097 13.281 7.28136C13.3508 7.2117 13.4063 7.12893 13.4441 7.03781C13.4819 6.9467 13.5013 6.84901 13.5013 6.75036C13.5013 6.65171 13.4819 6.55403 13.4441 6.46291C13.4063 6.3718 13.3508 6.28903 13.281 6.21936L11.5605 4.50036H12C14.3862 4.50275 16.674 5.45172 18.3613 7.13903C20.0486 8.82635 20.9976 11.1141 21 13.5004C20.9976 15.8866 20.0486 18.1744 18.3613 19.8617C16.674 21.549 14.3862 22.498 12 22.5004C11.7675 22.5004 11.535 22.4914 11.307 22.4734C11.1104 22.4646 10.9178 22.5311 10.7684 22.6592C10.6191 22.7874 10.5242 22.9677 10.503 23.1634C10.4877 23.3617 10.5518 23.558 10.6812 23.709C10.8106 23.8601 10.9947 23.9535 11.193 23.9689C11.46 23.9899 11.7285 24.0004 12 24.0004C14.7838 23.9972 17.4527 22.8899 19.4211 20.9215C21.3896 18.953 22.4968 16.2842 22.5 13.5004C22.4968 10.7166 21.3896 8.0477 19.4211 6.07925C17.4527 4.11081 14.7838 3.00354 12 3.00036ZM10.719 17.7814C10.7888 17.851 10.8716 17.9061 10.9627 17.9437C11.0538 17.9813 11.1514 18.0005 11.25 18.0004C11.3486 18.0005 11.4462 17.9813 11.5373 17.9437C11.6284 17.9061 11.7112 17.851 11.781 17.7814L17.781 11.7814C17.8508 11.7117 17.9063 11.6289 17.9441 11.5378C17.9819 11.4467 18.0013 11.349 18.0013 11.2504C18.0013 11.1517 17.9819 11.054 17.9441 10.9629C17.9063 10.8718 17.8508 10.789 17.781 10.7194C17.7113 10.6495 17.6286 10.5941 17.5374 10.5563C17.4463 10.5185 17.3487 10.499 17.25 10.499C17.1513 10.499 17.0537 10.5185 16.9626 10.5563C16.8714 10.5941 16.7887 10.6495 16.719 10.7194L11.25 16.1899L8.781 13.7194C8.71133 13.6495 8.62857 13.5941 8.53745 13.5563C8.44633 13.5185 8.34865 13.499 8.25 13.499C8.15135 13.499 8.05367 13.5185 7.96255 13.5563C7.87143 13.5941 7.78867 13.6495 7.719 13.7194C7.64916 13.789 7.59374 13.8718 7.55593 13.9629C7.51812 14.054 7.49866 14.1517 7.49866 14.2504C7.49866 14.349 7.51812 14.4467 7.55593 14.5378C7.59374 14.6289 7.64916 14.7117 7.719 14.7814L10.719 17.7814Z" fill="#787F82"/>
</g>
<defs>
<clipPath id="clip0_924_9498">
<rect width="24" height="24" fill="white"/>
</clipPath>
</defs>
</svg>
