<?xml version="1.0" encoding="utf-8"?>
<!-- Generator: Adobe Illustrator 27.8.1, SVG Export Plug-In . SVG Version: 6.00 Build 0)  -->
<svg version="1.1" id="Layer_1" xmlns="http://www.w3.org/2000/svg" xmlns:xlink="http://www.w3.org/1999/xlink" x="0px" y="0px"
	 viewBox="0 0 17 17" style="enable-background:new 0 0 17 17;" xml:space="preserve">
<style type="text/css">
	.st0{fill:#179C78;}
</style>
<g>
	<path class="st0" d="M11.8,16.4h-7c-2.4,0-4.4-2-4.4-4.4V5c0-2.4,2-4.4,4.4-4.4h7c2.4,0,4.4,2,4.4,4.4v7
		C16.2,14.4,14.2,16.4,11.8,16.4z M4.8,1.4C2.8,1.4,1.2,3,1.2,5v7c0,2,1.6,3.6,3.6,3.6h7c2,0,3.6-1.6,3.6-3.6V5c0-2-1.6-3.6-3.6-3.6
		H4.8z"/>
	<path class="st0" d="M8.3,12.4c-2.2,0-3.9-1.8-3.9-3.9s1.7-3.9,3.9-3.9s3.9,1.7,3.9,3.9S10.4,12.4,8.3,12.4z M8.3,5.4
		c-1.7,0-3.1,1.4-3.1,3.1c0,1.7,1.4,3.1,3.1,3.1c1.7,0,3.1-1.4,3.1-3.1C11.4,6.8,10,5.4,8.3,5.4z"/>
	<path class="st0" d="M12.3,4.9c-0.5,0-0.9-0.4-0.9-0.9s0.4-0.9,0.9-0.9s0.9,0.4,0.9,0.9S12.8,4.9,12.3,4.9z M12.3,3.9
		c-0.1,0-0.1,0-0.1,0.1c0,0.1,0.2,0.1,0.2,0C12.4,3.9,12.3,3.9,12.3,3.9z"/>
</g>
</svg>
