<?xml version="1.0" encoding="utf-8"?>
<!-- Generator: Adobe Illustrator 27.1.1, SVG Export Plug-In . SVG Version: 6.00 Build 0)  -->
<svg version="1.1" id="Layer_1" xmlns="http://www.w3.org/2000/svg" xmlns:xlink="http://www.w3.org/1999/xlink" x="0px" y="0px"
	 viewBox="0 0 24 24" style="enable-background:new 0 0 24 24;" xml:space="preserve">
<style type="text/css">
	.st0{fill:#787F82;}
</style>
<path class="st0" d="M20,22H4c-1.1,0-2-0.9-2-2V4c0-1.1,0.9-2,2-2h16c1.1,0,2,0.9,2,2v16C22,21.1,21.1,22,20,22z M4,3
	C3.4,3,3,3.4,3,4v16c0,0.6,0.4,1,1,1h16c0.6,0,1-0.4,1-1V4c0-0.6-0.4-1-1-1H4z"/>
<path class="st0" d="M17.2,8H6C5.3,8,4.8,7.5,4.8,6.8S5.3,5.6,6,5.6h11.2c0.7,0,1.2,0.5,1.2,1.2S17.9,8,17.2,8z M6,6.6
	c-0.1,0-0.2,0.1-0.2,0.2S5.9,7,6,7h11.2c0.1,0,0.2-0.1,0.2-0.2s-0.1-0.2-0.2-0.2C17.2,6.6,6,6.6,6,6.6z"/>
<path class="st0" d="M17.6,11.3H8c-0.3,0-0.5-0.2-0.5-0.5s0.2-0.5,0.5-0.5h9.6c0.3,0,0.5,0.2,0.5,0.5S17.9,11.3,17.6,11.3z"/>
<path class="st0" d="M6.4,11.3H5.6c-0.3,0-0.5-0.2-0.5-0.5s0.2-0.5,0.5-0.5h0.8c0.3,0,0.5,0.2,0.5,0.5S6.7,11.3,6.4,11.3z"/>
<path class="st0" d="M17.6,13.7H8c-0.3,0-0.5-0.2-0.5-0.5s0.2-0.5,0.5-0.5h9.6c0.3,0,0.5,0.2,0.5,0.5S17.9,13.7,17.6,13.7z"/>
<path class="st0" d="M6.4,13.7H5.6c-0.3,0-0.5-0.2-0.5-0.5s0.2-0.5,0.5-0.5h0.8c0.3,0,0.5,0.2,0.5,0.5S6.7,13.7,6.4,13.7z"/>
<path class="st0" d="M17.6,16.5H8c-0.3,0-0.5-0.2-0.5-0.5c0-0.3,0.2-0.5,0.5-0.5h9.6c0.3,0,0.5,0.2,0.5,0.5
	C18.1,16.3,17.9,16.5,17.6,16.5z"/>
<path class="st0" d="M6.4,16.5H5.6c-0.3,0-0.5-0.2-0.5-0.5c0-0.3,0.2-0.5,0.5-0.5h0.8c0.3,0,0.5,0.2,0.5,0.5
	C6.9,16.3,6.7,16.5,6.4,16.5z"/>
<path class="st0" d="M17.6,18.9H8c-0.3,0-0.5-0.2-0.5-0.5s0.2-0.5,0.5-0.5h9.6c0.3,0,0.5,0.2,0.5,0.5S17.9,18.9,17.6,18.9z"/>
<path class="st0" d="M6.4,18.9H5.6c-0.3,0-0.5-0.2-0.5-0.5s0.2-0.5,0.5-0.5h0.8c0.3,0,0.5,0.2,0.5,0.5S6.7,18.9,6.4,18.9z"/>
</svg>
