<svg width="12" height="12" viewBox="0 0 12 12" fill="none" xmlns="http://www.w3.org/2000/svg">
<path d="M5.99997 0C3.49014 0 1.44824 2.0419 1.44824 4.55173C1.44824 7.00235 5.66638 11.7311 5.84601 11.9313C5.8852 11.9749 5.94116 12 5.99997 12C6.05877 12 6.11474 11.9749 6.15393 11.9313C6.33356 11.7311 10.5517 7.00235 10.5517 4.55173C10.5517 2.0419 8.5098 0 5.99997 0ZM5.99997 11.4793C5.23239 10.595 1.86203 6.59463 1.86203 4.55173C1.86203 2.26999 3.71823 0.413789 5.99997 0.413789C8.28168 0.413789 10.1379 2.26999 10.1379 4.55173C10.1379 6.59402 6.76755 10.5948 5.99997 11.4793Z" fill="#179C78"/>
<path d="M6.00034 1.65527C4.63126 1.65527 3.51758 2.76895 3.51758 4.13803C3.51758 5.50711 4.63126 6.62079 6.00034 6.62079C7.36941 6.62079 8.48309 5.50711 8.48309 4.13803C8.48309 2.76895 7.36941 1.65527 6.00034 1.65527ZM6.00034 6.207C4.85959 6.207 3.93137 5.27881 3.93137 4.13803C3.93137 2.99728 4.85956 2.06906 6.00034 2.06906C7.14111 2.06906 8.06931 2.99726 8.06931 4.13803C8.06931 5.27878 7.14109 6.207 6.00034 6.207Z" fill="#179C78"/>
<path d="M7.16922 3.36022C7.08273 3.28588 6.95202 3.29556 6.87766 3.38265L5.78155 4.66122L5.11197 3.99163C5.03116 3.91082 4.90021 3.91082 4.8194 3.99163C4.73859 4.07244 4.73859 4.20337 4.8194 4.2842L5.64698 5.11178C5.68577 5.15057 5.7385 5.17239 5.79325 5.17239C5.79588 5.17239 5.7985 5.17239 5.80113 5.17218C5.85871 5.16995 5.91285 5.14389 5.95023 5.10004L7.19162 3.65176C7.2662 3.56509 7.2561 3.43457 7.16922 3.36022Z" fill="#179C78"/>
</svg>
