<svg width="101" height="76" viewBox="0 0 101 76" fill="none" xmlns="http://www.w3.org/2000/svg">
<mask id="path-1-inside-1_8173_10489" fill="white">
<path d="M48.3711 18.1147C47.6906 18.0654 46.984 18.0391 46.2774 18.0391C45.5708 18.0391 44.8674 18.0654 44.1869 18.1147C35.6603 18.7163 27.6486 22.458 21.6708 28.6304C15.693 34.8028 12.1647 42.9767 11.7549 51.6025C11.7321 52.2605 11.7061 52.8757 11.7061 53.5238V55.6754H57.5439C57.3252 54.412 57.2163 53.1318 57.2183 51.8493V51.3755H15.988C16.4608 43.5618 19.849 36.2201 25.4692 30.8313C31.0893 25.4425 38.523 22.4076 46.2709 22.3389C50.5579 22.3431 54.7945 23.2728 58.6969 25.0657C62.5993 26.8587 66.0775 29.4735 68.8984 32.735C70.2444 32.0526 71.6652 31.5326 73.1315 31.1855C70.1408 27.3743 66.3904 24.2412 62.1236 21.9894C57.8569 19.7376 53.1691 18.4175 48.3646 18.1147"/>
</mask>
<path d="M48.3711 18.1147C47.6906 18.0654 46.984 18.0391 46.2774 18.0391C45.5708 18.0391 44.8674 18.0654 44.1869 18.1147C35.6603 18.7163 27.6486 22.458 21.6708 28.6304C15.693 34.8028 12.1647 42.9767 11.7549 51.6025C11.7321 52.2605 11.7061 52.8757 11.7061 53.5238V55.6754H57.5439C57.3252 54.412 57.2163 53.1318 57.2183 51.8493V51.3755H15.988C16.4608 43.5618 19.849 36.2201 25.4692 30.8313C31.0893 25.4425 38.523 22.4076 46.2709 22.3389C50.5579 22.3431 54.7945 23.2728 58.6969 25.0657C62.5993 26.8587 66.0775 29.4735 68.8984 32.735C70.2444 32.0526 71.6652 31.5326 73.1315 31.1855C70.1408 27.3743 66.3904 24.2412 62.1236 21.9894C57.8569 19.7376 53.1691 18.4175 48.3646 18.1147" fill="#E6E6E6"/>
<path d="M44.1869 18.1147L44.2573 19.1123L44.2592 19.1121L44.1869 18.1147ZM11.7549 51.6025L10.7559 51.555L10.7555 51.5679L11.7549 51.6025ZM11.7061 55.6754H10.7061V56.6754H11.7061V55.6754ZM57.5439 55.6754V56.6754H58.7319L58.5293 55.5048L57.5439 55.6754ZM57.2183 51.8493L58.2183 51.8508V51.8493H57.2183ZM57.2183 51.3755H58.2183V50.3755H57.2183V51.3755ZM15.988 51.3755L14.9898 51.3151L14.9256 52.3755H15.988V51.3755ZM46.2709 22.3389L46.2718 21.3389L46.262 21.339L46.2709 22.3389ZM68.8984 32.735L68.142 33.3892L68.6533 33.9804L69.3505 33.6269L68.8984 32.735ZM73.1315 31.1855L73.3618 32.1586L74.8835 31.7983L73.9182 30.5681L73.1315 31.1855ZM48.4435 17.1173C47.7391 17.0663 47.0084 17.0391 46.2774 17.0391V19.0391C46.9596 19.0391 47.6421 19.0645 48.2988 19.1121L48.4435 17.1173ZM46.2774 17.0391C45.5463 17.0391 44.8188 17.0663 44.1146 17.1173L44.2592 19.1121C44.9161 19.0645 45.5953 19.0391 46.2774 19.0391V17.0391ZM44.1165 17.1172C35.3427 17.7362 27.1007 21.5863 20.9525 27.9347L22.3892 29.3261C28.1965 23.3296 35.9779 19.6964 44.2573 19.1123L44.1165 17.1172ZM20.9525 27.9347C14.8045 34.2828 11.1773 42.6876 10.756 51.555L12.7538 51.65C13.1521 43.2659 16.5816 35.3227 22.3892 29.3261L20.9525 27.9347ZM10.7555 51.5679C10.7331 52.2154 10.7061 52.8536 10.7061 53.5238H12.7061C12.7061 52.8978 12.7311 52.3056 12.7543 51.6371L10.7555 51.5679ZM10.7061 53.5238V55.6754H12.7061V53.5238H10.7061ZM11.7061 56.6754H57.5439V54.6754H11.7061V56.6754ZM58.5293 55.5048C58.3204 54.2983 58.2164 53.0757 58.2183 51.8508L56.2183 51.8477C56.2162 53.1879 56.33 54.5257 56.5586 55.846L58.5293 55.5048ZM58.2183 51.8493V51.3755H56.2183V51.8493H58.2183ZM57.2183 50.3755H15.988V52.3755H57.2183V50.3755ZM16.9862 51.4359C17.4439 43.8719 20.7238 36.7668 26.1612 31.5531L24.7771 30.1095C18.9743 35.6735 15.4778 43.2518 14.9898 51.3151L16.9862 51.4359ZM26.1612 31.5531C31.5984 26.3397 38.7882 23.4053 46.2797 23.3389L46.262 21.339C38.2579 21.4099 30.5801 24.5452 24.7771 30.1095L26.1612 31.5531ZM46.2699 23.3389C50.4128 23.3429 54.5074 24.2414 58.2794 25.9744L59.1144 24.157C55.0815 22.3042 50.7029 21.3432 46.2718 21.3389L46.2699 23.3389ZM58.2794 25.9744C62.0515 27.7074 65.4142 30.2353 68.142 33.3892L69.6547 32.0808C66.7408 28.7117 63.1472 26.0099 59.1144 24.157L58.2794 25.9744ZM69.3505 33.6269C70.6262 32.9802 71.9726 32.4874 73.3618 32.1586L72.9011 30.2124C71.3578 30.5777 69.8626 31.125 68.4462 31.8431L69.3505 33.6269ZM73.9182 30.5681C70.8412 26.647 66.9819 23.4226 62.5904 21.105L61.6569 22.8738C65.7989 25.0597 69.4405 28.1017 72.3448 31.8028L73.9182 30.5681ZM62.5904 21.105C58.1988 18.7873 53.3734 17.4284 48.4275 17.1167L48.3017 19.1128C52.9648 19.4066 57.5149 20.6878 61.6569 22.8738L62.5904 21.105Z" fill="#E6E6E6" mask="url(#path-1-inside-1_8173_10489)"/>
<mask id="path-3-inside-2_8173_10489" fill="white">
<path d="M57.5902 55.9274H2.14325C1.57586 55.9274 1.03171 55.6997 0.630504 55.2943C0.2293 54.889 0.00390625 54.3392 0.00390625 53.7659C0.00390625 53.1927 0.2293 52.6429 0.630504 52.2376C1.03171 51.8322 1.57586 51.6045 2.14325 51.6045H57.1995V51.8545C57.2028 53.1364 57.3172 54.4156 57.5414 55.6774C57.5339 55.7637 57.5508 55.8504 57.5902 55.9274"/>
</mask>
<path d="M57.5902 55.9274H2.14325C1.57586 55.9274 1.03171 55.6997 0.630504 55.2943C0.2293 54.889 0.00390625 54.3392 0.00390625 53.7659C0.00390625 53.1927 0.2293 52.6429 0.630504 52.2376C1.03171 51.8322 1.57586 51.6045 2.14325 51.6045H57.1995V51.8545C57.2028 53.1364 57.3172 54.4156 57.5414 55.6774C57.5339 55.7637 57.5508 55.8504 57.5902 55.9274" fill="#E6E6E6"/>
<path d="M2.14325 55.9274V54.9274V55.9274ZM0.00390625 53.7659H-0.996094H0.00390625ZM57.1995 51.6045H58.1995V50.6045H57.1995V51.6045ZM57.1995 51.8545H56.1995L56.1995 51.8571L57.1995 51.8545ZM57.5414 55.6774L58.5376 55.7639L58.5491 55.6324L58.526 55.5025L57.5414 55.6774ZM57.5902 54.9274H2.14325V56.9274H57.5902V54.9274ZM2.14325 54.9274C1.84441 54.9274 1.55572 54.8076 1.34124 54.5909L-0.0802296 55.9978C0.507699 56.5918 1.3073 56.9274 2.14325 56.9274V54.9274ZM1.34124 54.5909C1.12642 54.3738 1.00391 54.0773 1.00391 53.7659H-0.996094C-0.996094 54.6011 -0.667815 55.4041 -0.0802296 55.9978L1.34124 54.5909ZM1.00391 53.7659C1.00391 53.4546 1.12642 53.1581 1.34124 52.941L-0.0802296 51.5341C-0.667815 52.1278 -0.996094 52.9308 -0.996094 53.7659H1.00391ZM1.34124 52.941C1.55571 52.7243 1.84441 52.6045 2.14325 52.6045V50.6045C1.3073 50.6045 0.507701 50.9401 -0.0802296 51.5341L1.34124 52.941ZM2.14325 52.6045H57.1995V50.6045H2.14325V52.6045ZM56.1995 51.6045V51.8545H58.1995V51.6045H56.1995ZM56.1995 51.8571C56.203 53.1968 56.3226 54.5336 56.5568 55.8523L58.526 55.5025C58.3119 54.2976 58.2027 53.0761 58.1995 51.8519L56.1995 51.8571ZM56.5451 55.5908C56.5214 55.8638 56.5749 56.1385 56.7001 56.383L58.4804 55.4718C58.5268 55.5624 58.5463 55.6636 58.5376 55.7639L56.5451 55.5908Z" fill="#E6E6E6" mask="url(#path-3-inside-2_8173_10489)"/>
<mask id="path-5-inside-3_8173_10489" fill="white">
<path d="M61.0231 64.1218H10.0762V59.8252H58.7372C59.3146 61.3488 60.0804 62.7925 61.0165 64.1218"/>
</mask>
<path d="M61.0231 64.1218H10.0762V59.8252H58.7372C59.3146 61.3488 60.0804 62.7925 61.0165 64.1218" fill="#E6E6E6"/>
<path d="M10.0762 64.1218H9.07617V65.1218H10.0762V64.1218ZM10.0762 59.8252V58.8252H9.07617V59.8252H10.0762ZM58.7372 59.8252L59.6723 59.4708L59.4276 58.8252H58.7372V59.8252ZM61.0231 63.1218H10.0762V65.1218H61.0231V63.1218ZM11.0762 64.1218V59.8252H9.07617V64.1218H11.0762ZM10.0762 60.8252H58.7372V58.8252H10.0762V60.8252ZM57.8021 60.1796C58.4091 61.7814 59.2144 63.2995 60.1989 64.6975L61.8342 63.546C60.9465 62.2854 60.22 60.9162 59.6723 59.4708L57.8021 60.1796Z" fill="#E6E6E6" mask="url(#path-5-inside-3_8173_10489)"/>
<path d="M46.2846 21.8393L46.0177 21.8413C45.6894 21.7833 45.384 21.623 45.1463 21.3787C44.846 21.0702 44.6784 20.6527 44.6817 20.2178H44.6817V20.214V15.4963C44.6993 14.2016 45.1962 12.9615 46.0729 12.0199C46.683 11.4262 47.4078 10.9665 48.2015 10.6695C48.9988 10.3712 49.8485 10.2433 50.6969 10.294L50.7114 10.2949L50.7259 10.2949C50.9375 10.2952 51.147 10.3378 51.3425 10.4203C51.538 10.5029 51.7158 10.6238 51.8654 10.7764C52.0151 10.929 52.1337 11.1103 52.2141 11.3099C52.2945 11.5096 52.3352 11.7235 52.3335 11.9394L52.3334 11.9394L52.3335 11.947C52.3352 12.162 52.2949 12.3752 52.215 12.5742C52.1352 12.7732 52.0175 12.954 51.8689 13.1065C51.7203 13.259 51.5437 13.3801 51.3494 13.4632C51.1556 13.5461 50.9478 13.5896 50.7377 13.5915C49.6776 13.5918 48.959 13.8238 48.4971 14.2017C48.0243 14.5885 47.8822 15.0777 47.8822 15.4436L47.8822 20.191L47.8822 20.1948C47.8839 20.4098 47.8436 20.6229 47.7638 20.8219C47.684 21.0209 47.5663 21.2018 47.4177 21.3543C47.2691 21.5067 47.0925 21.6279 46.8981 21.711C46.7038 21.7941 46.4953 21.8376 46.2846 21.8393Z" fill="#E6E6E6" stroke="#E6E6E6"/>
<path d="M47.8875 20.191L47.8875 20.1948C47.8891 20.4098 47.8488 20.6229 47.769 20.8219C47.6892 21.0209 47.5715 21.2018 47.4229 21.3543C47.2743 21.5067 47.0977 21.6279 46.9034 21.711C46.7909 21.7591 46.6738 21.7939 46.5542 21.815L46.2846 21.813C46.0739 21.8113 45.8654 21.7678 45.6711 21.6847C45.4767 21.6015 45.3001 21.4804 45.1515 21.3279C45.0029 21.1755 44.8852 20.9946 44.8054 20.7956C44.7256 20.5966 44.6853 20.3835 44.6869 20.1685H44.6869V20.1646V15.4436V15.4323L44.6864 15.4209C44.6703 15.067 44.5372 14.5798 44.0632 14.1928C43.6024 13.8165 42.8877 13.5915 41.8294 13.5915C41.3998 13.5915 40.9867 13.4191 40.6813 13.1105C40.3757 12.8018 40.2031 12.382 40.2031 11.9432C40.2031 11.5044 40.3757 11.0846 40.6813 10.7759C40.9867 10.4673 41.3998 10.2949 41.8294 10.2949H41.8444L41.8593 10.294C42.7077 10.2433 43.5574 10.3712 44.3546 10.6695C45.1487 10.9666 45.8738 11.4266 46.4841 12.0207C47.3555 12.9477 47.8561 14.1695 47.8875 15.4496L47.8875 20.191Z" fill="#E6E6E6" stroke="#E6E6E6"/>
<path d="M25.3418 44.5364L25.3335 44.5636L25.3283 44.5915C25.2599 44.9611 25.0663 45.2941 24.7821 45.5337C24.4984 45.7729 24.1419 45.9043 23.7739 45.9064H23.755C23.6467 45.9021 23.539 45.889 23.4328 45.8672L23.4324 45.8672C23.0128 45.7814 22.6426 45.5304 22.4043 45.1676C22.1693 44.8099 22.082 44.3728 22.1615 43.9504C23.5701 39.04 26.6037 34.7675 30.7544 31.8463L30.7627 31.8404L30.7708 31.8342C30.9375 31.7064 31.1274 31.6135 31.3294 31.5606C31.5313 31.5078 31.7416 31.496 31.948 31.5259C32.1544 31.5558 32.3532 31.6268 32.5327 31.735C32.7122 31.8433 32.869 31.9867 32.9938 32.1572L32.9949 32.1586C33.2551 32.5113 33.368 32.9541 33.3082 33.3913C33.2491 33.8239 33.0257 34.2148 32.6875 34.482C29.182 36.897 26.5924 40.4421 25.3418 44.5364Z" fill="#E6E6E6" stroke="#E6E6E6"/>
<path d="M38.1136 31.0367L37.7611 31.026C37.5714 30.9842 37.3897 30.9075 37.2255 30.7984C36.9658 30.6258 36.7609 30.3796 36.6369 30.0897L36.637 30.0897L36.6333 30.0815C36.4541 29.6825 36.4381 29.2277 36.5889 28.8167C36.7397 28.4057 37.0443 28.0732 37.4349 27.8899L37.4349 27.8899L37.436 27.8894C38.3204 27.4717 39.2087 27.1023 40.1434 26.7583L40.1434 26.7584L40.1519 26.7551C40.3486 26.6786 40.5583 26.643 40.7686 26.6504C40.9789 26.6577 41.1857 26.7077 41.3767 26.7977C41.5678 26.8878 41.7393 27.0159 41.8808 27.1749C42.0224 27.3338 42.131 27.5203 42.2 27.7232L42.2023 27.7301L42.2049 27.737C42.2801 27.9386 42.3151 28.1534 42.308 28.369C42.3008 28.5845 42.2515 28.7964 42.1631 28.9924C42.0747 29.1883 41.949 29.3644 41.7935 29.5105C41.638 29.6567 41.4557 29.77 41.2573 29.8444L41.2573 29.8444L41.255 29.8453C40.4024 30.1695 39.5357 30.4993 38.7319 30.885L38.7215 30.89L38.7114 30.8954C38.5274 30.9944 38.3213 31.043 38.1136 31.0367Z" fill="#E6E6E6" stroke="#E6E6E6"/>
<path d="M77.8767 75.0955L77.873 75.0955C73.3098 75.1703 68.8275 73.8715 64.9965 71.3639C61.1654 68.8563 58.1588 65.2531 56.3601 61.0123C54.5614 56.7715 54.0523 52.0856 54.8978 47.5512C55.7434 43.0168 57.9051 38.8399 61.1072 35.5519C64.3091 32.264 68.4064 30.0137 72.8771 29.0867C77.3478 28.1597 81.9904 28.5976 86.2142 30.3451C90.4381 32.0925 94.0526 35.0707 96.597 38.9013C99.1414 42.7319 100.5 47.2414 100.5 51.8556L100.5 51.8592C100.545 57.9725 98.1857 63.8526 93.9434 68.2088C89.7012 72.5649 83.9226 75.0411 77.8767 75.0955ZM77.8879 32.6132C74.1042 32.5465 70.3867 33.619 67.209 35.6936C64.0307 37.7685 61.5364 40.7517 60.043 44.2627C58.5496 47.7735 58.1244 51.6537 58.8213 55.4093C59.5182 59.1648 61.3058 62.6265 63.9572 65.3532C66.6087 68.08 70.0041 69.9483 73.7113 70.7193C77.4185 71.4904 81.269 71.1291 84.772 69.6818C88.275 68.2344 91.2714 65.7668 93.3804 62.5939C95.4889 59.4216 96.6151 55.6876 96.616 51.8673C96.6573 46.8082 94.7093 41.9383 91.1984 38.3278C87.6872 34.717 82.9 32.661 77.8879 32.6132Z" fill="#E6E6E6" stroke="#E6E6E6"/>
<path d="M77.4736 38.7822V51.6935C77.4736 51.6935 80.8491 55.069 84.5162 58.7361" stroke="#E6E6E6" stroke-width="5" stroke-linecap="round"/>
<path d="M26.7902 13.7547L26.7919 13.754C27.0321 13.6513 27.3031 13.6484 27.5455 13.7458C27.788 13.8434 27.982 14.0332 28.0846 14.2738C28.1873 14.5146 28.1902 14.7865 28.0928 15.0295C27.9953 15.2723 27.8055 15.4663 27.5653 15.569C27.0451 15.7908 26.5157 16.0112 25.9776 16.2352C25.856 16.2859 25.7338 16.3368 25.6113 16.3879L25.5716 16.4043C21.1198 18.2506 16.467 20.1803 13.1828 23.7974C9.857 27.4603 7.98665 32.7841 8.92587 41.298C8.9544 41.5584 8.87842 41.8195 8.71478 42.0239C8.5512 42.2282 8.31336 42.359 8.05364 42.3878L8.04474 42.3888L8.03588 42.3901C8.00218 42.3951 7.97229 42.397 7.94033 42.397C7.69777 42.3968 7.46387 42.3071 7.28325 42.145C7.10257 41.9829 6.98779 41.7597 6.96102 41.5181C5.92331 32.1091 8.18539 26.3332 11.7499 22.4423C15.3436 18.5194 20.3105 16.4494 24.8521 14.5642C25.5066 14.293 26.1517 14.0248 26.7902 13.7547Z" fill="#E6E6E6" stroke="#E6E6E6"/>
<path d="M3.64183 28.7979L3.63796 28.798C3.56567 28.7984 3.49347 28.7903 3.42322 28.774L3.42086 28.7734C3.16641 28.7156 2.94523 28.5588 2.80595 28.3374C2.66665 28.116 2.62088 27.8482 2.67878 27.5931L2.67881 27.593C4.92907 17.6648 12.5139 14.1224 18.807 11.2073L18.8075 11.2071C21.744 9.84337 24.1896 8.65238 25.9005 7.19399C27.6437 5.70809 28.6408 3.93147 28.675 1.43599C28.6883 1.18229 28.7989 0.943425 28.9837 0.768955C29.1702 0.592974 29.4176 0.496601 29.6737 0.500092C29.9298 0.503583 30.1745 0.606657 30.3561 0.787634C30.5361 0.967008 30.6401 1.20898 30.6464 1.46318C30.6024 4.69307 29.2968 6.89109 27.2982 8.62444C25.2685 10.3846 22.5361 11.657 19.6369 13.0032L19.8475 13.4567L19.6369 13.0032L19.5893 13.0253C13.3407 15.9267 6.64278 19.0368 4.59962 28.042C4.54827 28.2575 4.42594 28.4492 4.25248 28.5863C4.0784 28.7239 3.86327 28.7984 3.64183 28.7979Z" fill="#E6E6E6" stroke="#E6E6E6"/>
<path d="M12.8589 7.79102L12.8666 7.78784L12.8741 7.78441C14.9062 6.86327 16.8316 5.72292 18.6163 4.3833L18.6163 4.38333L18.6212 4.37956C18.8246 4.22296 19.0809 4.15188 19.3357 4.18132C19.5904 4.21076 19.8238 4.33841 19.9862 4.53737C20.1487 4.73637 20.2273 4.99087 20.2054 5.24706C20.1839 5.49848 20.0673 5.73177 19.8801 5.89939C17.9918 7.33176 15.9499 8.54922 13.7925 9.52937L13.7837 9.53336L13.7751 9.53769L13.7488 9.55087C10.1633 11.3498 6.34389 13.2662 3.42199 17.5532L3.42074 17.5551C3.33102 17.688 3.21026 17.7969 3.06911 17.8723C2.9283 17.9476 2.77105 17.9873 2.61107 17.9881C2.43192 17.9882 2.25614 17.9395 2.10263 17.8472C1.94888 17.7548 1.82314 17.622 1.73901 17.4632C1.65492 17.3045 1.61568 17.1258 1.6255 16.9462C1.63516 16.7696 1.692 16.5989 1.78995 16.4518C4.6231 12.61 8.45039 9.61528 12.8589 7.79102Z" fill="#E6E6E6" stroke="#E6E6E6"/>
</svg>
