<svg width="14" height="14" viewBox="0 0 14 14" fill="none" xmlns="http://www.w3.org/2000/svg">
<path d="M1.16797 3.79167V0.583333C1.16797 0.428624 1.22943 0.280251 1.33882 0.170854C1.44822 0.0614581 1.59659 0 1.7513 0H12.2513C12.406 0 12.5544 0.0614581 12.6638 0.170854C12.7732 0.280251 12.8346 0.428624 12.8346 0.583333V3.79167C12.4479 3.79167 12.0769 3.94531 11.8034 4.2188C11.5299 4.49229 11.3763 4.86323 11.3763 5.25C11.3763 5.63677 11.5299 6.00771 11.8034 6.2812C12.0769 6.55469 12.4479 6.70833 12.8346 6.70833V13.4167C12.8346 13.5714 12.7732 13.7197 12.6638 13.8291C12.5544 13.9385 12.406 14 12.2513 14H1.7513C1.59659 14 1.44822 13.9385 1.33882 13.8291C1.22943 13.7197 1.16797 13.5714 1.16797 13.4167V6.70833C1.55474 6.70833 1.92568 6.55469 2.19917 6.2812C2.47266 6.00771 2.6263 5.63677 2.6263 5.25C2.6263 4.86323 2.47266 4.49229 2.19917 4.2188C1.92568 3.94531 1.55474 3.79167 1.16797 3.79167ZM2.33464 2.898C2.77284 3.11517 3.14166 3.45045 3.39951 3.86602C3.65737 4.28159 3.79399 4.76093 3.79399 5.25C3.79399 5.73907 3.65737 6.21841 3.39951 6.63398C3.14166 7.04955 2.77284 7.38483 2.33464 7.602V12.8333H11.668V7.602C11.2298 7.38483 10.8609 7.04955 10.6031 6.63398C10.3452 6.21841 10.2086 5.73907 10.2086 5.25C10.2086 4.76093 10.3452 4.28159 10.6031 3.86602C10.8609 3.45045 11.2298 3.11517 11.668 2.898V1.16667H2.33464V2.898ZM5.2513 3.5H8.7513V4.66667H5.2513V3.5ZM5.2513 5.83333H8.7513V7H5.2513V5.83333Z" fill="#3AAB6E"/>
</svg>
