<svg width="24" height="24" viewBox="0 0 24 24" fill="none" xmlns="http://www.w3.org/2000/svg">
<g clip-path="url(#clip0_894_4813)">
<path d="M2.331 14.9994H2.277C2.0871 14.9999 1.90408 14.9283 1.76488 14.7991C1.62569 14.67 1.54067 14.4928 1.527 14.3034C1.5105 14.0379 1.5 13.7694 1.5 13.4994C1.5 13.3005 1.57902 13.1097 1.71967 12.9691C1.86032 12.8284 2.05109 12.7494 2.25 12.7494C2.44891 12.7494 2.63968 12.8284 2.78033 12.9691C2.92098 13.1097 3 13.3005 3 13.4994C3 13.7334 3.0105 13.9659 3.027 14.1954C3.03435 14.2939 3.02216 14.393 2.99112 14.4868C2.96008 14.5806 2.9108 14.6673 2.84613 14.7421C2.78145 14.8168 2.70264 14.878 2.61424 14.9221C2.52584 14.9663 2.42958 14.9925 2.331 14.9994ZM3.822 17.2629C3.73879 17.0823 3.5873 16.9422 3.40082 16.8733C3.21434 16.8044 3.00812 16.8123 2.8275 16.8954C2.64694 16.9786 2.50681 17.1301 2.4379 17.3166C2.36899 17.5031 2.37694 17.7093 2.46 17.8899C2.71951 18.4525 3.02821 18.9911 3.3825 19.4994C3.45175 19.5982 3.54382 19.6788 3.65088 19.7344C3.75795 19.7901 3.87685 19.819 3.9975 19.8189C4.15103 19.8194 4.30094 19.7722 4.4265 19.6839C4.50808 19.6275 4.57768 19.5555 4.63125 19.4721C4.68483 19.3886 4.72132 19.2954 4.73862 19.1977C4.75592 19.1001 4.75368 18.9999 4.73203 18.9032C4.71038 18.8064 4.66975 18.7149 4.6125 18.6339C4.30869 18.2008 4.04414 17.7415 3.822 17.2614V17.2629ZM8.226 21.6729C7.74439 21.4509 7.28356 21.1863 6.849 20.8824C6.76812 20.8251 6.67667 20.7843 6.57995 20.7626C6.48323 20.7408 6.38315 20.7384 6.28551 20.7556C6.18787 20.7728 6.0946 20.8091 6.01109 20.8625C5.92758 20.916 5.85549 20.9854 5.799 21.0669C5.7416 21.1477 5.70078 21.239 5.6789 21.3357C5.65702 21.4324 5.65452 21.5324 5.67153 21.63C5.68855 21.7277 5.72475 21.821 5.77804 21.9045C5.83133 21.9881 5.90065 22.0603 5.982 22.1169C6.49009 22.4728 7.02928 22.782 7.593 23.0409C7.69111 23.0868 7.79818 23.1104 7.9065 23.1099C8.04986 23.1098 8.19019 23.0687 8.31089 22.9913C8.43158 22.914 8.52758 22.8036 8.5875 22.6734C8.62999 22.5839 8.65435 22.4869 8.65916 22.388C8.66397 22.2891 8.64914 22.1902 8.61554 22.0971C8.58193 22.0039 8.5302 21.9183 8.46334 21.8453C8.39648 21.7722 8.31582 21.7131 8.226 21.6714V21.6729ZM12 2.99939H11.5605L13.281 1.28039C13.3508 1.21072 13.4063 1.12796 13.4441 1.03684C13.4819 0.94572 13.5013 0.848038 13.5013 0.749388C13.5013 0.650737 13.4819 0.553055 13.4441 0.461937C13.4063 0.370819 13.3508 0.288056 13.281 0.218388C13.2113 0.148543 13.1286 0.0931284 13.0374 0.0553188C12.9463 0.0175091 12.8487 -0.00195313 12.75 -0.00195312C12.6513 -0.00195312 12.5537 0.0175091 12.4626 0.0553188C12.3714 0.0931284 12.2887 0.148543 12.219 0.218388L9.219 3.21839C9.14943 3.28873 9.09394 3.37172 9.0555 3.46289C8.98047 3.64652 8.98047 3.85226 9.0555 4.03589C9.09394 4.12705 9.14943 4.21004 9.219 4.28039L12.219 7.28039C12.2888 7.34999 12.3716 7.40516 12.4627 7.44273C12.5538 7.48031 12.6514 7.49956 12.75 7.49939C12.8486 7.49956 12.9462 7.48031 13.0373 7.44273C13.1284 7.40516 13.2112 7.34999 13.281 7.28039C13.3508 7.21072 13.4063 7.12796 13.4441 7.03684C13.4819 6.94572 13.5013 6.84804 13.5013 6.74939C13.5013 6.65074 13.4819 6.55305 13.4441 6.46194C13.4063 6.37082 13.3508 6.28806 13.281 6.21839L11.5605 4.49939H12C14.3862 4.50177 16.674 5.45075 18.3613 7.13806C20.0486 8.82537 20.9976 11.1132 21 13.4994C20.9976 15.8856 20.0486 18.1734 18.3613 19.8607C16.674 21.548 14.3862 22.497 12 22.4994C11.7675 22.4994 11.535 22.4904 11.307 22.4724C11.1104 22.4636 10.9178 22.5301 10.7684 22.6583C10.6191 22.7864 10.5242 22.9667 10.503 23.1624C10.4877 23.3607 10.5518 23.557 10.6812 23.708C10.8106 23.8591 10.9947 23.9526 11.193 23.9679C11.46 23.9889 11.7285 23.9994 12 23.9994C14.7838 23.9962 17.4527 22.8889 19.4211 20.9205C21.3896 18.9521 22.4968 16.2832 22.5 13.4994C22.4968 10.7156 21.3896 8.04672 19.4211 6.07827C17.4527 4.10983 14.7838 3.00256 12 2.99939V2.99939ZM10.719 17.7804C10.7888 17.85 10.8716 17.9052 10.9627 17.9427C11.0538 17.9803 11.1514 17.9996 11.25 17.9994C11.3486 17.9996 11.4462 17.9803 11.5373 17.9427C11.6284 17.9052 11.7112 17.85 11.781 17.7804L17.781 11.7804C17.8508 11.7107 17.9063 11.628 17.9441 11.5368C17.9819 11.4457 18.0013 11.348 18.0013 11.2494C18.0013 11.1507 17.9819 11.0531 17.9441 10.9619C17.9063 10.8708 17.8508 10.7881 17.781 10.7184C17.7113 10.6485 17.6286 10.5931 17.5374 10.5553C17.4463 10.5175 17.3487 10.498 17.25 10.498C17.1513 10.498 17.0537 10.5175 16.9626 10.5553C16.8714 10.5931 16.7887 10.6485 16.719 10.7184L11.25 16.1889L8.781 13.7184C8.71133 13.6485 8.62857 13.5931 8.53745 13.5553C8.44633 13.5175 8.34865 13.498 8.25 13.498C8.15135 13.498 8.05367 13.5175 7.96255 13.5553C7.87143 13.5931 7.78867 13.6485 7.719 13.7184C7.64916 13.7881 7.59374 13.8708 7.55593 13.9619C7.51812 14.0531 7.49866 14.1507 7.49866 14.2494C7.49866 14.348 7.51812 14.4457 7.55593 14.5368C7.59374 14.628 7.64916 14.7107 7.719 14.7804L10.719 17.7804Z" fill="#787F82"/>
</g>
<defs>
<clipPath id="clip0_894_4813">
<rect width="24" height="24" fill="white"/>
</clipPath>
</defs>
</svg>
