<?xml version="1.0" encoding="UTF-8"?><svg id="Layer_1" xmlns="http://www.w3.org/2000/svg" viewBox="0 0 29 24"><defs><style>.cls-1{fill:#787f82;}</style></defs><path class="cls-1" d="m1.4,11.5s-.03,0-.04,0c-.27-.02-.48-.27-.45-.54.3-3.43,3.79-5.1,5.66-6,.27-.13.5-.24.68-.34,2.09-.93,1.77-2.49,1.77-2.5-.06-.27.11-.54.38-.6.27-.06.54.11.6.38.18.82-.07,2.62-2.3,3.62-.16.09-.4.21-.69.34-1.69.81-4.84,2.33-5.1,5.19-.02.26-.24.46-.5.46Z"/><path class="cls-1" d="m2.9,15.7c-.22,0-.42-.15-.48-.37-.04-.15-1-3.81,1.64-6.85.6-.61,2.03-1.71,5.06-2.57.26-.07.54.08.62.34.08.27-.08.54-.34.62-2.92.83-4.19,1.88-4.6,2.29-2.25,2.6-1.41,5.88-1.4,5.91.07.27-.09.54-.35.61-.04.01-.09.02-.13.02Z"/><path class="cls-1" d="m25,19.5H4v-.6c0-2.8,1.1-5.5,3.1-7.4,2-2,4.7-3.1,7.4-3.1s5.5,1.1,7.4,3.1c2,2,3.1,4.7,3.1,7.4v.6Zm-19.7-1.3h18.5c-.2-2.3-1.2-4.5-2.9-6.1-1.7-1.6-4-2.5-6.3-2.5s-4.6.9-6.3,2.5c-1.8,1.6-2.9,3.8-3,6.1Z"/><path class="cls-1" d="m28.22,19.6H.88c-.27,0-.48-.31-.48-.7s.22-.7.48-.7h27.33c.27,0,.48.31.48.7s-.22.7-.48.7Z"/><path class="cls-1" d="m25.5,20.7H3.5v1.3h22.1v-1.3h-.1Z"/><path class="cls-1" d="m21.57,16.99c-.2,0-.38-.13-.44-.33-.81-2.8-2.69-3.63-2.77-3.66-.23-.1-.34-.37-.24-.6.1-.23.36-.34.6-.25.1.04,2.36,1.01,3.3,4.26.07.24-.07.5-.31.57-.04.01-.09.02-.13.02Z"/><path class="cls-1" d="m17.12,12.11c-.06,0-.13-.02-.19-.06-.64-.43-1.15-.49-1.15-.49-.18-.02-.32-.19-.3-.37.02-.19.18-.32.37-.3.03,0,.67.07,1.46.6.15.1.2.31.09.47-.07.1-.17.15-.28.15Z"/><path class="cls-1" d="m1.32,7.64c-.07,0-.14-.02-.21-.06-.2-.12-.28-.37-.16-.58.04-.07.98-1.7,2.85-2.44,1.63-.71,1.86-1.12,1.88-1.2.08-.22.33-.33.55-.25.22.08.33.33.25.55-.2.53-.93,1.06-2.3,1.66-1.65.65-2.48,2.08-2.49,2.09-.08.14-.22.21-.37.21Z"/><path class="cls-1" d="m14.47,9.6h-.01c-.25,0-.45-.22-.44-.47l.04-1.43s-.03-.57.41-1.03c.36-.39.92-.59,1.65-.59.25,0,.46.2.46.46s-.2.46-.46.46c-.45,0-.79.1-.97.29-.17.18-.17.4-.17.41l-.04,1.47c0,.25-.21.44-.46.44Z"/><path class="cls-1" d="m14.29,9.6h.01c.25,0,.45-.22.44-.47l-.04-1.43s.03-.57-.41-1.03c-.36-.39-.92-.59-1.65-.59-.25,0-.46.2-.46.46,0,.25.2.46.46.46.45,0,.79.1.97.29.17.18.17.4.17.41l.04,1.47c0,.25.21.44.46.44Z"/></svg>