<?xml version="1.0" encoding="utf-8"?>
<!-- Generator: Adobe Illustrator 27.5.0, SVG Export Plug-In . SVG Version: 6.00 Build 0)  -->
<svg version="1.1" id="Layer_1" xmlns="http://www.w3.org/2000/svg" xmlns:xlink="http://www.w3.org/1999/xlink" x="0px" y="0px"
	 viewBox="0 0 24 24" style="enable-background:new 0 0 24 24;" xml:space="preserve">
<style type="text/css">
	.st0{fill-rule:evenodd;clip-rule:evenodd;fill:#787F82;}
</style>
<path class="st0" d="M15,2.4h-4C7.1,2.4,5.4,5,5.4,7.5c0,2.5,1.8,5.1,5.6,5.1h2c2.7,0,4.4,1.5,4.4,3.9c0,1.9-1.4,3.9-4.4,3.9H9
	c-1.2,0-2.2-0.9-2.3-2H5.4c0.2,1.8,1.7,3.2,3.6,3.2h4c3.9,0,5.6-2.7,5.6-5.1s-1.8-5.1-5.6-5.1h-2c-2.7,0-4.4-1.5-4.4-3.9
	C6.6,5.6,8,3.6,11,3.6h4c1.2,0,2.2,0.9,2.3,2h1.3C18.4,3.8,16.9,2.4,15,2.4z"/>
<rect x="11.4" y="0" class="st0" width="1.3" height="24"/>
</svg>
