<svg width="69" height="44" viewBox="0 0 69 44" fill="none" xmlns="http://www.w3.org/2000/svg">
<g clip-path="url(#clip0_1_2124)">
<path d="M33.0282 5.56478C32.5625 5.53136 32.0803 5.51465 31.598 5.51465C31.1157 5.51465 30.6334 5.53136 30.1678 5.56478C18.227 6.28335 8.64787 15.9423 7.99928 27.9575C7.98265 28.392 7.96602 28.8097 7.96602 29.2442V30.6814H39.2979C39.1482 29.8458 39.0651 28.9936 39.0651 28.1246V27.8071H10.893C11.6247 16.9784 20.6385 8.38894 31.598 8.38894C37.7346 8.38894 43.2726 11.0794 47.0644 15.3407C47.979 14.8895 48.9436 14.5386 49.9581 14.3046C45.9002 9.29133 39.8467 5.96584 33.0282 5.56478Z" fill="white"/>
<path d="M39.3312 30.8485H1.43022C0.64859 30.8485 0 30.1968 0 29.3947C0 28.5925 0.64859 27.9575 1.43022 27.9575H39.0651V28.1246C39.0651 28.9936 39.1482 29.8459 39.2979 30.6814C39.2979 30.7315 39.2979 30.7984 39.3312 30.8485Z" fill="white"/>
<path d="M41.6761 36.3296H6.85178V33.4553H40.1128C40.5119 34.4914 41.0441 35.4439 41.6761 36.3296Z" fill="white"/>
<path d="M31.598 8.38891C32.3962 8.38891 33.0282 7.73718 33.0282 6.95177V3.77668C33.0282 3.45917 33.2777 2.87429 34.6414 2.87429C35.4396 2.87429 36.0716 2.22256 36.0716 1.43714C36.0716 0.651728 35.4396 0 34.6414 0C33.1779 0 32.0304 0.417774 31.2155 1.25332C30.1677 2.32283 30.1677 3.6597 30.1677 3.8101V6.96848C30.1677 7.7706 30.8163 8.40562 31.598 8.40562V8.38891Z" fill="white"/>
<path d="M31.598 8.38891C32.3962 8.38891 33.0282 7.73718 33.0282 6.95177V3.77668C33.0282 3.6597 33.0282 2.32283 31.9805 1.25332C31.1656 0.417774 30.0181 0 28.5546 0C27.7563 0 27.1244 0.651728 27.1244 1.43714C27.1244 2.22256 27.773 2.87429 28.5546 2.87429C29.9183 2.87429 30.1511 3.44246 30.1678 3.77668V6.93505C30.1678 7.73718 30.8163 8.3722 31.598 8.3722V8.38891Z" fill="white"/>
<path d="M16.2157 24.4814C16.881 24.4814 17.4796 24.0135 17.6127 23.3284C17.646 23.1612 18.3943 19.8859 22.5187 16.7777C23.1507 16.3097 23.2837 15.4074 22.8014 14.7556C22.3191 14.1206 21.4211 13.9869 20.7891 14.4715C15.7168 18.2984 14.8354 22.5764 14.7855 22.7602C14.6358 23.5456 15.1347 24.2976 15.9164 24.448C16.0162 24.4647 16.0993 24.4814 16.1991 24.4814H16.2157Z" fill="white"/>
<path d="M26.0101 14.5385C26.2097 14.5385 26.4093 14.5051 26.5922 14.4048C27.1244 14.1542 27.7064 13.9369 28.2885 13.7197C29.0369 13.4523 29.4194 12.6168 29.1367 11.8815C28.8706 11.1295 28.039 10.7451 27.2907 11.0292C26.6421 11.2632 26.0268 11.5138 25.4114 11.7979C24.6963 12.1154 24.3637 12.9677 24.6963 13.703C24.9291 14.2377 25.4613 14.5552 26.0101 14.5552V14.5385Z" fill="white"/>
<path d="M49.0441 35.6445C48.1461 35.6445 47.431 35.1432 47.431 34.5081V21.7242C47.431 21.1059 48.1627 20.5879 49.0441 20.5879C49.9256 20.5879 50.6573 21.0892 50.6573 21.7242V34.5081C50.6573 35.1264 49.9256 35.6445 49.0441 35.6445Z" fill="white"/>
<path d="M56.6934 35.6445C55.7954 35.6445 55.0803 35.1432 55.0803 34.5081V21.7242C55.0803 21.1059 55.812 20.5879 56.6934 20.5879C57.5748 20.5879 58.3066 21.0892 58.3066 21.7242V34.5081C58.3066 35.1264 57.5748 35.6445 56.6934 35.6445Z" fill="white"/>
<path d="M53.201 43.9999C44.4866 43.9999 37.402 36.881 37.402 28.1245C37.402 19.3679 44.4866 12.249 53.201 12.249C61.9154 12.249 69 19.3679 69 28.1245C69 36.881 61.9154 43.9999 53.201 43.9999ZM53.201 15.5912C46.316 15.5912 40.7281 21.2061 40.7281 28.1245C40.7281 35.0428 46.316 40.6577 53.201 40.6577C60.086 40.6577 65.6739 35.0428 65.6739 28.1245C65.6739 21.2061 60.086 15.5912 53.201 15.5912Z" fill="white"/>
</g>
<defs>
<clipPath id="clip0_1_2124">
<rect width="69" height="44" fill="white"/>
</clipPath>
</defs>
</svg>
