<svg width="24" height="24" viewBox="0 0 24 24" fill="none" xmlns="http://www.w3.org/2000/svg">
<path d="M11 20H7V12H11C12.6 12 14 13.5 14 15.2V16.8C14 18.5 12.6 20 11 20ZM9 18H11C11.5 18 12 17.4 12 16.8V15.2C12 14.6 11.5 14 11 14H9V18ZM2 20H0V12H3C4.7 12 6 13.3 6 15C6 16.7 4.7 18 3 18H2V20ZM2 16H3C3.6 16 4 15.6 4 15C4 14.4 3.6 14 3 14H2V16Z" fill="#119A77"/>
<path d="M21 12H15V14H21V12Z" fill="#119A77"/>
<path d="M17 12H15V20H17V12Z" fill="#119A77"/>
<path d="M20 16H15V18H20V16Z" fill="#119A77"/>
<path d="M24 24H4V22H22V6.4L17.6 2H6V9H4V0H18.4L24 5.6V24Z" fill="#119A77"/>
<path d="M23 8H16V2H18V6H23V8Z" fill="#119A77"/>
</svg>
