<?xml version="1.0" encoding="utf-8"?>
<!-- Generator: Adobe Illustrator 27.4.1, SVG Export Plug-In . SVG Version: 6.00 Build 0)  -->
<svg version="1.1" id="Layer_1" xmlns="http://www.w3.org/2000/svg" xmlns:xlink="http://www.w3.org/1999/xlink" x="0px" y="0px"
	 viewBox="0 0 13 14" style="enable-background:new 0 0 13 14;" xml:space="preserve">
<style type="text/css">
	.st0{fill:#179C78;}
</style>
<g>
	<path class="st0" d="M2.5,1C2.8,1,3,1.2,3.2,1.5l1.7,3C5.1,4.8,5,5.3,4.7,5.6L4.1,6.1C4,6.3,4,6.5,4.1,6.7c0.4,0.5,0.8,0.9,1.2,1.3
		c0.4,0.4,0.9,0.8,1.4,1.2c0.2,0.1,0.4,0.1,0.6,0l0.6-0.6C8.1,8.4,8.6,8.3,9,8.5l3,1.7c0.3,0.1,0.4,0.4,0.5,0.7
		c0,0.3-0.1,0.6-0.3,0.8l-0.9,0.9c-0.6,0.6-1.7,0.6-3.2,0C6.7,12,5.2,11,3.8,9.6c-1.4-1.4-2.5-2.9-3-4.3C0.5,4.6,0.3,4,0.3,3.5
		c0-0.5,0.2-1,0.5-1.3l0.9-0.9C1.9,1.1,2.2,1,2.5,1z M4.5,4.6l-1.7-3C2.7,1.5,2.6,1.4,2.4,1.4c-0.1,0-0.3,0-0.4,0.1l2.3,3.9l0.2-0.2
		C4.6,5.1,4.7,4.8,4.5,4.6z M12,10.9c0-0.2-0.1-0.3-0.3-0.4l-3-1.7C8.6,8.7,8.3,8.8,8.1,8.9L8,9.1l3.9,2.3C12,11.2,12,11.1,12,10.9
		C12,11,12,11,12,10.9z M1.1,2.4C0.6,2.9,0.6,3.9,1.1,5.2C1.7,6.5,2.8,8,4.1,9.3c1.3,1.3,2.8,2.4,4.1,2.9c1.3,0.5,2.3,0.5,2.7,0
		l0.7-0.7l-4-2.3L7.5,9.5C7.2,9.8,6.8,9.8,6.4,9.6C6,9.2,5.5,8.8,5.1,8.3C4.6,7.9,4.2,7.4,3.8,7C3.5,6.6,3.6,6.2,3.9,5.9L4,5.7
		l-2.3-4L1.1,2.4z"/>
</g>
</svg>
