<?xml version="1.0" encoding="utf-8"?>
<!-- Generator: Adobe Illustrator 27.1.1, SVG Export Plug-In . SVG Version: 6.00 Build 0)  -->
<svg version="1.1" id="Layer_1" xmlns="http://www.w3.org/2000/svg" xmlns:xlink="http://www.w3.org/1999/xlink" x="0px" y="0px"
	 viewBox="0 0 24 24" style="enable-background:new 0 0 24 24;" xml:space="preserve">
<style type="text/css">
	.st0{fill:#787F82;}
</style>
<path class="st0" d="M11.7,11.7V2.6C11.7,2.2,12,2,12.3,2s0.6,0.2,0.6,0.6v9.2c1.3,0.3,2.3,1.4,2.3,2.8c0,1.4-1,2.5-2.3,2.8v4.1
	c0,0.3-0.2,0.6-0.6,0.6s-0.6-0.2-0.6-0.6v-4.1c-1.3-0.3-2.3-1.4-2.3-2.8C9.4,13.2,10.4,12,11.7,11.7z M12.3,16.3
	c1,0,1.7-0.8,1.7-1.7c0-1-0.8-1.7-1.7-1.7c-1,0-1.7,0.8-1.7,1.7C10.5,15.5,11.3,16.3,12.3,16.3z"/>
<path class="st0" d="M18.6,7V2.6c0-0.3,0.2-0.6,0.6-0.6s0.6,0.2,0.6,0.6V7C21,7.3,22,8.5,22,9.8c0,1.4-1,2.5-2.3,2.8v8.8
	c0,0.3-0.2,0.6-0.6,0.6s-0.6-0.2-0.6-0.6v-8.8c-1.3-0.3-2.3-1.4-2.3-2.8S17.3,7.3,18.6,7z M19.1,11.6c1,0,1.7-0.8,1.7-1.7
	c0-1-0.8-1.7-1.7-1.7s-1.7,0.8-1.7,1.7C17.4,10.8,18.2,11.6,19.1,11.6z"/>
<path class="st0" d="M4.9,7V2.6C4.9,2.2,5.1,2,5.4,2C5.7,2,6,2.2,6,2.6V7c1.3,0.3,2.3,1.4,2.3,2.8c0,1.4-1,2.5-2.3,2.8v8.8
	C6,21.8,5.7,22,5.4,22c-0.3,0-0.6-0.2-0.6-0.6v-8.8c-1.3-0.3-2.3-1.4-2.3-2.8S3.6,7.3,4.9,7z M5.4,11.6c1,0,1.7-0.8,1.7-1.7
	c0-1-0.8-1.7-1.7-1.7S3.7,8.9,3.7,9.8C3.7,10.8,4.5,11.6,5.4,11.6z"/>
</svg>
