<?xml version="1.0" encoding="utf-8"?>
<!-- Generator: Adobe Illustrator 27.7.0, SVG Export Plug-In . SVG Version: 6.00 Build 0)  -->
<svg version="1.1" id="Layer_1" xmlns="http://www.w3.org/2000/svg" xmlns:xlink="http://www.w3.org/1999/xlink" x="0px" y="0px"
	 viewBox="0 0 56 51" style="enable-background:new 0 0 56 51;" xml:space="preserve">
<style type="text/css">
	.st0{fill-rule:evenodd;clip-rule:evenodd;fill:#179C78;}
	.st1{fill:#179C78;}
</style>
<g>
	<path class="st0" d="M19.5,9.5l3.5,4.4l-3.1,3.3l0,0l-0.1,0.1c-0.1,0.1-0.2,0.3-0.5,0.4c-0.2,0.1-0.5,0.2-0.9,0.2
		c-0.4-0.1-0.7-0.3-0.9-0.6l-0.2-0.2c0,0,0,0-0.1,0c-0.2,0.1-0.4,0.3-0.8,0.3l0.3,5.8c0.6-0.3,1.4-0.7,2.4-0.8c1-0.1,2.2,0,3.4,0.6
		c1.2,0.6,2.3,1.8,3.2,3.6c0.2,0.4,0,0.8-0.3,1c-0.4,0.2-0.8,0-1-0.3c-0.8-1.6-1.7-2.5-2.6-2.9c-0.8-0.5-1.7-0.5-2.5-0.4
		c-0.8,0.1-1.5,0.4-2,0.7c-0.3,0.1-0.5,0.3-0.6,0.4c-0.1,0-0.1,0.1-0.2,0.1l0,0l0,0l0,0l-1.1,0.9l-0.6-10.6l1.2,0.6
		c0,0,0.2,0,0.5-0.1c0.1-0.1,0.2-0.2,0.3-0.2l0.1-0.1l0,0l0,0l0.6-0.6l1.2,1.4l0,0l0,0l0,0l2.3-2.6l-1.9-2.5l-6.4,2.7L9.1,27.5
		L9,27.6c-0.1,0.1-0.2,0.4-0.2,0.9c0,0.3,0,0.7,0,0.9c0.3,0.1,0.7,0.3,1,0.5c0.2,0,0.3,0.1,0.5,0.2c0.1,0,0.1,0.1,0.1,0.1l0,0l0,0
		l0,0c0,0,0,0-0.4,0.6l0.4-0.6h0.1l0.1,0.1c3.9,3.9,8.2,4.4,11.5,4c1.7-0.2,3.1-0.7,4.1-1.1c0.5-0.2,0.9-0.4,1.2-0.5
		c0.1-0.1,0.2-0.1,0.3-0.2h0.1l0,0l0,0l1.3-0.7L29,33.2c0,0.1,0,0.2,0.2,0.5c0.2,0.2,0.4,0.5,0.7,0.7c0.3,0.2,0.6,0.4,0.8,0.5
		c0.1,0.1,0.2,0.1,0.3,0.2h0.1l0,0l0,0c0.4,0.2,0.5,0.6,0.3,1c-0.2,0.4-0.7,0.5-1,0.3l0.4-0.7c-0.4,0.7-0.4,0.7-0.4,0.7l0,0l0,0l0,0
		l0,0l0,0c0,0-0.1,0-0.1-0.1c-0.1,0-0.2-0.1-0.3-0.2c-0.3-0.2-0.6-0.4-0.9-0.7s-0.7-0.6-1-1c-0.1-0.1-0.1-0.2-0.2-0.3
		c-0.3,0.1-0.6,0.3-0.9,0.4c-1.1,0.4-2.7,0.9-4.5,1.2c-3.7,0.5-8.4-0.1-12.7-4.3c0,0-0.1,0-0.1-0.1c-0.1-0.1-0.2-0.1-0.4-0.2
		c-0.3-0.2-0.7-0.4-0.9-0.4c-0.5-0.2-0.9-0.6-0.9-1.2c0-0.3,0-0.8,0-1.3c0-0.4,0.1-1,0.4-1.4l3.5-13.8L19.5,9.5z"/>
	<path class="st0" d="M24.6,25.2L24.6,25.2L24.6,25.2c0-0.1,0.1-0.1,0.1-0.1c0.1-0.1,0.2-0.2,0.3-0.4c0.3-0.3,0.7-0.7,1.2-1.1
		c1-0.7,2.4-1.1,4-0.3c0.3,0.2,0.8,0,1-0.3s0-0.8-0.3-0.9c-2.2-1.1-4.1-0.4-5.4,0.4c-0.6,0.4-1.2,0.9-1.5,1.3
		c-0.2,0.2-0.3,0.3-0.4,0.5c0,0.1-0.1,0.1-0.1,0.1l0,0l0,0l0,0l0,0c0,0,0,0,0.6,0.4l-0.6-0.4c-0.2,0.3-0.1,0.7,0.2,1
		C23.9,25.6,24.4,25.5,24.6,25.2z"/>
	<path class="st0" d="M11.3,29.4c0,0,0,0,0.6-0.4s0.6-0.4,0.6-0.4l0,0l0,0l0.1,0.1c0.1,0.1,0.2,0.3,0.4,0.5c0.4,0.4,1,1,1.7,1.5
		c1.5,1,3.5,1.8,6.1,0.9l0.4,1.5c-3.1,1-5.6,0-7.3-1.1c-0.9-0.6-1.5-1.2-2-1.7c-0.2-0.2-0.4-0.5-0.5-0.6
		C11.4,29.6,11.4,29.5,11.3,29.4C11.4,29.4,11.3,29.4,11.3,29.4L11.3,29.4L11.3,29.4L11.3,29.4L11.3,29.4z"/>
	<path class="st0" d="M25,33.6c0.4-0.1,0.6-0.3,0.7,0.1l0,0L25,34c0.7-0.2,0.7-0.2,0.7-0.2l0,0l0,0l0,0l0,0v0.1
		c0,0.1,0.1,0.2,0.1,0.4c0.1,0.3,0.3,0.8,0.7,1.3c0.6,1,1.7,2.1,3.3,2.7l0.5,0.2v2.3c0,0.4-0.3,0.8-0.7,0.8s-0.7-0.3-0.7-0.8v-1.2
		c-0.2-0.1,0.2,0.1,0,0c-1.7-0.7-2.8-2-3.5-3.1c-0.4-0.6-0.6-1.2-0.8-1.6c-0.1-0.2-0.1-0.4-0.2-0.5c0-0.1,0-0.1,0-0.1l0,0l0,0l0,0
		l0,0c0,0,0,0,0.7-0.2l-0.7,0.2C24.2,33.8,24.6,33.7,25,33.6z"/>
	<path class="st0" d="M17.1,24.8L17.1,24.8L17.1,24.8c0,0.1-0.1,0.2-0.1,0.3c-0.1,0.2-0.2,0.4-0.1,0.6c0,0.4-0.3,0.8-0.7,0.8
		c-0.4,0-0.8-0.3-0.8-0.7c0-0.6,0.1-1.1,0.3-1.4c0.1-0.2,0.2-0.3,0.2-0.4l0.1-0.1l0,0l0,0l0,0l0,0l0,0c0,0,0,0,0.6,0.5L16,23.8
		c0.3-0.3,0.7-0.4,1.1-0.1C17.4,24,17.4,24.5,17.1,24.8z"/>
	<path class="st1" d="M38.8,41.5c-5.8,0-10.5-4.7-10.5-10.5c0-5.8,4.7-10.5,10.5-10.5c5.8,0,10.5,4.7,10.5,10.5
		C49.4,36.7,44.6,41.5,38.8,41.5z M38.8,22.2c-4.8,0-8.7,3.9-8.7,8.7s3.9,8.7,8.7,8.7c4.8,0,8.7-3.9,8.7-8.7S43.6,22.2,38.8,22.2z"
		/>
	<path class="st1" d="M34.3,32v-2.1h3.5v-3.5h2.1v3.5h3.5V32h-3.5v3.5h-2.1V32H34.3z"/>
</g>
</svg>
