<?xml version="1.0" encoding="utf-8"?>
<!-- Generator: Adobe Illustrator 27.1.1, SVG Export Plug-In . SVG Version: 6.00 Build 0)  -->
<svg version="1.1" id="Layer_1" xmlns="http://www.w3.org/2000/svg" xmlns:xlink="http://www.w3.org/1999/xlink" x="0px" y="0px"
	 viewBox="0 0 24 24" style="enable-background:new 0 0 24 24;" xml:space="preserve">
<style type="text/css">
	.st0{fill:#787F82;}
</style>
<path class="st0" d="M12,22.5c-1.2,0-2.4-0.1-3.5-0.4c-3.3-0.8-5.8-3.3-6.6-6.6c-0.5-2.3-0.5-4.7,0-7c0.8-3.3,3.3-5.8,6.6-6.6
	c2.3-0.5,4.7-0.5,7,0c3.3,0.8,5.8,3.3,6.6,6.6c0.5,2.3,0.5,4.7,0,7c-0.8,3.3-3.3,5.8-6.6,6.6C14.4,22.4,13.2,22.5,12,22.5z M12,2.5
	c-1.1,0-2.2,0.1-3.3,0.4C5.8,3.6,3.6,5.8,2.9,8.7c-0.5,2.1-0.5,4.4,0,6.5c0.7,2.9,2.9,5.2,5.8,5.8l0,0c2.1,0.5,4.4,0.5,6.5,0
	c2.9-0.7,5.2-2.9,5.8-5.8c0.5-2.1,0.5-4.4,0-6.5c-0.7-2.9-2.9-5.2-5.8-5.8C14.2,2.6,13.1,2.5,12,2.5z"/>
<path class="st0" d="M12,13.3c-0.1,0-0.2,0-0.3-0.1c-0.2-0.2-0.2-0.5,0-0.7L13,11c0.3-0.3,0.5-0.8,0.5-1.2V9.7
	c0-0.9-0.7-1.6-1.5-1.6s-1.5,0.7-1.5,1.6v0.5c0,0.3-0.2,0.5-0.5,0.5s-0.5-0.2-0.5-0.5V9.7c0-1.4,1.1-2.6,2.5-2.6s2.5,1.2,2.5,2.6
	v0.1c0,0.7-0.3,1.4-0.8,1.9l-1.4,1.4C12.2,13.2,12.1,13.3,12,13.3z"/>
<g>
	<path class="st0" d="M12.3,15.2c0,0.2-0.1,0.3-0.3,0.3s-0.3-0.1-0.3-0.3s0.1-0.3,0.3-0.3S12.3,15,12.3,15.2z"/>
	<path class="st0" d="M12,16c-0.4,0-0.8-0.4-0.8-0.8c0-0.4,0.3-0.8,0.8-0.8s0.8,0.3,0.8,0.8l0,0C12.8,15.6,12.4,16,12,16L12,16z
		 M11.8,15.2c0,0.1,0.1,0.2,0.2,0.2c0.1,0,0.2-0.1,0.2-0.2c0-0.1-0.1-0.2-0.2-0.2C11.9,15,11.8,15.1,11.8,15.2z"/>
</g>
</svg>
