<?xml version="1.0" encoding="utf-8"?>
<!-- Generator: Adobe Illustrator 27.2.0, SVG Export Plug-In . SVG Version: 6.00 Build 0)  -->
<svg version="1.1" id="Layer_1" xmlns="http://www.w3.org/2000/svg" xmlns:xlink="http://www.w3.org/1999/xlink" x="0px" y="0px"
	 viewBox="0 0 14 15" style="enable-background:new 0 0 14 15;" xml:space="preserve">
<path d="M7,14.6c-3.7,0-6.6-3.2-6.6-7.1c0-3.9,3-7.1,6.6-7.1c3.7,0,6.6,3.2,6.6,7.1C13.6,11.4,10.7,14.6,7,14.6z M7,1.4
	c-3.1,0-5.6,2.7-5.6,6.1s2.5,6.1,5.6,6.1s5.6-2.7,5.6-6.1S10.1,1.4,7,1.4z"/>
<path d="M9.6,8H4.4C4.1,8,3.9,7.8,3.9,7.5S4.1,7,4.4,7h5.2c0.3,0,0.5,0.2,0.5,0.5S9.9,8,9.6,8z"/>
</svg>
