<?xml version="1.0" encoding="utf-8"?>
<!-- Generator: Adobe Illustrator 27.1.1, SVG Export Plug-In . SVG Version: 6.00 Build 0)  -->
<svg version="1.1" id="Layer_1" xmlns="http://www.w3.org/2000/svg" xmlns:xlink="http://www.w3.org/1999/xlink" x="0px" y="0px"
	 viewBox="0 0 30 30" style="enable-background:new 0 0 30 30;" xml:space="preserve">
<style type="text/css">
	.st0{fill:#179C78;}
</style>
<path class="st0" d="M20,19.8c-1,1.2-2.4,2-4,2.2c-1.5,0.2-3.1-0.2-4.3-1.2L11,21.6c-0.1,0.1-0.2,0.1-0.3,0.2c-0.1,0-0.2,0-0.3,0
	c-0.1-0.1-0.2-0.1-0.2-0.2c-0.1-0.1-0.1-0.2-0.1-0.3v-2.6c0-0.1,0-0.3,0.1-0.4s0.2-0.2,0.4-0.2h2.3c0.1,0,0.2,0,0.3,0.1
	c0.1,0.1,0.2,0.2,0.2,0.3c0,0.1,0.1,0.2,0,0.3c0,0.1-0.1,0.2-0.1,0.3l-0.5,0.6c1,0.6,2.1,0.9,3.3,0.7c1.2-0.2,2.2-0.8,2.9-1.7
	c0.1-0.1,0.1-0.1,0.2-0.2c0.1,0,0.2-0.1,0.3-0.1c0.1,0,0.2,0,0.3,0.1c0.1,0,0.2,0.1,0.2,0.2c0.1,0.2,0.2,0.4,0.2,0.6
	C20.3,19.4,20.2,19.6,20,19.8 M20.3,12.3c0,0.1,0,0.3-0.1,0.4c-0.1,0.1-0.2,0.2-0.4,0.2h-2.3c-0.1,0-0.2,0-0.3-0.1
	c-0.1-0.1-0.2-0.2-0.2-0.3c0-0.1-0.1-0.2,0-0.3c0-0.1,0.1-0.2,0.1-0.3l0.5-0.6c-1-0.6-2.1-0.9-3.3-0.7c-1.2,0.2-2.2,0.8-2.9,1.7
	c-0.1,0.1-0.1,0.1-0.2,0.2c-0.1,0-0.2,0.1-0.3,0.1c-0.1,0-0.2,0-0.3-0.1c-0.1,0-0.2-0.1-0.2-0.2c-0.1-0.2-0.2-0.4-0.2-0.6
	c0-0.2,0.1-0.4,0.2-0.6c1-1.2,2.4-2,4-2.2s3.1,0.2,4.3,1.2l0.7-0.8c0.1-0.1,0.2-0.1,0.3-0.2c0.1,0,0.2,0,0.3,0
	c0.1,0.1,0.2,0.1,0.2,0.2s0.1,0.2,0.1,0.3V12.3z"/>
<path class="st0" d="M15,28C7.8,28,2,22.2,2,15C2,7.8,7.8,2,15,2c7.2,0,13,5.8,13,13C28,22.2,22.2,28,15,28z M15,3.5
	C8.7,3.5,3.5,8.7,3.5,15c0,6.3,5.2,11.5,11.5,11.5c6.3,0,11.5-5.2,11.5-11.5C26.5,8.7,21.3,3.5,15,3.5z"/>
</svg>
