<?xml version="1.0" encoding="utf-8"?>
<svg width="20" height="20" viewBox="0 0 20 20" stroke="#FA7324" fill="none" xmlns="http://www.w3.org/2000/svg">
<path d="M10.8971 0.821498C10.5306 0.0772676 9.46944 0.0772694 9.1029 0.821499L6.8338 5.42876C6.6887 5.72337 6.40819 5.92796 6.08334 5.97612L0.997372 6.73008C0.178757 6.85143 -0.146589 7.85786 0.446081 8.43544L4.12402 12.0197C4.35944 12.2491 4.46707 12.5796 4.41192 12.9037L3.54498 17.9976C3.40577 18.8156 4.26582 19.4375 4.99899 19.049L9.53181 16.6473C9.82465 16.4921 10.1753 16.4921 10.4682 16.6473L15.001 19.049C15.7342 19.4375 16.5942 18.8156 16.455 17.9976L15.5881 12.9037C15.5329 12.5796 15.6406 12.2491 15.876 12.0197L19.5539 8.43544C20.1466 7.85786 19.8212 6.85143 19.0026 6.73008L13.9167 5.97612C13.5918 5.92796 13.3113 5.72337 13.1662 5.42875L10.8971 0.821498Z"/>
</svg>
