<?xml version="1.0" encoding="utf-8"?>
<!-- Generator: Adobe Illustrator 27.3.1, SVG Export Plug-In . SVG Version: 6.00 Build 0)  -->
<svg version="1.1" id="Layer_1" xmlns="http://www.w3.org/2000/svg" xmlns:xlink="http://www.w3.org/1999/xlink" x="0px" y="0px"
	 viewBox="0 0 46 38" style="enable-background:new 0 0 46 38;" xml:space="preserve">
<style type="text/css">
	.st0{clip-path:url(#SVGID_00000005230649272548831530000012894891245241780402_);}
	.st1{fill:#179C78;}
</style>
<g>
	<g>
		<defs>
			<rect id="SVGID_1_" x="0.8" y="0.6" width="45.2" height="29.4"/>
		</defs>
		<clipPath id="SVGID_00000137112145978680103750000012484160851830612896_">
			<use xlink:href="#SVGID_1_"  style="overflow:visible;"/>
		</clipPath>
		<g style="clip-path:url(#SVGID_00000137112145978680103750000012484160851830612896_);">
			<path class="st1" d="M22.4,4.3c-0.3,0-0.6,0-0.9,0c-0.3,0-0.6,0-0.9,0C16.7,4.6,13.2,6.2,10.5,9C7.8,11.8,6.2,15.4,6,19.3
				c0,0.3,0,0.6,0,0.9v1h20.5c-0.1-0.6-0.1-1.1-0.1-1.7v-0.2H7.9c0.2-3.5,1.7-6.8,4.2-9.2c2.5-2.4,5.8-3.8,9.3-3.8
				c1.9,0,3.8,0.4,5.6,1.2c1.7,0.8,3.3,2,4.6,3.4c0.6-0.3,1.2-0.5,1.9-0.7c-1.3-1.7-3-3.1-4.9-4.1C26.7,5,24.6,4.4,22.4,4.3"/>
			<path class="st1" d="M26.5,21.2H1.7c-0.3,0-0.5-0.1-0.7-0.3c-0.2-0.2-0.3-0.4-0.3-0.7c0-0.3,0.1-0.5,0.3-0.7
				c0.2-0.2,0.4-0.3,0.7-0.3h24.6v0.1c0,0.6,0.1,1.1,0.2,1.7C26.5,21.1,26.5,21.2,26.5,21.2"/>
			<path class="st1" d="M28.1,24.9H5.3v-1.9h21.8C27.3,23.6,27.7,24.3,28.1,24.9"/>
			<path class="st1" d="M21.5,6.2c0.1,0,0.2,0,0.4-0.1c0.1,0,0.2-0.1,0.3-0.2c0.1-0.1,0.2-0.2,0.2-0.3c0-0.1,0.1-0.2,0.1-0.4V3.1
				c0-0.2,0.2-0.6,1.1-0.6c0.1,0,0.2,0,0.4-0.1c0.1,0,0.2-0.1,0.3-0.2s0.2-0.2,0.2-0.3s0.1-0.2,0.1-0.4c0-0.1,0-0.3-0.1-0.4
				c0-0.1-0.1-0.2-0.2-0.3c-0.1-0.1-0.2-0.2-0.3-0.2c-0.1,0-0.2-0.1-0.4-0.1c-0.4,0-0.8,0-1.2,0.2c-0.4,0.1-0.7,0.4-1,0.7
				c-0.4,0.5-0.7,1.1-0.7,1.7v2.1c0,0.3,0.1,0.5,0.3,0.7C21,6.1,21.2,6.2,21.5,6.2L21.5,6.2z"/>
			<path class="st1" d="M21.5,6.2c0.1,0,0.2,0,0.4-0.1c0.1,0,0.2-0.1,0.3-0.2c0.1-0.1,0.2-0.2,0.2-0.3c0-0.1,0.1-0.2,0.1-0.4V3.1
				c0-0.6-0.3-1.2-0.7-1.7c-0.3-0.3-0.6-0.5-1-0.7c-0.4-0.1-0.8-0.2-1.2-0.2c-0.3,0-0.5,0.1-0.7,0.3c-0.2,0.2-0.3,0.4-0.3,0.7
				c0,0.3,0.1,0.5,0.3,0.7c0.2,0.2,0.4,0.3,0.7,0.3c0.9,0,1,0.4,1.1,0.6v2.1c0,0.1,0,0.2,0.1,0.4c0,0.1,0.1,0.2,0.2,0.3
				C20.9,6,21,6,21.1,6.1C21.2,6.1,21.4,6.2,21.5,6.2L21.5,6.2z"/>
			<path class="st1" d="M11.4,16.9c0.2,0,0.4-0.1,0.6-0.2c0.2-0.1,0.3-0.3,0.3-0.6c0.5-1.8,1.7-3.3,3.2-4.4c0.2-0.2,0.3-0.4,0.4-0.6
				c0-0.3,0-0.5-0.2-0.7c-0.1-0.1-0.2-0.2-0.3-0.2c-0.1-0.1-0.2-0.1-0.3-0.1c-0.1,0-0.2,0-0.4,0c-0.1,0-0.2,0.1-0.3,0.2
				c-1.9,1.3-3.3,3.3-3.9,5.5c0,0.2,0,0.5,0.1,0.7c0.1,0.2,0.4,0.4,0.6,0.4C11.3,16.9,11.3,16.9,11.4,16.9L11.4,16.9z"/>
			<path class="st1" d="M17.8,10.3c0.1,0,0.3,0,0.4-0.1c0.3-0.2,0.7-0.3,1.1-0.5c0.1,0,0.2-0.1,0.3-0.2s0.2-0.2,0.2-0.3
				c0.1-0.1,0.1-0.2,0.1-0.4c0-0.1,0-0.3-0.1-0.4c0-0.1-0.1-0.2-0.2-0.3C19.6,8.1,19.5,8,19.4,8c-0.1-0.1-0.2-0.1-0.4-0.1
				c-0.1,0-0.2,0-0.4,0.1c-0.4,0.2-0.8,0.3-1.2,0.5C17.2,8.6,17,8.8,16.9,9c-0.1,0.2-0.1,0.5,0,0.7c0.1,0.2,0.2,0.3,0.3,0.4
				C17.5,10.2,17.6,10.3,17.8,10.3L17.8,10.3z"/>
			<path class="st1" d="M35.6,30c-2.1,0-4.1-0.6-5.9-1.7c-1.8-1.1-3.1-2.8-3.9-4.7c-0.8-1.9-1.1-4.1-0.7-6.1c0.4-2.1,1.4-4,2.8-5.5
				c1.5-1.5,3.3-2.5,5.4-3c2-0.4,4.2-0.2,6.1,0.6c1.9,0.8,3.6,2.2,4.7,3.9c1.2,1.7,1.8,3.8,1.8,5.9c0,2.8-1.1,5.5-3,7.5
				C41,28.8,38.4,30,35.6,30z M35.6,11c-1.6,0-3.3,0.4-4.7,1.3c-1.4,0.9-2.5,2.2-3.1,3.7c-0.7,1.5-0.8,3.2-0.5,4.9
				c0.3,1.6,1.1,3.1,2.2,4.3c1.2,1.2,2.6,2,4.2,2.3c1.6,0.3,3.3,0.2,4.8-0.5c1.5-0.6,2.8-1.7,3.7-3.1c0.9-1.4,1.4-3,1.4-4.7
				c0-2.2-0.8-4.3-2.4-5.9C39.9,11.9,37.8,11,35.6,11"/>
			<path class="st1" d="M40,23c-0.9,1-2.1,1.7-3.4,1.9c-1.3,0.2-2.7-0.2-3.8-1l-0.6,0.7c-0.1,0.1-0.1,0.1-0.2,0.1
				c-0.1,0-0.2,0-0.3,0c-0.1,0-0.2-0.1-0.2-0.2c0-0.1-0.1-0.2-0.1-0.3V22c0-0.1,0-0.3,0.1-0.4c0.1-0.1,0.2-0.2,0.3-0.2h2
				c0.1,0,0.2,0,0.3,0.1c0.1,0.1,0.1,0.1,0.2,0.2c0,0.1,0,0.2,0,0.3c0,0.1-0.1,0.2-0.1,0.3l-0.5,0.5c0.8,0.6,1.9,0.8,2.9,0.6
				c1-0.1,1.9-0.7,2.6-1.4c0.1-0.1,0.1-0.1,0.2-0.2c0.1,0,0.2-0.1,0.2-0.1c0.1,0,0.2,0,0.2,0.1c0.1,0,0.1,0.1,0.2,0.2
				c0.1,0.1,0.2,0.3,0.2,0.5C40.2,22.7,40.1,22.9,40,23 M40.2,16.5c0,0.1,0,0.3-0.1,0.4C40,17,39.9,17,39.7,17h-2
				c-0.1,0-0.2,0-0.3-0.1c-0.1-0.1-0.1-0.1-0.2-0.2c0-0.1,0-0.2,0-0.3c0-0.1,0.1-0.2,0.1-0.3l0.5-0.5C37,15.1,36,14.8,35,15
				c-1,0.1-1.9,0.7-2.6,1.4c-0.1,0.1-0.1,0.1-0.2,0.2c-0.1,0-0.2,0.1-0.2,0.1c-0.1,0-0.2,0-0.2-0.1c-0.1,0-0.1-0.1-0.2-0.2
				c-0.1-0.1-0.2-0.3-0.2-0.5c0-0.2,0.1-0.4,0.2-0.5c0.9-1,2.1-1.7,3.4-1.9c1.3-0.2,2.7,0.2,3.8,1l0.6-0.7c0.1-0.1,0.1-0.1,0.2-0.1
				c0.1,0,0.2,0,0.3,0c0.1,0,0.2,0.1,0.2,0.2c0,0.1,0.1,0.2,0.1,0.3V16.5z"/>
		</g>
	</g>
	<path class="st1" d="M0,34c0.5,0.8,1.5,1.3,2.7,1.3c1.5,0,2.6-0.9,2.6-2.2c0-1.1-0.7-1.8-1.8-2.2L3,30.7c-0.8-0.3-1.2-0.5-1.2-0.9
		c0-0.4,0.5-0.7,1-0.7s1,0.2,1.3,0.6l1-1c-0.6-0.7-1.4-1-2.4-1c-1.4,0-2.5,0.8-2.5,2.2c0,1,0.6,1.7,1.8,2.1l0.6,0.2
		c0.7,0.3,1,0.5,1,1c0,0.4-0.4,0.7-1,0.7c-0.6,0-1.2-0.3-1.6-0.9L0,34z M10.8,35.2h1.4l1.7-5.3h-1.5l-1,3.4L10.3,30H9.2l-1.1,3.4
		l-1-3.4H5.6l1.7,5.3h1.4l1-3L10.8,35.2z M14.3,32.6c0,1.5,1.1,2.7,2.5,2.7c0.7,0,1.3-0.4,1.5-0.7v0.6h1.4V30h-1.4v0.6
		c-0.2-0.3-0.8-0.7-1.5-0.7C15.3,29.9,14.3,31.1,14.3,32.6z M18.4,32.6c0,0.8-0.5,1.4-1.3,1.4c-0.8,0-1.3-0.6-1.3-1.4
		s0.5-1.4,1.3-1.4C17.8,31.2,18.4,31.8,18.4,32.6z M21.1,37.4h1.4v-2.8c0.2,0.3,0.8,0.7,1.5,0.7c1.4,0,2.5-1.2,2.5-2.7
		c0-1.5-1.1-2.7-2.5-2.7c-0.7,0-1.3,0.4-1.5,0.7V30h-1.4V37.4z M25.1,32.6c0,0.8-0.5,1.4-1.3,1.4c-0.8,0-1.3-0.6-1.3-1.4
		s0.5-1.4,1.3-1.4C24.5,31.2,25.1,31.8,25.1,32.6z"/>
</g>
</svg>
