<?xml version="1.0" encoding="utf-8"?>
<!-- Generator: Adobe Illustrator 27.2.0, SVG Export Plug-In . SVG Version: 6.00 Build 0)  -->
<svg version="1.1" id="Layer_1" xmlns="http://www.w3.org/2000/svg" xmlns:xlink="http://www.w3.org/1999/xlink" x="0px" y="0px"
	 viewBox="0 0 12 12" style="enable-background:new 0 0 12 12;" xml:space="preserve">
<style type="text/css">
	.st0{fill-rule:evenodd;clip-rule:evenodd;fill:#179C78;}
</style>
<path class="st0" d="M6,12c3.3,0,6-2.7,6-6S9.3,0,6,0S0,2.7,0,6S2.7,12,6,12z M9.7,4.7c0.2-0.2,0.2-0.6,0-0.8C9.4,3.8,9.1,3.8,8.9,4
	l-4,4L3.1,6.2c-0.2-0.2-0.6-0.2-0.8,0c-0.2,0.2-0.2,0.6,0,0.8l2.2,2.2c0.2,0.2,0.6,0.2,0.8,0L9.7,4.7z"/>
</svg>
