<svg width="29" height="20" viewBox="0 0 29 20" fill="none" xmlns="http://www.w3.org/2000/svg">
<path d="M25.0224 17.4904H3.96387V16.8515C3.96387 14.059 5.0732 11.3808 7.04782 9.40622C9.02245 7.4316 11.7006 6.32227 14.4931 6.32227C17.2857 6.32227 19.9638 7.4316 21.9385 9.40622C23.9131 11.3808 25.0224 14.059 25.0224 16.8515V17.4904ZM5.26408 16.2139H23.7238C23.5627 13.8758 22.5203 11.6859 20.8071 10.0866C19.0939 8.48738 16.8376 7.59789 14.4939 7.59789C12.1503 7.59789 9.89395 8.48738 8.18074 10.0866C6.46753 11.6859 5.42512 13.8758 5.26408 16.2139Z" fill="#787F82"/>
<path d="M27.9347 17.5635H1.05426C0.884985 17.5635 0.722639 17.4963 0.602946 17.3766C0.483254 17.2569 0.416016 17.0946 0.416016 16.9253C0.416016 16.7561 0.483254 16.5937 0.602946 16.474C0.722639 16.3543 0.884985 16.2871 1.05426 16.2871H27.9347C28.1039 16.2871 28.2663 16.3543 28.386 16.474C28.5057 16.5937 28.5729 16.7561 28.5729 16.9253C28.5729 17.0946 28.5057 17.2569 28.386 17.3766C28.2663 17.4963 28.1039 17.5635 27.9347 17.5635Z" fill="#787F82"/>
<path d="M25.5221 18.7227H3.4668V19.9991H25.5221V18.7227Z" fill="#787F82"/>
<path d="M14.4941 7.60007C14.3248 7.60007 14.1625 7.53284 14.0428 7.41314C13.9231 7.29345 13.8558 7.1311 13.8558 6.96183V5.55036C13.8488 5.40619 13.7479 5.15297 13.1382 5.15297C12.969 5.15297 12.8066 5.08573 12.6869 4.96604C12.5672 4.84635 12.5 4.684 12.5 4.51473C12.5 4.34546 12.5672 4.18311 12.6869 4.06342C12.8066 3.94373 12.969 3.87649 13.1382 3.87649C13.4167 3.86033 13.6956 3.90113 13.9577 3.99639C14.2199 4.09164 14.4599 4.23935 14.6631 4.43049C14.9572 4.73446 15.125 5.13878 15.1323 5.5617V6.96183C15.1323 7.1311 15.0651 7.29345 14.9454 7.41314C14.8257 7.53284 14.6633 7.60007 14.4941 7.60007Z" fill="#787F82"/>
<path d="M14.4947 7.60007C14.3254 7.60007 14.1631 7.53284 14.0434 7.41314C13.9237 7.29345 13.8564 7.1311 13.8564 6.96183V5.55036C13.8657 5.13129 14.0332 4.73124 14.3252 4.43049C14.5283 4.23935 14.7683 4.09164 15.0305 3.99639C15.2927 3.90113 15.5715 3.86033 15.85 3.87649C16.0193 3.87649 16.1816 3.94373 16.3013 4.06342C16.421 4.18311 16.4882 4.34546 16.4882 4.51473C16.4882 4.684 16.421 4.84635 16.3013 4.96604C16.1816 5.08573 16.0193 5.15297 15.85 5.15297C15.2425 5.15297 15.1394 5.40617 15.1324 5.55682V6.96078C15.1325 7.1301 15.0654 7.29254 14.9459 7.41242C14.8263 7.5323 14.664 7.59979 14.4947 7.60007Z" fill="#787F82"/>
<path d="M2.85192 13.1529C2.73969 13.1528 2.63144 13.1114 2.54786 13.0365C2.46429 12.9616 2.41125 12.8585 2.3989 12.7469C1.75418 6.90721 5.2067 5.47524 7.98427 4.3235C8.18514 4.24035 8.38275 4.15828 8.57822 4.07567C8.68942 4.02819 8.8149 4.02685 8.9271 4.07191C9.0393 4.11697 9.12904 4.20472 9.17651 4.31592C9.22399 4.42712 9.22533 4.55267 9.18027 4.66487C9.13521 4.77707 9.04739 4.86675 8.93619 4.91422C8.73965 4.99791 8.53876 5.08104 8.33519 5.16581C5.58138 6.30675 2.73746 7.48766 3.30712 12.6459C3.32031 12.7661 3.2852 12.8867 3.20957 12.981C3.13394 13.0754 3.02393 13.1359 2.90373 13.1492C2.88537 13.1519 2.86866 13.1529 2.85192 13.1529Z" fill="#787F82"/>
<path d="M1.53345 8.98378C1.49929 8.98398 1.46516 8.98017 1.43188 8.97244C1.31402 8.94566 1.21167 8.87315 1.14726 8.77088C1.08286 8.6686 1.06169 8.54493 1.08847 8.42707C1.79744 5.30231 4.19652 4.18945 6.12419 3.29743C7.93522 2.45725 9.0459 1.86974 9.06426 0.435598C9.06961 0.317205 9.12086 0.205591 9.20709 0.124289C9.29332 0.0429878 9.40781 -0.00157137 9.52631 4.23496e-05C9.64481 0.00165607 9.75805 0.0493045 9.84204 0.132924C9.92602 0.216543 9.97417 0.329561 9.9763 0.448056C9.9493 2.53069 8.27753 3.30555 6.50807 4.12629C4.5804 5.02047 2.5874 5.94538 1.97725 8.63332C1.95362 8.73322 1.89692 8.82222 1.81635 8.88583C1.73578 8.94945 1.63611 8.98398 1.53345 8.98378Z" fill="#787F82"/>
<path d="M1.21761 5.66923C1.13463 5.66934 1.05317 5.64683 0.982037 5.6041C0.910901 5.56137 0.85277 5.50004 0.813892 5.42673C0.775014 5.35342 0.756889 5.27092 0.761425 5.18806C0.76596 5.1052 0.793016 5.02514 0.839664 4.9565C1.72608 3.75473 2.92402 2.81795 4.30407 2.24746C4.91764 1.96962 5.49899 1.62565 6.03786 1.22158C6.13193 1.14922 6.25051 1.11635 6.36842 1.12996C6.48632 1.14358 6.59427 1.20259 6.66938 1.29448C6.74448 1.38638 6.78082 1.50389 6.77069 1.62214C6.76055 1.74039 6.70478 1.85007 6.61513 1.92785C6.02519 2.37541 5.38711 2.75573 4.7128 3.06176C3.60858 3.61522 2.46712 4.18758 1.59292 5.46891C1.55141 5.53034 1.49552 5.58073 1.43012 5.61564C1.36471 5.65055 1.29175 5.66892 1.21761 5.66923Z" fill="#787F82"/>
<path d="M21.35 14.7417C21.2029 14.7415 21.0602 14.6904 20.9464 14.5971C20.8325 14.5038 20.7545 14.3741 20.7253 14.2298C20.7097 14.1569 20.3781 12.7023 18.5406 11.3259C18.4723 11.2761 18.4146 11.2132 18.3708 11.141C18.3269 11.0687 18.298 10.9885 18.2854 10.9049C18.2729 10.8214 18.277 10.7361 18.2977 10.6541C18.3183 10.5722 18.355 10.4952 18.4057 10.4275C18.4564 10.3599 18.52 10.303 18.5928 10.2601C18.6657 10.2172 18.7462 10.1892 18.83 10.1778C18.9137 10.1663 18.9989 10.1716 19.0806 10.1933C19.1623 10.215 19.2388 10.2527 19.3057 10.3043C21.5687 11.9992 21.9618 13.9015 21.9775 13.9814C21.9954 14.0739 21.9927 14.1692 21.9694 14.2605C21.9462 14.3518 21.903 14.4368 21.843 14.5095C21.783 14.5821 21.7078 14.6406 21.6225 14.6808C21.5373 14.7209 21.4443 14.7417 21.35 14.7417Z" fill="#787F82"/>
<path d="M16.9871 10.3293C16.8975 10.3299 16.8088 10.3115 16.7268 10.2753C16.486 10.1674 16.2327 10.0647 15.9741 9.97023C15.8151 9.91187 15.6859 9.79281 15.6147 9.63915C15.5436 9.48548 15.5364 9.30982 15.5948 9.15086C15.6531 8.9919 15.7723 8.86264 15.9259 8.7915C16.0796 8.72036 16.2552 8.71317 16.4142 8.77153C16.6998 8.87682 16.9806 8.98756 17.2479 9.11013C17.3813 9.1698 17.4902 9.27339 17.5564 9.40371C17.6225 9.53402 17.642 9.68315 17.6115 9.82608C17.5809 9.96901 17.5023 10.0971 17.3886 10.189C17.275 10.2809 17.1332 10.331 16.9871 10.331V10.3293Z" fill="#787F82"/>
</svg>
