<?xml version="1.0" encoding="utf-8"?>
<!-- Generator: Adobe Illustrator 27.8.1, SVG Export Plug-In . SVG Version: 6.00 Build 0)  -->
<svg version="1.1" id="Layer_1" xmlns="http://www.w3.org/2000/svg" xmlns:xlink="http://www.w3.org/1999/xlink" x="0px" y="0px"
	 viewBox="0 0 25 25" style="enable-background:new 0 0 25 25;" xml:space="preserve">
<style type="text/css">
	.st0{fill:#1C274C;}
	.st1{fill-rule:evenodd;clip-rule:evenodd;fill:#1C274C;}
</style>
<g>
	<g>
		<path class="st0" d="M22.3,10.9c0.1,0,0.2,0,0.3,0.1V9.4c0-2.5-1.9-4.5-4.4-4.6l-3.5-2.4c-1.6-1.1-3.8-1.1-5.4,0L5.9,4.8
			C3.4,5,1.3,7.1,1.3,9.7v8.9c0,2.7,2.2,4.8,4.8,4.8h11.6c2.7,0,4.8-2.2,4.8-4.8v-1.2c-0.1,0.1-0.2,0.1-0.3,0.1c0,0,0,0-0.1,0
			c-0.1,0.1-0.2,0.1-0.3,0.1c-0.1,0.1-0.2,0.1-0.3,0.1l0,0c-0.1,0-0.1,0.1-0.2,0.1c0,0,0,0-0.1,0v0.7c0,2-1.6,3.6-3.6,3.6H6.1
			c-2,0-3.6-1.6-3.6-3.6V9.7c0-2,1.6-3.6,3.6-3.6H18c1.8,0,3.3,1.5,3.3,3.3v1.5c0,0,0,0,0.1,0l0,0h0.1c0,0,0,0,0.1,0s0.1,0,0.2,0
			h0.1H22h0.1C22.2,10.9,22.2,10.9,22.3,10.9z M8.1,4.8L10,3.5c1.2-0.8,2.8-0.9,4-0.1l2,1.4H8.1z"/>
	</g>
	<path class="st0" d="M22.6,10.7c-0.3-0.2-0.6-0.3-1-0.3H19c-2.3,0-4.2,1.8-4.2,3.9c0,2.2,1.9,3.9,4.2,3.9h2.6c0.4,0,0.7-0.1,1-0.3
		c0.6-0.3,1-1,1.1-1.7v-3.9C23.6,11.4,23.2,11,22.6,10.7z M22.5,16.1c0,0.5-0.4,0.9-0.9,0.9H19c-1.7,0-3-1.2-3-2.8s1.4-2.8,3-2.8
		h2.5c0.6,0,1,0.4,1,0.9V16.1L22.5,16.1z"/>
	<path class="st1" d="M18.2,13.5c0.4,0,0.8,0.3,0.8,0.8c0,0.4-0.3,0.8-0.8,0.8c-0.4,0-0.8-0.3-0.8-0.8
		C17.4,13.8,17.7,13.5,18.2,13.5z"/>
	<path class="st0" d="M10.6,10.6H6.1c-0.3,0-0.6-0.3-0.6-0.6s0.3-0.6,0.6-0.6h4.5c0.3,0,0.6,0.3,0.6,0.6S10.9,10.6,10.6,10.6z"/>
</g>
</svg>
