<svg width="14" height="14" viewBox="0 0 14 14" fill="none" xmlns="http://www.w3.org/2000/svg">
<path d="M2.04906 8.75033H4.76727C4.7017 8.19753 4.66699 7.60959 4.66699 7.00033C4.66699 6.39106 4.7017 5.80312 4.76727 5.25033H2.04906C1.8556 5.79769 1.75033 6.38671 1.75033 7.00033C1.75033 7.61394 1.8556 8.20296 2.04906 8.75033ZM2.29605 9.33366C2.99044 10.7309 4.28904 11.775 5.85 12.1239C5.39551 11.5053 5.04742 10.522 4.85001 9.33366H2.29605ZM11.9516 8.75033C12.1451 8.20296 12.2503 7.61394 12.2503 7.00033C12.2503 6.38671 12.1451 5.79769 11.9516 5.25033H9.23338C9.29896 5.80312 9.33366 6.39106 9.33366 7.00033C9.33366 7.60959 9.29896 8.19753 9.23338 8.75033H11.9516ZM11.7046 9.33366H9.15064C8.95323 10.522 8.60514 11.5053 8.15065 12.1239C9.71161 11.775 11.0102 10.7309 11.7046 9.33366ZM5.35789 8.75033H8.64276C8.71184 8.20339 8.75033 7.61447 8.75033 7.00033C8.75033 6.38618 8.71184 5.79727 8.64276 5.25033H5.35789C5.28882 5.79727 5.25033 6.38618 5.25033 7.00033C5.25033 7.61447 5.28882 8.20339 5.35789 8.75033ZM5.44573 9.33366C5.75034 11.0649 6.3692 12.2503 7.00033 12.2503C7.63145 12.2503 8.25031 11.0649 8.55492 9.33366H5.44573ZM2.29605 4.66699H4.85001C5.04742 3.47866 5.39551 2.49537 5.85 1.87674C4.28904 2.22567 2.99044 3.26971 2.29605 4.66699ZM11.7046 4.66699C11.0102 3.26971 9.71161 2.22567 8.15065 1.87674C8.60514 2.49537 8.95323 3.47866 9.15064 4.66699H11.7046ZM5.44573 4.66699H8.55492C8.25031 2.93576 7.63145 1.75033 7.00033 1.75033C6.3692 1.75033 5.75034 2.93576 5.44573 4.66699ZM7.00033 12.8337C3.77866 12.8337 1.16699 10.222 1.16699 7.00033C1.16699 3.77866 3.77866 1.16699 7.00033 1.16699C10.222 1.16699 12.8337 3.77866 12.8337 7.00033C12.8337 10.222 10.222 12.8337 7.00033 12.8337Z" fill="#179C78"/>
</svg>
