<svg width="18" height="18" viewBox="0 0 18 18" fill="none" xmlns="http://www.w3.org/2000/svg">
<path d="M14.6475 6L10.5 1.8525C10.3946 1.74698 10.2516 1.68764 10.1025 1.6875H8.25C7.70302 1.6875 7.17838 1.9048 6.79159 2.29159C6.4048 2.67839 6.1875 3.20299 6.1875 3.75V4.6875H5.25C4.70299 4.6875 4.17838 4.9048 3.79159 5.29159C3.4048 5.67839 3.1875 6.20299 3.1875 6.75V14.25C3.1875 14.797 3.4048 15.3216 3.79159 15.7084C4.17838 16.0952 4.70299 16.3125 5.25 16.3125H10.5C11.047 16.3125 11.5716 16.0952 11.9584 15.7084C12.3452 15.3216 12.5625 14.797 12.5625 14.25V13.3125H12.75C13.297 13.3125 13.8216 13.0952 14.2084 12.7084C14.5952 12.3216 14.8125 11.797 14.8125 11.25V6.375C14.8066 6.2337 14.7477 6.09982 14.6475 6ZM10.6875 3.6075L12.8925 5.8125H10.6875V3.6075ZM11.4375 14.25C11.4375 14.4986 11.3387 14.7371 11.1629 14.9129C10.9871 15.0887 10.7486 15.1875 10.5 15.1875H5.25C5.00136 15.1875 4.7629 15.0887 4.58709 14.9129C4.41127 14.7371 4.3125 14.4986 4.3125 14.25V6.75C4.3125 6.50136 4.41127 6.26291 4.58709 6.08709C4.7629 5.91128 5.00136 5.8125 5.25 5.8125H6.1875V11.25C6.1875 11.797 6.4048 12.3216 6.79159 12.7084C7.17838 13.0952 7.70302 13.3125 8.25 13.3125H11.4375V14.25ZM12.75 12.1875H8.25C8.00137 12.1875 7.76288 12.0887 7.58707 11.9129C7.41127 11.7371 7.3125 11.4986 7.3125 11.25V3.75C7.3125 3.50136 7.41127 3.2629 7.58707 3.08709C7.76288 2.91127 8.00137 2.8125 8.25 2.8125H9.5625V6.375C9.56445 6.52358 9.6243 6.66553 9.72937 6.7706C9.83445 6.87567 9.97642 6.93556 10.125 6.9375H13.6875V11.25C13.6875 11.4986 13.5887 11.7371 13.4129 11.9129C13.2371 12.0887 12.9986 12.1875 12.75 12.1875Z" fill="white"/>
</svg>
