<svg width="27" height="27" viewBox="0 0 27 27" fill="none" xmlns="http://www.w3.org/2000/svg">
<path d="M13.5 24.75C19.7132 24.75 24.75 19.7132 24.75 13.5C24.75 7.2868 19.7132 2.25 13.5 2.25C7.2868 2.25 2.25 7.2868 2.25 13.5C2.25 19.7132 7.2868 24.75 13.5 24.75Z" stroke="#BD1414" stroke-width="1.8125"/>
<path d="M13.5 19.125V19.6875V20.25" stroke="#BD1414" stroke-width="1.8125" stroke-linecap="round"/>
<path d="M13.5 6.75V7.3125V7.875" stroke="#BD1414" stroke-width="1.8125" stroke-linecap="round"/>
<path d="M16.875 10.6875C16.875 9.1342 15.364 7.875 13.5 7.875C11.636 7.875 10.125 9.1342 10.125 10.6875C10.125 12.2408 11.636 13.5 13.5 13.5C15.364 13.5 16.875 14.7592 16.875 16.3125C16.875 17.8658 15.364 19.125 13.5 19.125C11.636 19.125 10.125 17.8658 10.125 16.3125" stroke="#BD1414" stroke-width="1.8125" stroke-linecap="round"/>
</svg>
