<svg width="28" height="37" viewBox="0 0 28 37" fill="none" xmlns="http://www.w3.org/2000/svg">
<g clip-path="url(#clip0_12099_22397)">
<path d="M2.27783 17.5C2.27783 14.2002 2.27783 12.5503 3.33225 11.5252C4.38666 10.5 6.08372 10.5 9.47783 10.5H19.0778C22.4719 10.5 24.169 10.5 25.2234 11.5252C26.2778 12.5503 26.2778 14.2002 26.2778 17.5C26.2778 20.7998 26.2778 22.4497 25.2234 23.4748C24.169 24.5 22.4719 24.5 19.0778 24.5H9.47783C6.08372 24.5 4.38666 24.5 3.33225 23.4748C2.27783 22.4497 2.27783 20.7998 2.27783 17.5Z" stroke="#BD1414" stroke-width="1.57"/>
<path d="M7.27783 10.5V8.25C7.27783 4.52208 10.4118 1.5 14.2778 1.5C18.1438 1.5 21.2778 4.52208 21.2778 8.25V10.5" stroke="#BD1414" stroke-width="1.57" stroke-linecap="round"/>
<path d="M1.88751 35V29.5207H3.00653V33.935H5.35261V35H1.88751ZM9.75955 33.0707C9.75955 34.1974 8.84889 35.0849 7.72987 35.0849C6.61085 35.0849 5.7002 34.1974 5.7002 33.0707C5.7002 31.9439 6.61085 31.0564 7.72987 31.0564C8.84889 31.0564 9.75955 31.9439 9.75955 33.0707ZM6.7652 33.0707C6.7652 33.6649 7.17422 34.0971 7.72987 34.0971C8.28552 34.0971 8.68683 33.6649 8.68683 33.0707C8.68683 32.4764 8.28552 32.0442 7.72987 32.0442C7.17422 32.0442 6.7652 32.4764 6.7652 33.0707ZM14.1492 33.9736C13.8173 34.6373 13.1228 35.0849 12.3202 35.0849C11.178 35.0849 10.275 34.236 10.275 33.0707C10.275 31.9053 11.178 31.0564 12.3202 31.0564C13.1228 31.0564 13.8173 31.504 14.1492 32.1677L13.2308 32.6616C13.0765 32.3066 12.7446 32.0442 12.3202 32.0442C11.7645 32.0442 11.34 32.4764 11.34 33.0707C11.34 33.6649 11.7645 34.0971 12.3202 34.0971C12.7446 34.0971 13.0765 33.8347 13.2308 33.4797L14.1492 33.9736ZM14.8253 35V29.212H15.8826V32.5613L17.1328 31.1413H18.4062L16.8782 32.8777L18.7612 35H17.457L15.8826 33.225V35H14.8253ZM18.6255 33.0707C18.6255 31.9285 19.4821 31.0564 20.6552 31.0564C21.6662 31.0564 22.5537 31.7047 22.5537 32.9549C22.5537 33.0475 22.5537 33.1555 22.5382 33.3176H19.6519C19.7137 33.8347 20.169 34.1202 20.6783 34.1202C21.1568 34.1202 21.5041 33.8964 21.6739 33.634L22.461 34.2205C22.106 34.7376 21.4809 35.0849 20.6706 35.0849C19.5207 35.0849 18.6255 34.29 18.6255 33.0707ZM20.6243 31.9285C20.2307 31.9285 19.7908 32.1291 19.6905 32.5999H21.4964C21.4038 32.1446 21.0179 31.9285 20.6243 31.9285ZM23.0871 33.0707C23.0871 31.9748 23.8743 31.0564 24.9007 31.0564C25.4332 31.0564 25.8422 31.3265 26.012 31.5735V29.212H27.0693V35H26.012V34.5678C25.8422 34.8148 25.4332 35.0849 24.9007 35.0849C23.8743 35.0849 23.0871 34.1665 23.0871 33.0707ZM26.0969 33.0707C26.0969 32.4687 25.7033 32.0211 25.1245 32.0211C24.5457 32.0211 24.1521 32.4687 24.1521 33.0707C24.1521 33.6726 24.5457 34.1202 25.1245 34.1202C25.7033 34.1202 26.0969 33.6726 26.0969 33.0707Z" fill="#BD1414"/>
<circle cx="14.2778" cy="17.5" r="2.5" stroke="#BD1414"/>
</g>
<defs>
<clipPath id="clip0_12099_22397">
<rect width="27" height="36" fill="white" transform="translate(0.679932 0.5)"/>
</clipPath>
</defs>
</svg>
