<svg width="31" height="20" viewBox="0 0 31 20" fill="none" xmlns="http://www.w3.org/2000/svg">
<g clip-path="url(#clip0_3444_8107)">
<path d="M14.8389 2.52938C14.6297 2.51419 14.413 2.50659 14.1964 2.50659C13.9797 2.50659 13.763 2.51419 13.5538 2.52938C8.18913 2.856 3.88544 7.24643 3.59404 12.7079C3.58657 12.9054 3.5791 13.0953 3.5791 13.2928V13.946H17.6557C17.5885 13.5662 17.5511 13.1788 17.5511 12.7838V12.6395H4.89412C5.22287 7.71738 9.27252 3.81309 14.1964 3.81309C16.9534 3.81309 19.4415 5.03603 21.145 6.97298C21.556 6.76789 21.9893 6.60838 22.4451 6.50203C20.622 4.22326 17.9023 2.71168 14.8389 2.52938Z" fill="white"/>
<path d="M17.6705 14.0221H0.642564C0.291396 14.0221 0 13.7259 0 13.3613C0 12.9967 0.291396 12.708 0.642564 12.708H17.551V12.784C17.551 13.179 17.5883 13.5663 17.6556 13.9461C17.6556 13.9689 17.6556 13.9993 17.6705 14.0221Z" fill="white"/>
<path d="M18.7238 16.5135H3.07812V15.207H18.0215C18.2008 15.678 18.4399 16.1109 18.7238 16.5135Z" fill="white"/>
<path d="M14.1963 3.81314C14.5549 3.81314 14.8388 3.5169 14.8388 3.15989V1.71667C14.8388 1.57235 14.9509 1.30649 15.5636 1.30649C15.9222 1.30649 16.2062 1.01025 16.2062 0.653247C16.2062 0.29624 15.9222 0 15.5636 0C14.9061 0 14.3905 0.189897 14.0244 0.569692C13.5537 1.05583 13.5537 1.6635 13.5537 1.73186V3.16749C13.5537 3.53209 13.8451 3.82074 14.1963 3.82074V3.81314Z" fill="white"/>
<path d="M14.1964 3.81314C14.555 3.81314 14.839 3.5169 14.839 3.15989V1.71667C14.839 1.6635 14.839 1.05583 14.3683 0.569692C14.0021 0.189897 13.4866 0 12.8291 0C12.4704 0 12.1865 0.29624 12.1865 0.653247C12.1865 1.01025 12.4779 1.30649 12.8291 1.30649C13.4418 1.30649 13.5464 1.56475 13.5538 1.71667V3.1523C13.5538 3.5169 13.8452 3.80555 14.1964 3.80555V3.81314Z" fill="white"/>
<path d="M7.28533 11.1279C7.5842 11.1279 7.85318 10.9152 7.91295 10.6038C7.92789 10.5278 8.26412 9.03902 10.1171 7.62618C10.401 7.4135 10.4608 7.00332 10.2441 6.70708C10.0274 6.41844 9.62396 6.35767 9.34004 6.57795C7.06118 8.31741 6.66518 10.262 6.64276 10.3455C6.57552 10.7025 6.79967 11.0443 7.15084 11.1127C7.19567 11.1203 7.23303 11.1279 7.27786 11.1279H7.28533Z" fill="white"/>
<path d="M11.6856 6.60842C11.7752 6.60842 11.8649 6.59323 11.9471 6.54765C12.1862 6.43371 12.4477 6.33497 12.7092 6.23622C13.0454 6.11468 13.2173 5.73489 13.0902 5.40067C12.9707 5.05886 12.5971 4.88415 12.2609 5.01328C11.9695 5.11962 11.693 5.23356 11.4166 5.36269C11.0953 5.50701 10.9459 5.8944 11.0953 6.22862C11.1999 6.47169 11.439 6.61601 11.6856 6.61601V6.60842Z" fill="white"/>
<path d="M22.0343 16.2021C21.6309 16.2021 21.3096 15.9742 21.3096 15.6855V9.87468C21.3096 9.59363 21.6383 9.35815 22.0343 9.35815C22.4303 9.35815 22.7591 9.58603 22.7591 9.87468V15.6855C22.7591 15.9666 22.4303 16.2021 22.0343 16.2021Z" fill="white"/>
<path d="M25.4708 16.2021C25.0674 16.2021 24.7461 15.9742 24.7461 15.6855V9.87468C24.7461 9.59363 25.0748 9.35815 25.4708 9.35815C25.8668 9.35815 26.1956 9.58603 26.1956 9.87468V15.6855C26.1956 15.9666 25.8668 16.2021 25.4708 16.2021Z" fill="white"/>
<path d="M23.9018 20.0001C19.9866 20.0001 16.8037 16.7642 16.8037 12.784C16.8037 8.80372 19.9866 5.56787 23.9018 5.56787C27.817 5.56787 30.9999 8.80372 30.9999 12.784C30.9999 16.7642 27.817 20.0001 23.9018 20.0001ZM23.9018 7.08705C20.8085 7.08705 18.298 9.63927 18.298 12.784C18.298 15.9287 20.8085 18.4809 23.9018 18.4809C26.9951 18.4809 29.5056 15.9287 29.5056 12.784C29.5056 9.63927 26.9951 7.08705 23.9018 7.08705Z" fill="white"/>
</g>
<defs>
<clipPath id="clip0_3444_8107">
<rect width="31" height="20" fill="white"/>
</clipPath>
</defs>
</svg>
