<?xml version="1.0" encoding="utf-8"?>
<!-- Generator: Adobe Illustrator 27.2.0, SVG Export Plug-In . SVG Version: 6.00 Build 0)  -->
<svg version="1.1" id="Layer_1" xmlns="http://www.w3.org/2000/svg" xmlns:xlink="http://www.w3.org/1999/xlink" x="0px" y="0px"
	 viewBox="0 0 43 28" style="enable-background:new 0 0 43 28;" xml:space="preserve">
<style type="text/css">
	.st0{fill:#FA7324;}
</style>
<g>
	<path class="st0" d="M20.6,3.5c-0.3,0-0.6,0-0.9,0c-0.3,0-0.6,0-0.9,0c-3.6,0.3-7,1.8-9.6,4.5c-2.5,2.6-4,6.1-4.2,9.8
		c0,0.3,0,0.5,0,0.8v0.9h19.5c-0.1-0.5-0.1-1.1-0.1-1.6v-0.2H6.8c0.2-3.3,1.6-6.4,4-8.7c2.4-2.3,5.6-3.6,8.9-3.6
		c1.8,0,3.6,0.4,5.3,1.2c1.7,0.8,3.1,1.9,4.3,3.3c0.6-0.3,1.2-0.5,1.8-0.7c-1.3-1.6-2.9-3-4.7-3.9C24.6,4.2,22.6,3.7,20.6,3.5"/>
	<path class="st0" d="M24.5,19.6H0.9c-0.2,0-0.5-0.1-0.6-0.3C0.1,19.2,0,19,0,18.7c0-0.2,0.1-0.5,0.3-0.7c0.2-0.2,0.4-0.3,0.6-0.3
		h23.5v0.1c0,0.5,0.1,1.1,0.1,1.6C24.5,19.6,24.5,19.6,24.5,19.6z"/>
	<path class="st0" d="M26,23.1H4.3v-1.8H25C25.2,21.9,25.6,22.6,26,23.1"/>
	<path class="st0" d="M19.7,5.3c0.1,0,0.2,0,0.3-0.1c0.1,0,0.2-0.1,0.3-0.2c0.1-0.1,0.1-0.2,0.2-0.3c0-0.1,0.1-0.2,0.1-0.3v-2
		c0-0.2,0.2-0.6,1-0.6c0.1,0,0.2,0,0.3-0.1s0.2-0.1,0.3-0.2s0.1-0.2,0.2-0.3s0.1-0.2,0.1-0.3c0-0.1,0-0.2-0.1-0.3
		c0-0.1-0.1-0.2-0.2-0.3c-0.1-0.1-0.2-0.2-0.3-0.2C21.8,0,21.7,0,21.6,0c-0.4,0-0.8,0-1.2,0.2c-0.4,0.1-0.7,0.4-1,0.6
		c-0.4,0.4-0.6,1-0.7,1.6v2c0,0.2,0.1,0.5,0.3,0.6S19.5,5.3,19.7,5.3L19.7,5.3z"/>
	<path class="st0" d="M19.7,5.3c0.1,0,0.2,0,0.3-0.1s0.2-0.1,0.3-0.2c0.1-0.1,0.1-0.2,0.2-0.3c0-0.1,0.1-0.2,0.1-0.3v-2
		c0-0.6-0.2-1.2-0.7-1.6c-0.3-0.3-0.6-0.5-1-0.6C18.6,0,18.2,0,17.8,0c-0.2,0-0.5,0.1-0.6,0.3c-0.2,0.2-0.3,0.4-0.3,0.6
		c0,0.2,0.1,0.5,0.3,0.6c0.2,0.2,0.4,0.3,0.6,0.3c0.8,0,1,0.4,1,0.6v2c0,0.1,0,0.2,0.1,0.3c0,0.1,0.1,0.2,0.2,0.3
		c0.1,0.1,0.2,0.2,0.3,0.2C19.5,5.3,19.6,5.3,19.7,5.3L19.7,5.3z"/>
	<path class="st0" d="M10.1,15.6c0.2,0,0.4-0.1,0.6-0.2c0.2-0.1,0.3-0.3,0.3-0.5c0.5-1.7,1.6-3.2,3.1-4.2c0.2-0.1,0.3-0.4,0.3-0.6
		c0-0.2,0-0.5-0.2-0.7c-0.1-0.1-0.2-0.2-0.3-0.2c-0.1-0.1-0.2-0.1-0.3-0.1c-0.1,0-0.2,0-0.3,0c-0.1,0-0.2,0.1-0.3,0.2
		c-1.8,1.3-3.1,3.1-3.7,5.3c0,0.2,0,0.5,0.1,0.7c0.1,0.2,0.3,0.3,0.6,0.4C10,15.6,10,15.6,10.1,15.6L10.1,15.6z"/>
	<path class="st0" d="M16.2,9.3c0.1,0,0.3,0,0.4-0.1c0.3-0.2,0.7-0.3,1.1-0.4c0.1,0,0.2-0.1,0.3-0.2s0.2-0.2,0.2-0.3
		c0-0.1,0.1-0.2,0.1-0.3c0-0.1,0-0.2-0.1-0.4c0-0.1-0.1-0.2-0.2-0.3S17.8,7.1,17.7,7C17.6,7,17.5,7,17.4,7C17.2,7,17.1,7,17,7
		c-0.4,0.1-0.8,0.3-1.2,0.5c-0.2,0.1-0.4,0.3-0.5,0.5c-0.1,0.2-0.1,0.5,0,0.7c0.1,0.2,0.2,0.3,0.3,0.4C15.9,9.2,16,9.3,16.2,9.3
		L16.2,9.3z"/>
	<path class="st0" d="M33.2,28c-2,0-3.9-0.5-5.6-1.6c-1.7-1.1-3-2.7-3.8-4.5C23,20,22.8,18,23.2,16c0.4-2,1.3-3.8,2.7-5.2
		C27.2,9.4,29,8.4,31,8s4-0.2,5.8,0.5c1.8,0.8,3.4,2.1,4.5,3.7c1.1,1.7,1.7,3.6,1.7,5.6c0,2.7-1,5.2-2.9,7.1S35.8,28,33.2,28z
		 M33.2,9.9c-1.6,0-3.1,0.4-4.4,1.3c-1.3,0.9-2.4,2.1-3,3.6c-0.6,1.5-0.8,3.1-0.5,4.6c0.3,1.6,1,3,2.1,4.1c1.1,1.1,2.5,1.9,4,2.2
		c1.5,0.3,3.1,0.2,4.6-0.4c1.5-0.6,2.7-1.6,3.6-2.9c0.9-1.3,1.3-2.9,1.3-4.4c0-2.1-0.8-4.1-2.2-5.6S35.2,9.9,33.2,9.9z"/>
	<path class="st0" d="M37.3,21.4c-0.8,1-2,1.6-3.3,1.8c-1.3,0.1-2.6-0.2-3.6-1l-0.6,0.7c-0.1,0.1-0.1,0.1-0.2,0.1
		c-0.1,0-0.2,0-0.3,0c-0.1,0-0.2-0.1-0.2-0.2s-0.1-0.2-0.1-0.3v-2.2c0-0.1,0-0.2,0.1-0.3c0.1-0.1,0.2-0.1,0.3-0.2h1.9
		c0.1,0,0.2,0,0.2,0.1c0.1,0.1,0.1,0.1,0.2,0.2c0,0.1,0,0.2,0,0.3c0,0.1-0.1,0.2-0.1,0.3l-0.4,0.5c0.8,0.5,1.8,0.7,2.7,0.6
		c0.9-0.1,1.8-0.6,2.4-1.4c0.1-0.1,0.1-0.1,0.2-0.1c0.1,0,0.2-0.1,0.2-0.1c0.1,0,0.2,0,0.2,0.1c0.1,0,0.1,0.1,0.2,0.1
		c0.1,0.1,0.2,0.3,0.2,0.5C37.5,21.1,37.4,21.2,37.3,21.4 M37.5,15.2c0,0.1,0,0.2-0.1,0.3c-0.1,0.1-0.2,0.1-0.3,0.2h-1.9
		c-0.1,0-0.2,0-0.2-0.1c-0.1-0.1-0.1-0.1-0.2-0.2c0-0.1,0-0.2,0-0.3c0-0.1,0.1-0.2,0.1-0.3l0.4-0.5c-0.8-0.5-1.8-0.7-2.7-0.6
		c-0.9,0.1-1.8,0.6-2.4,1.4c-0.1,0.1-0.1,0.1-0.2,0.1s-0.2,0.1-0.2,0.1c-0.1,0-0.2,0-0.2-0.1c-0.1,0-0.1-0.1-0.2-0.1
		c-0.1-0.1-0.2-0.3-0.2-0.5c0-0.2,0.1-0.3,0.2-0.5c0.8-1,2-1.6,3.3-1.8c1.3-0.1,2.6,0.2,3.6,1l0.6-0.7c0.1-0.1,0.1-0.1,0.2-0.1
		c0.1,0,0.2,0,0.3,0c0.1,0,0.2,0.1,0.2,0.2c0,0.1,0.1,0.2,0.1,0.3V15.2z"/>
</g>
</svg>
