<svg width="35" height="37" viewBox="0 0 35 37" fill="none" xmlns="http://www.w3.org/2000/svg">
<g clip-path="url(#clip0_12089_8067)">
<path d="M6.67993 17C6.67993 13.7002 6.67993 12.0503 7.73435 11.0252C8.78876 10 10.4858 10 13.8799 10H23.4799C26.874 10 28.5711 10 29.6255 11.0252C30.6799 12.0503 30.6799 13.7002 30.6799 17C30.6799 20.2998 30.6799 21.9497 29.6255 22.9748C28.5711 24 26.874 24 23.4799 24H13.8799C10.4858 24 8.78876 24 7.73435 22.9748C6.67993 21.9497 6.67993 20.2998 6.67993 17Z" stroke="#179C78" stroke-width="1.57"/>
<circle cx="18.6799" cy="17" r="2.5" stroke="#179C78"/>
<path opacity="0.5" d="M11.6799 9V7C11.6799 3.68629 14.6366 1 18.2839 1C21.3612 1 23.9468 2.91216 24.6799 5.5" stroke="#179C78" stroke-width="2" stroke-linecap="round"/>
<path d="M5.28642 31.8391C5.28642 33.2051 4.35261 34.0926 3.05609 34.0926C1.74414 34.0926 0.825767 33.2051 0.825767 31.8391V28.5207H1.94479V31.8546C1.94479 32.58 2.3924 33.0122 3.05609 33.0122C3.71979 33.0122 4.1674 32.58 4.1674 31.8546V28.5207H5.28642V31.8391ZM6.22101 34V30.1413H7.27829V30.5812C7.47894 30.2725 7.88025 30.0564 8.38188 30.0564C9.31568 30.0564 9.87133 30.7355 9.87133 31.7388V34H8.81405V31.9163C8.81405 31.3607 8.57481 31.0211 8.13492 31.0211C7.64872 31.0211 7.27829 31.3761 7.27829 32.117V34H6.22101ZM10.8409 34V28.212H11.8982V34H10.8409ZM16.7181 32.0707C16.7181 33.1974 15.8075 34.0849 14.6884 34.0849C13.5694 34.0849 12.6588 33.1974 12.6588 32.0707C12.6588 30.9439 13.5694 30.0564 14.6884 30.0564C15.8075 30.0564 16.7181 30.9439 16.7181 32.0707ZM13.7238 32.0707C13.7238 32.6649 14.1328 33.0971 14.6884 33.0971C15.2441 33.0971 15.6454 32.6649 15.6454 32.0707C15.6454 31.4764 15.2441 31.0442 14.6884 31.0442C14.1328 31.0442 13.7238 31.4764 13.7238 32.0707ZM21.1077 32.9736C20.7759 33.6373 20.0813 34.0849 19.2787 34.0849C18.1365 34.0849 17.2336 33.236 17.2336 32.0707C17.2336 30.9053 18.1365 30.0564 19.2787 30.0564C20.0813 30.0564 20.7759 30.504 21.1077 31.1677L20.1894 31.6616C20.035 31.3066 19.7032 31.0442 19.2787 31.0442C18.7231 31.0442 18.2986 31.4764 18.2986 32.0707C18.2986 32.6649 18.7231 33.0971 19.2787 33.0971C19.7032 33.0971 20.035 32.8347 20.1894 32.4797L21.1077 32.9736ZM21.7839 34V28.212H22.8412V31.5613L24.0914 30.1413H25.3648L23.8367 31.8777L25.7198 34H24.4155L22.8412 32.225V34H21.7839ZM25.5841 32.0707C25.5841 30.9285 26.4407 30.0564 27.6137 30.0564C28.6247 30.0564 29.5122 30.7047 29.5122 31.9549C29.5122 32.0475 29.5122 32.1555 29.4968 32.3176H26.6105C26.6722 32.8347 27.1275 33.1202 27.6369 33.1202C28.1154 33.1202 28.4626 32.8964 28.6324 32.634L29.4196 33.2205C29.0646 33.7376 28.4395 34.0849 27.6292 34.0849C26.4793 34.0849 25.5841 33.29 25.5841 32.0707ZM27.5829 30.9285C27.1893 30.9285 26.7494 31.1291 26.6491 31.5999H28.4549C28.3623 31.1446 27.9765 30.9285 27.5829 30.9285ZM30.0457 32.0707C30.0457 30.9748 30.8329 30.0564 31.8593 30.0564C32.3918 30.0564 32.8008 30.3265 32.9706 30.5735V28.212H34.0279V34H32.9706V33.5678C32.8008 33.8148 32.3918 34.0849 31.8593 34.0849C30.8329 34.0849 30.0457 33.1665 30.0457 32.0707ZM33.0555 32.0707C33.0555 31.4687 32.6619 31.0211 32.0831 31.0211C31.5043 31.0211 31.1107 31.4687 31.1107 32.0707C31.1107 32.6726 31.5043 33.1202 32.0831 33.1202C32.6619 33.1202 33.0555 32.6726 33.0555 32.0707Z" fill="#179C78"/>
</g>
<defs>
<clipPath id="clip0_12089_8067">
<rect width="34" height="37" fill="white" transform="translate(0.679932)"/>
</clipPath>
</defs>
</svg>
