<svg width="35" height="32" viewBox="0 0 35 32" fill="none" xmlns="http://www.w3.org/2000/svg">
<g clip-path="url(#clip0_12089_8067)">
<path d="M6.67993 17C6.67993 13.7002 6.67993 12.0503 7.73435 11.0252C8.78876 10 10.4858 10 13.8799 10H23.4799C26.874 10 28.5711 10 29.6255 11.0252C30.6799 12.0503 30.6799 13.7002 30.6799 17C30.6799 20.2998 30.6799 21.9497 29.6255 22.9748C28.5711 24 26.874 24 23.4799 24H13.8799C10.4858 24 8.78876 24 7.73435 22.9748C6.67993 21.9497 6.67993 20.2998 6.67993 17Z" stroke="#179C78" stroke-width="1.57"/>
<circle cx="18.6799" cy="17" r="2.5" stroke="#179C78"/>
<path opacity="0.5" d="M11.6799 9V7C11.6799 3.68629 14.6366 1 18.2839 1C19.662 1 20.9414 1.38345 22 2.0393" stroke="#179C78" stroke-width="2" stroke-linecap="round"/>
</g>
<defs>
<clipPath id="clip0_12089_8067">
<rect width="34" height="37" fill="white" transform="translate(0.679932)"/>
</clipPath>
</defs>
</svg>
